SplineFontDB: 3.2
FontName: KalpanaUnicode
FullName: Kalpana Unicode Kalpana Unicode
FamilyName: Kalpana Unicode
Weight: Book
Copyright: Kalpana Unicode
Version: Created By Banglarfont
ItalicAngle: 0
UnderlinePosition: -100
UnderlineWidth: 50
Ascent: 800
Descent: 200
InvalidEm: 0
sfntRevision: 0x000106a8
LayerCount: 2
Layer: 0 1 "Back" 1
Layer: 1 1 "Fore" 0
XUID: [1021 467 -1121320856 14563541]
StyleMap: 0x0040
FSType: 0
OS2Version: 3
OS2_WeightWidthSlopeOnly: 0
OS2_UseTypoMetrics: 0
CreationTime: 1578814818
ModificationTime: 1638444618
PfmFamily: 17
TTFWeight: 400
TTFWidth: 5
LineGap: 0
VLineGap: 0
Panose: 2 0 5 6 0 0 0 2 0 3
OS2TypoAscent: 1026
OS2TypoAOffset: 0
OS2TypoDescent: -500
OS2TypoDOffset: 0
OS2TypoLinegap: 0
OS2WinAscent: 1026
OS2WinAOffset: 0
OS2WinDescent: 500
OS2WinDOffset: 0
HheadAscent: 1026
HheadAOffset: 0
HheadDescent: -500
HheadDOffset: 0
OS2SubXSize: 650
OS2SubYSize: 600
OS2SubXOff: 0
OS2SubYOff: 75
OS2SupXSize: 650
OS2SupYSize: 600
OS2SupXOff: 0
OS2SupYOff: 350
OS2StrikeYSize: 50
OS2StrikeYPos: 300
OS2CapHeight: 700
OS2XHeight: 500
OS2Vendor: 'BNFT'
OS2CodePages: 00000001.00000000
OS2UnicodeRanges: 00010001.00000000.00000000.00000000
Lookup: 4 0 0 "'blwf' Below Base Forms in Bengali2 lookup 0" { "'blwf' Below Base Forms in Bengali2 lookup 0 subtable"  } ['blwf' ('DFLT' <'dflt' > 'bng2' <'dflt' > ) ]
Lookup: 4 0 0 "'blwf' Below Base Forms in Bengali lookup 1" { "'blwf' Below Base Forms in Bengali lookup 1 subtable"  } ['blwf' ('beng' <'dflt' > ) ]
Lookup: 4 0 0 "'pstf' Post Base Forms in Bengali2 lookup 2" { "'pstf' Post Base Forms in Bengali2 lookup 2 subtable"  } ['pstf' ('DFLT' <'dflt' > 'bng2' <'dflt' > ) ]
Lookup: 4 0 0 "'pstf' Post Base Forms in Bengali lookup 3" { "'pstf' Post Base Forms in Bengali lookup 3 subtable"  } ['pstf' ('beng' <'dflt' > ) ]
Lookup: 6 0 0 "Contextual Chaining Substitution lookup 4" { "Contextual Chaining Substitution lookup 4 contextual 0"  "Contextual Chaining Substitution lookup 4 contextual 1"  } []

StartChar: exclam
Encoding: 33 33 4
Width: 269
GlyphClass: 2
Flags: W
LayerCount: 2
Fore
SplineSet
182 405 m 0,0,1
 182 378 182 378 181.5 347.5 c 128,-1,2
 181 317 181 317 180.5 289.5 c 128,-1,3
 180 262 180 262 179.5 242.5 c 128,-1,4
 179 223 179 223 179 219 c 2,5,-1
 146 215 l 1,6,7
 143 226 143 226 138.5 253 c 128,-1,8
 134 280 134 280 129.5 316.5 c 128,-1,9
 125 353 125 353 120.5 394 c 128,-1,10
 116 435 116 435 112.5 473.5 c 128,-1,11
 109 512 109 512 106.5 544 c 128,-1,12
 104 576 104 576 104 594 c 0,13,14
 104 614 104 614 114 628.5 c 128,-1,15
 124 643 124 643 139 643 c 0,16,17
 158 643 158 643 168 629.5 c 128,-1,18
 178 616 178 616 178 595 c 0,19,20
 178 563 178 563 180 512.5 c 128,-1,21
 182 462 182 462 182 405 c 0,0,1
218 113 m 256,22,23
 218 85 218 85 203.5 65 c 128,-1,24
 189 45 189 45 167 45 c 0,25,26
 146 45 146 45 132 65 c 128,-1,27
 118 85 118 85 118 113 c 256,28,29
 118 141 118 141 132 160 c 128,-1,30
 146 179 146 179 167 179 c 0,31,32
 189 179 189 179 203.5 160 c 128,-1,33
 218 141 218 141 218 113 c 256,22,23
EndSplineSet
EndChar

StartChar: quotedbl
Encoding: 34 34 5
Width: 461
GlyphClass: 2
Flags: W
LayerCount: 2
Fore
SplineSet
214 622 m 1,0,-1
 179 491 l 1,1,-1
 154 500 l 1,2,-1
 118 579 l 1,3,-1
 102 623 l 1,4,-1
 101 630 l 2,5,6
 101 632 101 632 100.5 633 c 128,-1,7
 100 634 100 634 100 635 c 0,8,9
 100 645 100 645 111 655.5 c 128,-1,10
 122 666 122 666 154 666 c 0,11,12
 170 666 170 666 188.5 660 c 128,-1,13
 207 654 207 654 212 640 c 2,14,-1
 214 622 l 1,0,-1
364 622 m 1,15,-1
 329 491 l 1,16,-1
 304 500 l 1,17,-1
 268 579 l 1,18,-1
 252 623 l 1,19,-1
 251 630 l 2,20,21
 251 632 251 632 250.5 633 c 128,-1,22
 250 634 250 634 250 635 c 0,23,24
 250 645 250 645 261 655.5 c 128,-1,25
 272 666 272 666 304 666 c 0,26,27
 320 666 320 666 338.5 660 c 128,-1,28
 357 654 357 654 362 640 c 2,29,-1
 364 622 l 1,15,-1
EndSplineSet
EndChar

StartChar: numbersign
Encoding: 35 35 6
Width: 588
GlyphClass: 2
Flags: W
LayerCount: 2
Fore
SplineSet
475 587 m 1,0,-1
 446 487 l 1,1,-1
 551 487 l 1,2,-1
 536 437 l 1,3,-1
 432 437 l 1,4,-1
 400 326 l 1,5,-1
 511 326 l 1,6,-1
 496 276 l 1,7,-1
 386 276 l 1,8,-1
 353 159 l 2,9,10
 347 136 347 136 334 136 c 0,11,12
 325 136 325 136 317.5 145 c 128,-1,13
 310 154 310 154 310 163 c 2,14,-1
 338 276 l 1,15,-1
 179 276 l 1,16,-1
 146 159 l 2,17,18
 140 136 140 136 127 136 c 0,19,20
 118 136 118 136 110.5 145 c 128,-1,21
 103 154 103 154 103 163 c 2,22,-1
 131 276 l 1,23,-1
 32 276 l 1,24,-1
 47 326 l 1,25,-1
 144 326 l 1,26,-1
 172 437 l 1,27,-1
 72 437 l 1,28,-1
 87 487 l 1,29,-1
 185 487 l 1,30,-1
 208 577 l 2,31,32
 212 601 212 601 221 610.5 c 128,-1,33
 230 620 230 620 240 620 c 0,34,35
 251 620 251 620 259.5 611.5 c 128,-1,36
 268 603 268 603 268 591 c 2,37,-1
 239 487 l 1,38,-1
 392 487 l 1,39,-1
 415 577 l 2,40,41
 419 601 419 601 428 610.5 c 128,-1,42
 437 620 437 620 447 620 c 0,43,44
 458 620 458 620 466.5 611.5 c 128,-1,45
 475 603 475 603 475 591 c 2,46,-1
 475 587 l 1,0,-1
193 326 m 1,47,-1
 351 326 l 1,48,-1
 379 437 l 1,49,-1
 225 437 l 1,50,-1
 193 326 l 1,47,-1
EndSplineSet
EndChar

StartChar: percent
Encoding: 37 37 7
Width: 637
GlyphClass: 2
Flags: W
LayerCount: 2
Fore
SplineSet
297 505 m 2,0,-1
 298 493 l 2,1,2
 298 458 298 458 289 427.5 c 128,-1,3
 280 397 280 397 264 374 c 128,-1,4
 248 351 248 351 226 338 c 128,-1,5
 204 325 204 325 179 325 c 0,6,7
 134 325 134 325 103.5 355.5 c 128,-1,8
 73 386 73 386 73 437 c 0,9,10
 73 467 73 467 84.5 496.5 c 128,-1,11
 96 526 96 526 115.5 549 c 128,-1,12
 135 572 135 572 161.5 586 c 128,-1,13
 188 600 188 600 218 600 c 0,14,15
 239 600 239 600 251 591 c 2,16,-1
 272 574 l 2,17,18
 290 560 290 560 314 557 c 128,-1,19
 338 554 338 554 352 554 c 0,20,21
 380 554 380 554 408.5 569.5 c 128,-1,22
 437 585 437 585 459 614 c 1,23,-1
 518 614 l 1,24,-1
 206 46 l 1,25,-1
 136 46 l 1,26,-1
 389 509 l 1,27,28
 372 504 372 504 334 504 c 2,29,-1
 311 504 l 2,30,31
 298 504 298 504 297 505 c 2,0,-1
575 234 m 0,32,33
 575 199 575 199 566 168.5 c 128,-1,34
 557 138 557 138 541 115.5 c 128,-1,35
 525 93 525 93 502.5 80 c 128,-1,36
 480 67 480 67 453 67 c 0,37,38
 404 67 404 67 376.5 98.5 c 128,-1,39
 349 130 349 130 349 179 c 0,40,41
 349 206 349 206 359.5 235 c 128,-1,42
 370 264 370 264 388.5 288.5 c 128,-1,43
 407 313 407 313 431.5 328.5 c 128,-1,44
 456 344 456 344 484 344 c 2,45,-1
 496 343 l 2,46,47
 538 339 538 339 556.5 314 c 128,-1,48
 575 289 575 289 575 234 c 0,32,33
526 237 m 0,49,50
 526 258 526 258 518 273 c 128,-1,51
 510 288 510 288 497 288 c 0,52,53
 473 288 473 288 452 234 c 1,54,-1
 438 188 l 2,55,56
 434 176 434 176 434.5 166.5 c 128,-1,57
 435 157 435 157 433 149 c 0,58,59
 433 115 433 115 453 115 c 0,60,61
 466 115 466 115 479 128 c 128,-1,62
 492 141 492 141 502.5 160 c 128,-1,63
 513 179 513 179 519.5 200 c 128,-1,64
 526 221 526 221 526 237 c 0,49,50
252 494 m 0,65,66
 252 516 252 516 243.5 530.5 c 128,-1,67
 235 545 235 545 223 545 c 0,68,69
 214 545 214 545 203 532.5 c 128,-1,70
 192 520 192 520 182 500.5 c 128,-1,71
 172 481 172 481 165.5 456 c 128,-1,72
 159 431 159 431 159 406 c 0,73,74
 159 388 159 388 163.5 380.5 c 128,-1,75
 168 373 168 373 178 373 c 0,76,77
 192 373 192 373 205.5 386.5 c 128,-1,78
 219 400 219 400 229.5 419 c 128,-1,79
 240 438 240 438 246 459 c 128,-1,80
 252 480 252 480 252 494 c 0,65,66
EndSplineSet
EndChar

StartChar: quotesingle
Encoding: 39 39 8
Width: 325
GlyphClass: 2
Flags: W
LayerCount: 2
Fore
SplineSet
214 622 m 1,0,-1
 179 491 l 1,1,-1
 154 500 l 1,2,-1
 118 579 l 1,3,-1
 102 623 l 1,4,-1
 101 630 l 2,5,6
 101 632 101 632 100.5 633 c 128,-1,7
 100 634 100 634 100 635 c 0,8,9
 100 645 100 645 111 655.5 c 128,-1,10
 122 666 122 666 154 666 c 0,11,12
 170 666 170 666 188.5 660 c 128,-1,13
 207 654 207 654 212 640 c 2,14,-1
 214 622 l 1,0,-1
EndSplineSet
EndChar

StartChar: parenleft
Encoding: 40 40 9
Width: 292
GlyphClass: 2
Flags: W
LayerCount: 2
Fore
SplineSet
272 -108 m 1,0,1
 244 -85 244 -85 219.5 -47 c 128,-1,2
 195 -9 195 -9 173.5 36.5 c 128,-1,3
 152 82 152 82 134.5 132 c 128,-1,4
 117 182 117 182 104.5 230 c 128,-1,5
 92 278 92 278 85.5 321.5 c 128,-1,6
 79 365 79 365 79 397 c 0,7,8
 79 449 79 449 89 509.5 c 128,-1,9
 99 570 99 570 117.5 628.5 c 128,-1,10
 136 687 136 687 162.5 738 c 128,-1,11
 189 789 189 789 221 821 c 1,12,-1
 263 820 l 1,13,14
 231 775 231 775 207.5 722.5 c 128,-1,15
 184 670 184 670 169 615.5 c 128,-1,16
 154 561 154 561 146.5 507.5 c 128,-1,17
 139 454 139 454 139 406 c 0,18,19
 139 361 139 361 149 295 c 128,-1,20
 159 229 159 229 180.5 157 c 128,-1,21
 202 85 202 85 235 15 c 128,-1,22
 268 -55 268 -55 314 -109 c 1,23,-1
 272 -108 l 1,0,1
EndSplineSet
EndChar

StartChar: parenright
Encoding: 41 41 10
Width: 273
GlyphClass: 2
Flags: W
LayerCount: 2
Fore
SplineSet
196 381 m 0,0,1
 196 374 196 374 196.5 367 c 128,-1,2
 197 360 197 360 197 352 c 0,3,4
 197 298 197 298 187.5 231.5 c 128,-1,5
 178 165 178 165 161 100 c 128,-1,6
 144 35 144 35 118.5 -21 c 128,-1,7
 93 -77 93 -77 62 -108 c 1,8,-1
 22 -109 l 1,9,10
 53 -66 53 -66 75 -11 c 128,-1,11
 97 44 97 44 111 103.5 c 128,-1,12
 125 163 125 163 132 221.5 c 128,-1,13
 139 280 139 280 139 329 c 0,14,15
 139 376 139 376 134 438 c 128,-1,16
 129 500 129 500 113.5 566.5 c 128,-1,17
 98 633 98 633 69.5 699 c 128,-1,18
 41 765 41 765 -5 820 c 1,19,-1
 34 821 l 1,20,21
 73 787 73 787 102 733.5 c 128,-1,22
 131 680 131 680 151 619 c 128,-1,23
 171 558 171 558 182 495.5 c 128,-1,24
 193 433 193 433 196 381 c 0,0,1
EndSplineSet
EndChar

StartChar: asterisk
Encoding: 42 42 11
Width: 459
GlyphClass: 2
Flags: W
LayerCount: 2
Fore
SplineSet
414 428 m 0,0,1
 414 413 414 413 403.5 403 c 128,-1,2
 393 393 393 393 375 386 c 2,3,-1
 315 375 l 1,4,-1
 267 354 l 1,5,6
 407 307 407 307 407 272 c 0,7,8
 407 240 407 240 369 232 c 0,9,10
 352 232 352 232 313 271 c 2,11,-1
 247 335 l 1,12,13
 248 323 248 323 251.5 303.5 c 128,-1,14
 255 284 255 284 258.5 263.5 c 128,-1,15
 262 243 262 243 264.5 224 c 128,-1,16
 267 205 267 205 267 195 c 0,17,18
 267 157 267 157 231 153 c 1,19,20
 194 153 194 153 192 200 c 1,21,-1
 203 257 l 1,22,-1
 222 335 l 1,23,-1
 151 272 l 2,24,25
 131 255 131 255 120 246 c 128,-1,26
 109 237 109 237 100 237 c 0,27,28
 62 237 62 237 62 277 c 0,29,30
 62 311 62 311 102 320 c 2,31,-1
 161 333 l 1,32,-1
 210 355 l 1,33,-1
 115 394 l 2,34,35
 65 414 65 414 65 442 c 0,36,37
 65 455 65 455 74.5 467 c 128,-1,38
 84 479 84 479 103 481 c 0,39,40
 119 481 119 481 159 441 c 2,41,-1
 223 378 l 1,42,43
 222 389 222 389 218.5 409.5 c 128,-1,44
 215 430 215 430 211 452.5 c 128,-1,45
 207 475 207 475 203.5 495 c 128,-1,46
 200 515 200 515 199 525 c 0,47,48
 199 560 199 560 238 565 c 1,49,50
 276 565 276 565 278 520 c 1,51,-1
 252 378 l 1,52,-1
 334 441 l 2,53,54
 350 453 350 453 361 460 c 128,-1,55
 372 467 372 467 376 467 c 0,56,57
 412 467 412 467 414 428 c 0,0,1
EndSplineSet
EndChar

StartChar: plus
Encoding: 43 43 12
Width: 328
GlyphClass: 2
Flags: W
LayerCount: 2
Fore
SplineSet
127 440 m 1,0,-1
 192 440 l 1,1,-1
 192 370 l 1,2,-1
 261 370 l 1,3,-1
 261 305 l 1,4,-1
 192 305 l 1,5,-1
 192 237 l 1,6,-1
 127 237 l 1,7,-1
 127 305 l 1,8,-1
 58 305 l 1,9,-1
 58 370 l 1,10,-1
 127 370 l 1,11,-1
 127 440 l 1,0,-1
EndSplineSet
EndChar

StartChar: comma
Encoding: 44 44 13
Width: 204
GlyphClass: 2
Flags: W
LayerCount: 2
Fore
SplineSet
182 25 m 0,0,1
 178 4 178 4 171 -14 c 128,-1,2
 164 -32 164 -32 151.5 -49.5 c 128,-1,3
 139 -67 139 -67 118.5 -85 c 128,-1,4
 98 -103 98 -103 67 -124 c 1,5,-1
 33 -88 l 1,6,7
 46 -77 46 -77 60.5 -65.5 c 128,-1,8
 75 -54 75 -54 87 -42 c 128,-1,9
 99 -30 99 -30 106.5 -17 c 128,-1,10
 114 -4 114 -4 114 10 c 0,11,12
 114 18 114 18 108 26 c 1,13,14
 97 22 97 22 88 22 c 0,15,16
 64 22 64 22 52.5 42 c 128,-1,17
 41 62 41 62 41 82 c 0,18,19
 41 108 41 108 59 127.5 c 128,-1,20
 77 147 77 147 105 147 c 0,21,22
 124 147 124 147 138.5 139.5 c 128,-1,23
 153 132 153 132 163 119 c 128,-1,24
 173 106 173 106 178.5 90 c 128,-1,25
 184 74 184 74 184 58 c 0,26,27
 184 49 184 49 183.5 41 c 128,-1,28
 183 33 183 33 182 25 c 0,0,1
EndSplineSet
EndChar

StartChar: hyphen
Encoding: 45 45 14
Width: 318
GlyphClass: 2
Flags: W
LayerCount: 2
Fore
SplineSet
58 305 m 1,0,-1
 58 370 l 1,1,-1
 261 370 l 1,2,-1
 261 305 l 1,3,-1
 58 305 l 1,0,-1
EndSplineSet
EndChar

StartChar: period
Encoding: 46 46 15
Width: 180
GlyphClass: 2
Flags: W
LayerCount: 2
Fore
SplineSet
154 118 m 0,0,1
 154 89 154 89 139.5 69 c 128,-1,2
 125 49 125 49 100 44 c 1,3,4
 74 44 74 44 59.5 64 c 128,-1,5
 45 84 45 84 45 118 c 0,6,7
 45 150 45 150 59 171.5 c 128,-1,8
 73 193 73 193 98 193 c 0,9,10
 124 193 124 193 138 172.5 c 128,-1,11
 152 152 152 152 154 118 c 0,0,1
EndSplineSet
EndChar

StartChar: slash
Encoding: 47 47 16
Width: 338
GlyphClass: 2
Flags: W
LayerCount: 2
Fore
SplineSet
252 767 m 1,0,-1
 146 275 l 2,1,2
 135 228 135 228 124 178 c 128,-1,3
 113 128 113 128 102 79.5 c 128,-1,4
 91 31 91 31 81 -14.5 c 128,-1,5
 71 -60 71 -60 62 -97 c 0,6,7
 56 -120 56 -120 43 -120 c 0,8,9
 34 -120 34 -120 26.5 -111 c 128,-1,10
 19 -102 19 -102 19 -93 c 2,11,-1
 19 -91 l 1,12,13
 36 15 36 15 56.5 124 c 128,-1,14
 77 233 77 233 99.5 341 c 128,-1,15
 122 449 122 449 145.5 554 c 128,-1,16
 169 659 169 659 192 757 c 0,17,18
 196 781 196 781 205 790.5 c 128,-1,19
 214 800 214 800 224 800 c 0,20,21
 235 800 235 800 243.5 791.5 c 128,-1,22
 252 783 252 783 252 771 c 2,23,-1
 252 767 l 1,0,-1
EndSplineSet
EndChar

StartChar: colon
Encoding: 58 58 17
Width: 264
GlyphClass: 2
Flags: W
LayerCount: 2
Fore
SplineSet
183 438 m 0,0,1
 183 403 183 403 167 379.5 c 128,-1,2
 151 356 151 356 119 351 c 1,3,4
 88 351 88 351 71 372.5 c 128,-1,5
 54 394 54 394 54 437 c 256,6,7
 54 480 54 480 73 502 c 128,-1,8
 92 524 92 524 118 524 c 0,9,10
 136 524 136 524 157 504.5 c 128,-1,11
 178 485 178 485 183 438 c 0,0,1
183 150 m 1,12,13
 183 108 183 108 165.5 86.5 c 128,-1,14
 148 65 148 65 119 61 c 0,15,16
 107 61 107 61 95.5 64.5 c 128,-1,17
 84 68 84 68 75 78 c 128,-1,18
 66 88 66 88 60.5 104 c 128,-1,19
 55 120 55 120 54 146 c 0,20,21
 54 188 54 188 71 210.5 c 128,-1,22
 88 233 88 233 118 233 c 0,23,24
 141 233 141 233 159 213 c 128,-1,25
 177 193 177 193 183 150 c 1,12,13
EndSplineSet
EndChar

StartChar: semicolon
Encoding: 59 59 18
Width: 264
GlyphClass: 2
Flags: W
LayerCount: 2
Fore
SplineSet
182 128 m 0,0,1
 178 107 178 107 171 89 c 128,-1,2
 164 71 164 71 151.5 53.5 c 128,-1,3
 139 36 139 36 118.5 18 c 128,-1,4
 98 0 98 0 67 -21 c 1,5,-1
 33 15 l 1,6,7
 46 26 46 26 60.5 37.5 c 128,-1,8
 75 49 75 49 87 61 c 128,-1,9
 99 73 99 73 106.5 86 c 128,-1,10
 114 99 114 99 114 113 c 0,11,12
 114 121 114 121 108 129 c 1,13,14
 97 125 97 125 88 125 c 0,15,16
 64 125 64 125 52.5 145 c 128,-1,17
 41 165 41 165 41 185 c 0,18,19
 41 211 41 211 59 230.5 c 128,-1,20
 77 250 77 250 105 250 c 0,21,22
 124 250 124 250 138.5 242.5 c 128,-1,23
 153 235 153 235 163 222 c 128,-1,24
 173 209 173 209 178.5 193 c 128,-1,25
 184 177 184 177 184 161 c 0,26,27
 184 152 184 152 183.5 144 c 128,-1,28
 183 136 183 136 182 128 c 0,0,1
183 438 m 0,29,30
 183 403 183 403 167 379.5 c 128,-1,31
 151 356 151 356 119 351 c 1,32,33
 88 351 88 351 71 372.5 c 128,-1,34
 54 394 54 394 54 437 c 256,35,36
 54 480 54 480 73 502 c 128,-1,37
 92 524 92 524 118 524 c 0,38,39
 136 524 136 524 157 504.5 c 128,-1,40
 178 485 178 485 183 438 c 0,29,30
EndSplineSet
EndChar

StartChar: less
Encoding: 60 60 19
Width: 444
GlyphClass: 2
Flags: W
LayerCount: 2
Fore
SplineSet
41 349 m 1,0,-1
 326 509 l 1,1,-1
 326 439 l 1,2,-1
 103 315 l 1,3,-1
 326 190 l 1,4,-1
 326 120 l 1,5,-1
 41 280 l 1,6,-1
 41 349 l 1,0,-1
EndSplineSet
EndChar

StartChar: equal
Encoding: 61 61 20
Width: 326
GlyphClass: 2
Flags: W
LayerCount: 2
Fore
SplineSet
58 254 m 1,0,-1
 58 319 l 1,1,-1
 261 319 l 1,2,-1
 261 254 l 1,3,-1
 58 254 l 1,0,-1
58 392 m 1,4,-1
 58 457 l 1,5,-1
 261 457 l 1,6,-1
 261 392 l 1,7,-1
 58 392 l 1,4,-1
EndSplineSet
EndChar

StartChar: greater
Encoding: 62 62 21
Width: 383
GlyphClass: 2
Flags: W
LayerCount: 2
Fore
SplineSet
326 349 m 1,0,-1
 326 280 l 1,1,-1
 41 120 l 1,2,-1
 41 190 l 1,3,-1
 264 315 l 1,4,-1
 41 439 l 1,5,-1
 41 509 l 1,6,-1
 326 349 l 1,0,-1
EndSplineSet
EndChar

StartChar: question
Encoding: 63 63 22
Width: 495
GlyphClass: 2
Flags: W
LayerCount: 2
Fore
SplineSet
379 527 m 0,0,1
 379 490 379 490 362.5 468 c 128,-1,2
 346 446 346 446 326.5 426.5 c 128,-1,3
 307 407 307 407 291 383.5 c 128,-1,4
 275 360 275 360 275 319 c 0,5,6
 275 307 275 307 276 300 c 128,-1,7
 277 293 277 293 279.5 286.5 c 128,-1,8
 282 280 282 280 284.5 271 c 128,-1,9
 287 262 287 262 290 247 c 2,10,-1
 290 242 l 2,11,12
 290 228 290 228 280.5 220 c 128,-1,13
 271 212 271 212 260 212 c 0,14,15
 245 212 245 212 235.5 227.5 c 128,-1,16
 226 243 226 243 220.5 265.5 c 128,-1,17
 215 288 215 288 213.5 312.5 c 128,-1,18
 212 337 212 337 212 355 c 0,19,20
 212 387 212 387 229 413 c 128,-1,21
 246 439 246 439 267 459.5 c 128,-1,22
 288 480 288 480 305 496.5 c 128,-1,23
 322 513 322 513 322 527 c 0,24,25
 322 556 322 556 309 568.5 c 128,-1,26
 296 581 296 581 267 581 c 0,27,28
 247 581 247 581 237 577 c 128,-1,29
 227 573 227 573 220 559 c 1,30,31
 222 541 222 541 225.5 536 c 128,-1,32
 229 531 229 531 229 520 c 0,33,34
 229 510 229 510 226.5 498.5 c 128,-1,35
 224 487 224 487 218.5 477.5 c 128,-1,36
 213 468 213 468 203.5 461.5 c 128,-1,37
 194 455 194 455 180 455 c 0,38,39
 165 455 165 455 155 464 c 128,-1,40
 145 473 145 473 140 485.5 c 128,-1,41
 135 498 135 498 133 512.5 c 128,-1,42
 131 527 131 527 131 538 c 0,43,44
 131 554 131 554 136.5 575.5 c 128,-1,45
 142 597 142 597 156.5 617 c 128,-1,46
 171 637 171 637 196.5 651 c 128,-1,47
 222 665 222 665 263 665 c 0,48,49
 326 665 326 665 352.5 629 c 128,-1,50
 379 593 379 593 379 527 c 0,0,1
317 111 m 256,51,52
 317 85 317 85 304 66 c 128,-1,53
 291 47 291 47 269 47 c 0,54,55
 249 47 249 47 236 66 c 128,-1,56
 223 85 223 85 223 111 c 256,57,58
 223 137 223 137 236 155.5 c 128,-1,59
 249 174 249 174 269 174 c 0,60,61
 291 174 291 174 304 155.5 c 128,-1,62
 317 137 317 137 317 111 c 256,51,52
EndSplineSet
EndChar

StartChar: periodcentered
Encoding: 183 183 23
Width: 378
GlyphClass: 2
Flags: W
AnchorPoint: "Anchor-2" 300 -134 basechar 0
AnchorPoint: "Anchor-1" 300 505 basechar 0
AnchorPoint: "Anchor-0" 300 505 basechar 0
LayerCount: 2
Fore
SplineSet
468 562 m 1,0,1
 466 558 466 558 455.5 543.5 c 128,-1,2
 445 529 445 529 430 505 c 1,3,4
 422 519 422 519 405.5 529.5 c 128,-1,5
 389 540 389 540 372 540 c 0,6,7
 364 540 364 540 355.5 537.5 c 128,-1,8
 347 535 347 535 339 526.5 c 128,-1,9
 331 518 331 518 325 502.5 c 128,-1,10
 319 487 319 487 316 462 c 0,11,12
 317 443 317 443 317 426 c 2,13,-1
 317 334 l 2,14,15
 317 286 317 286 316.5 250.5 c 128,-1,16
 316 215 316 215 316 187 c 0,17,18
 316 162 316 162 317.5 146.5 c 128,-1,19
 319 131 319 131 320.5 117 c 128,-1,20
 322 103 322 103 323.5 85.5 c 128,-1,21
 325 68 325 68 325 38 c 0,22,23
 325 15 325 15 314.5 3 c 128,-1,24
 304 -9 304 -9 289 -9 c 0,25,26
 272 -9 272 -9 255.5 5 c 128,-1,27
 239 19 239 19 228 48 c 1,28,29
 209 76 209 76 186 95 c 128,-1,30
 163 114 163 114 139.5 128.5 c 128,-1,31
 116 143 116 143 93 155 c 128,-1,32
 70 167 70 167 52.5 180.5 c 128,-1,33
 35 194 35 194 23.5 210.5 c 128,-1,34
 12 227 12 227 11 252 c 0,35,36
 12 259 12 259 21.5 272.5 c 128,-1,37
 31 286 31 286 46 302.5 c 128,-1,38
 61 319 61 319 79 336.5 c 128,-1,39
 97 354 97 354 115 370 c 1,40,41
 110 374 110 374 100.5 389.5 c 128,-1,42
 91 405 91 405 80 428 c 128,-1,43
 69 451 69 451 58.5 479.5 c 128,-1,44
 48 508 48 508 40 538 c 1,45,46
 9 530 9 530 -14 515 c 128,-1,47
 -37 500 -37 500 -44 489 c 1,48,49
 -60 515 -60 515 -70.5 535.5 c 128,-1,50
 -81 556 -81 556 -83 560 c 1,51,52
 -68 575 -68 575 -39 589.5 c 128,-1,53
 -10 604 -10 604 28 611 c 1,54,55
 22 629 22 629 22 651 c 0,56,57
 22 676 22 676 27.5 699.5 c 128,-1,58
 33 723 33 723 45 741 c 128,-1,59
 57 759 57 759 76.5 770 c 128,-1,60
 96 781 96 781 124 781 c 0,61,62
 153 781 153 781 173 760.5 c 128,-1,63
 193 740 193 740 193 711 c 0,64,65
 193 687 193 687 175 667.5 c 128,-1,66
 157 648 157 648 134 648 c 0,67,68
 121 648 121 648 108 656 c 1,69,70
 102 651 102 651 99 637.5 c 128,-1,71
 96 624 96 624 96 615 c 1,72,73
 123 612 123 612 148.5 604.5 c 128,-1,74
 174 597 174 597 195.5 585.5 c 128,-1,75
 217 574 217 574 234 560 c 128,-1,76
 251 546 251 546 260 531 c 1,77,78
 272 560 272 560 304.5 583.5 c 128,-1,79
 337 607 337 607 383 607 c 0,80,81
 415 607 415 607 435 591 c 128,-1,82
 455 575 455 575 468 562 c 1,0,1
248 410 m 1,83,84
 235 387 235 387 214.5 367 c 128,-1,85
 194 347 194 347 171 328 c 128,-1,86
 148 309 148 309 124 290.5 c 128,-1,87
 100 272 100 272 80 252 c 1,88,89
 103 245 103 245 127 229.5 c 128,-1,90
 151 214 151 214 173.5 194.5 c 128,-1,91
 196 175 196 175 216 155 c 128,-1,92
 236 135 236 135 251 119 c 1,93,-1
 248 410 l 1,83,84
212 490 m 1,94,95
 192 512 192 512 161 526.5 c 128,-1,96
 130 541 130 541 102 546 c 1,97,98
 108 527 108 527 115 505 c 128,-1,99
 122 483 122 483 130 464 c 128,-1,100
 138 445 138 445 146.5 431 c 128,-1,101
 155 417 155 417 163 414 c 1,102,103
 168 419 168 419 176.5 428.5 c 128,-1,104
 185 438 185 438 193 448.5 c 128,-1,105
 201 459 201 459 206.5 469 c 128,-1,106
 212 479 212 479 212 487 c 2,107,-1
 212 490 l 1,94,95
EndSplineSet
EndChar

StartChar: multiply
Encoding: 215 215 24
Width: 188
GlyphClass: 2
Flags: W
LayerCount: 2
Fore
SplineSet
945 -254 m 1,0,1
 941 -260 941 -260 924.5 -277.5 c 128,-1,2
 908 -295 908 -295 878.5 -314 c 128,-1,3
 849 -333 849 -333 805.5 -347.5 c 128,-1,4
 762 -362 762 -362 704 -362 c 0,5,6
 643 -362 643 -362 567 -347.5 c 128,-1,7
 491 -333 491 -333 414 -301.5 c 128,-1,8
 337 -270 337 -270 266.5 -221.5 c 128,-1,9
 196 -173 196 -173 145 -104 c 0,10,11
 109 -55 109 -55 85 -6 c 128,-1,12
 61 43 61 43 46.5 90 c 128,-1,13
 32 137 32 137 26.5 182 c 128,-1,14
 21 227 21 227 21 268 c 0,15,16
 21 314 21 314 26.5 353 c 128,-1,17
 32 392 32 392 39 422 c 128,-1,18
 46 452 46 452 53 472 c 128,-1,19
 60 492 60 492 63 500 c 0,20,21
 64 503 64 503 64.5 505.5 c 128,-1,22
 65 508 65 508 65 511 c 0,23,24
 65 525 65 525 51 536.5 c 128,-1,25
 37 548 37 548 14 548 c 256,26,27
 -9 548 -9 548 -29 535 c 128,-1,28
 -49 522 -49 522 -59 505 c 1,29,30
 -74 530 -74 530 -84.5 544 c 128,-1,31
 -95 558 -95 558 -97 562 c 1,32,33
 -77 581 -77 581 -54.5 594.5 c 128,-1,34
 -32 608 -32 608 -3 608 c 0,35,36
 12 608 12 608 28.5 604 c 128,-1,37
 45 600 45 600 59 591.5 c 128,-1,38
 73 583 73 583 83 570.5 c 128,-1,39
 93 558 93 558 96 540 c 1,40,41
 102 558 102 558 114.5 571 c 128,-1,42
 127 584 127 584 141.5 591.5 c 128,-1,43
 156 599 156 599 171 602.5 c 128,-1,44
 186 606 186 606 198 606 c 0,45,46
 230 606 230 606 250.5 590 c 128,-1,47
 271 574 271 574 283 562 c 1,48,49
 281 558 281 558 270.5 543.5 c 128,-1,50
 260 529 260 529 245 505 c 1,51,52
 238 518 238 518 224 530 c 128,-1,53
 210 542 210 542 192 542 c 0,54,55
 173 542 173 542 154.5 525 c 128,-1,56
 136 508 136 508 121.5 474.5 c 128,-1,57
 107 441 107 441 98 390 c 128,-1,58
 89 339 89 339 89 271 c 0,59,60
 89 229 89 229 94 184.5 c 128,-1,61
 99 140 99 140 110 96.5 c 128,-1,62
 121 53 121 53 139 12 c 128,-1,63
 157 -29 157 -29 183 -64 c 0,64,65
 229 -126 229 -126 286.5 -176 c 128,-1,66
 344 -226 344 -226 410.5 -261.5 c 128,-1,67
 477 -297 477 -297 550 -316.5 c 128,-1,68
 623 -336 623 -336 700 -336 c 0,69,70
 739 -336 739 -336 777 -328 c 128,-1,71
 815 -320 815 -320 846.5 -306.5 c 128,-1,72
 878 -293 878 -293 902 -275.5 c 128,-1,73
 926 -258 926 -258 937 -240 c 1,74,75
 939 -243 939 -243 940.5 -246 c 128,-1,76
 942 -249 942 -249 945 -254 c 1,0,1
EndSplineSet
EndChar

StartChar: divide
Encoding: 247 247 25
Width: 474
GlyphClass: 2
Flags: W
LayerCount: 2
Fore
SplineSet
378 208 m 0,0,1
 378 162 378 162 363.5 122 c 128,-1,2
 349 82 349 82 325 52.5 c 128,-1,3
 301 23 301 23 270.5 6 c 128,-1,4
 240 -11 240 -11 208 -11 c 0,5,6
 193 -11 193 -11 178.5 -7 c 128,-1,7
 164 -3 164 -3 152 6.5 c 128,-1,8
 140 16 140 16 132.5 30.5 c 128,-1,9
 125 45 125 45 125 66 c 0,10,11
 125 93 125 93 136 108.5 c 128,-1,12
 147 124 147 124 165 131.5 c 128,-1,13
 183 139 183 139 206.5 141 c 128,-1,14
 230 143 230 143 255 143 c 0,15,16
 272 143 272 143 286 134 c 1,17,18
 293 152 293 152 302.5 171.5 c 128,-1,19
 312 191 312 191 312 211 c 0,20,21
 312 252 312 252 296.5 284.5 c 128,-1,22
 281 317 281 317 258.5 344 c 128,-1,23
 236 371 236 371 209 394.5 c 128,-1,24
 182 418 182 418 159.5 440.5 c 128,-1,25
 137 463 137 463 121.5 486.5 c 128,-1,26
 106 510 106 510 106 537 c 0,27,28
 106 586 106 586 131.5 610 c 128,-1,29
 157 634 157 634 190 634 c 0,30,31
 212 634 212 634 233 626.5 c 128,-1,32
 254 619 254 619 270.5 604.5 c 128,-1,33
 287 590 287 590 296.5 569.5 c 128,-1,34
 306 549 306 549 306 523 c 1,35,36
 301 502 301 502 290 502 c 0,37,38
 281 502 281 502 279 516 c 0,39,40
 269 554 269 554 250 564.5 c 128,-1,41
 231 575 231 575 208 575 c 0,42,43
 198 575 198 575 191.5 566.5 c 128,-1,44
 185 558 185 558 185 543 c 0,45,46
 185 522 185 522 199.5 503 c 128,-1,47
 214 484 214 484 235 463.5 c 128,-1,48
 256 443 256 443 281.5 419.5 c 128,-1,49
 307 396 307 396 328 365.5 c 128,-1,50
 349 335 349 335 363.5 296.5 c 128,-1,51
 378 258 378 258 378 208 c 0,0,1
EndSplineSet
EndChar

StartChar: quoteleft
Encoding: 8216 8216 26
Width: 344
GlyphClass: 2
Flags: W
LayerCount: 2
Fore
SplineSet
100 550 m 0,0,1
 104 571 104 571 111 589 c 128,-1,2
 118 607 118 607 130.5 624.5 c 128,-1,3
 143 642 143 642 163.5 660 c 128,-1,4
 184 678 184 678 215 699 c 1,5,-1
 249 663 l 1,6,7
 235 652 235 652 220.5 640 c 128,-1,8
 206 628 206 628 194.5 615.5 c 128,-1,9
 183 603 183 603 175.5 590.5 c 128,-1,10
 168 578 168 578 168 565 c 0,11,12
 168 556 168 556 174 549 c 1,13,14
 186 552 186 552 194 552 c 0,15,16
 218 552 218 552 229.5 532.5 c 128,-1,17
 241 513 241 513 241 493 c 0,18,19
 241 467 241 467 223 447.5 c 128,-1,20
 205 428 205 428 176 428 c 0,21,22
 158 428 158 428 143 435.5 c 128,-1,23
 128 443 128 443 118 455.5 c 128,-1,24
 108 468 108 468 102.5 483.5 c 128,-1,25
 97 499 97 499 97 516 c 0,26,27
 97 525 97 525 98 533.5 c 128,-1,28
 99 542 99 542 100 550 c 0,0,1
EndSplineSet
EndChar

StartChar: quoteright
Encoding: 8217 8217 27
Width: 363
GlyphClass: 2
Flags: W
LayerCount: 2
Fore
SplineSet
247 577 m 0,0,1
 243 556 243 556 236 538 c 128,-1,2
 229 520 229 520 216.5 502.5 c 128,-1,3
 204 485 204 485 183.5 467 c 128,-1,4
 163 449 163 449 132 428 c 1,5,-1
 98 464 l 1,6,7
 111 475 111 475 125.5 486.5 c 128,-1,8
 140 498 140 498 152 510 c 128,-1,9
 164 522 164 522 171.5 535 c 128,-1,10
 179 548 179 548 179 562 c 0,11,12
 179 570 179 570 173 578 c 1,13,14
 162 574 162 574 153 574 c 0,15,16
 129 574 129 574 117.5 594 c 128,-1,17
 106 614 106 614 106 634 c 0,18,19
 106 660 106 660 124 679.5 c 128,-1,20
 142 699 142 699 170 699 c 0,21,22
 189 699 189 699 203.5 691.5 c 128,-1,23
 218 684 218 684 228 671 c 128,-1,24
 238 658 238 658 243.5 642 c 128,-1,25
 249 626 249 626 249 610 c 0,26,27
 249 601 249 601 248.5 593 c 128,-1,28
 248 585 248 585 247 577 c 0,0,1
EndSplineSet
EndChar

StartChar: quotedblleft
Encoding: 8220 8220 28
Width: 507
GlyphClass: 2
Flags: W
LayerCount: 2
Fore
SplineSet
277 550 m 0,0,1
 281 571 281 571 288 589 c 128,-1,2
 295 607 295 607 307.5 624.5 c 128,-1,3
 320 642 320 642 340.5 660 c 128,-1,4
 361 678 361 678 392 699 c 1,5,-1
 426 663 l 1,6,7
 412 652 412 652 397.5 640 c 128,-1,8
 383 628 383 628 371.5 615.5 c 128,-1,9
 360 603 360 603 352.5 590.5 c 128,-1,10
 345 578 345 578 345 565 c 0,11,12
 345 556 345 556 351 549 c 1,13,14
 363 552 363 552 371 552 c 0,15,16
 395 552 395 552 406.5 532.5 c 128,-1,17
 418 513 418 513 418 493 c 0,18,19
 418 467 418 467 400 447.5 c 128,-1,20
 382 428 382 428 353 428 c 0,21,22
 335 428 335 428 320 435.5 c 128,-1,23
 305 443 305 443 295 455.5 c 128,-1,24
 285 468 285 468 279.5 483.5 c 128,-1,25
 274 499 274 499 274 516 c 0,26,27
 274 525 274 525 275 533.5 c 128,-1,28
 276 542 276 542 277 550 c 0,0,1
100 550 m 0,29,30
 104 571 104 571 111 589 c 128,-1,31
 118 607 118 607 130.5 624.5 c 128,-1,32
 143 642 143 642 163.5 660 c 128,-1,33
 184 678 184 678 215 699 c 1,34,-1
 249 663 l 1,35,36
 235 652 235 652 220.5 640 c 128,-1,37
 206 628 206 628 194.5 615.5 c 128,-1,38
 183 603 183 603 175.5 590.5 c 128,-1,39
 168 578 168 578 168 565 c 0,40,41
 168 556 168 556 174 549 c 1,42,43
 186 552 186 552 194 552 c 0,44,45
 218 552 218 552 229.5 532.5 c 128,-1,46
 241 513 241 513 241 493 c 0,47,48
 241 467 241 467 223 447.5 c 128,-1,49
 205 428 205 428 176 428 c 0,50,51
 158 428 158 428 143 435.5 c 128,-1,52
 128 443 128 443 118 455.5 c 128,-1,53
 108 468 108 468 102.5 483.5 c 128,-1,54
 97 499 97 499 97 516 c 0,55,56
 97 525 97 525 98 533.5 c 128,-1,57
 99 542 99 542 100 550 c 0,29,30
EndSplineSet
EndChar

StartChar: quotedblright
Encoding: 8221 8221 29
Width: 553
GlyphClass: 2
Flags: W
LayerCount: 2
Fore
SplineSet
247 577 m 0,0,1
 243 556 243 556 236 538 c 128,-1,2
 229 520 229 520 216.5 502.5 c 128,-1,3
 204 485 204 485 183.5 467 c 128,-1,4
 163 449 163 449 132 428 c 1,5,-1
 98 464 l 1,6,7
 111 475 111 475 125.5 486.5 c 128,-1,8
 140 498 140 498 152 510 c 128,-1,9
 164 522 164 522 171.5 535 c 128,-1,10
 179 548 179 548 179 562 c 0,11,12
 179 570 179 570 173 578 c 1,13,14
 162 574 162 574 153 574 c 0,15,16
 129 574 129 574 117.5 594 c 128,-1,17
 106 614 106 614 106 634 c 0,18,19
 106 660 106 660 124 679.5 c 128,-1,20
 142 699 142 699 170 699 c 0,21,22
 189 699 189 699 203.5 691.5 c 128,-1,23
 218 684 218 684 228 671 c 128,-1,24
 238 658 238 658 243.5 642 c 128,-1,25
 249 626 249 626 249 610 c 0,26,27
 249 601 249 601 248.5 593 c 128,-1,28
 248 585 248 585 247 577 c 0,0,1
424 577 m 0,29,30
 420 556 420 556 413 538 c 128,-1,31
 406 520 406 520 393.5 502.5 c 128,-1,32
 381 485 381 485 360.5 467 c 128,-1,33
 340 449 340 449 309 428 c 1,34,-1
 275 464 l 1,35,36
 288 475 288 475 302.5 486.5 c 128,-1,37
 317 498 317 498 329 510 c 128,-1,38
 341 522 341 522 348.5 535 c 128,-1,39
 356 548 356 548 356 562 c 0,40,41
 356 570 356 570 350 578 c 1,42,43
 339 574 339 574 330 574 c 0,44,45
 306 574 306 574 294.5 594 c 128,-1,46
 283 614 283 614 283 634 c 0,47,48
 283 660 283 660 301 679.5 c 128,-1,49
 319 699 319 699 347 699 c 0,50,51
 366 699 366 699 380.5 691.5 c 128,-1,52
 395 684 395 684 405 671 c 128,-1,53
 415 658 415 658 420.5 642 c 128,-1,54
 426 626 426 626 426 610 c 0,55,56
 426 601 426 601 425.5 593 c 128,-1,57
 425 585 425 585 424 577 c 0,29,30
EndSplineSet
EndChar

StartChar: uni0981
Encoding: 2433 2433 30
Width: 2
GlyphClass: 2
Flags: W
AnchorPoint: "Anchor-0" -119 505 mark 0
LayerCount: 2
Fore
SplineSet
-70 801 m 0,0,1
 -70 780 -70 780 -82 765.5 c 128,-1,2
 -94 751 -94 751 -110 751 c 0,3,4
 -127 751 -127 751 -136 767 c 128,-1,5
 -145 783 -145 783 -145 801 c 0,6,7
 -145 821 -145 821 -134.5 834.5 c 128,-1,8
 -124 848 -124 848 -107 848 c 0,9,10
 -91 848 -91 848 -80.5 834.5 c 128,-1,11
 -70 821 -70 821 -70 801 c 0,0,1
24 822 m 1,12,13
 21 804 21 804 10 775 c 128,-1,14
 -1 746 -1 746 -19.5 717.5 c 128,-1,15
 -38 689 -38 689 -63.5 668.5 c 128,-1,16
 -89 648 -89 648 -120 648 c 0,17,18
 -145 648 -145 648 -166.5 661.5 c 128,-1,19
 -188 675 -188 675 -203.5 696.5 c 128,-1,20
 -219 718 -219 718 -228 744 c 128,-1,21
 -237 770 -237 770 -237 795 c 0,22,23
 -237 806 -237 806 -228.5 811 c 128,-1,24
 -220 816 -220 816 -197 821 c 1,25,26
 -198 818 -198 818 -198 810 c 0,27,28
 -198 784 -198 784 -189 765 c 128,-1,29
 -180 746 -180 746 -167 732.5 c 128,-1,30
 -154 719 -154 719 -140.5 712.5 c 128,-1,31
 -127 706 -127 706 -118 706 c 0,32,33
 -101 706 -101 706 -83.5 717.5 c 128,-1,34
 -66 729 -66 729 -50 749.5 c 128,-1,35
 -34 770 -34 770 -21.5 797.5 c 128,-1,36
 -9 825 -9 825 -2 858 c 1,37,38
 6 851 6 851 11 840.5 c 128,-1,39
 16 830 16 830 24 822 c 1,12,13
EndSplineSet
EndChar

StartChar: uni0982
Encoding: 2434 2434 31
Width: 339
GlyphClass: 2
Flags: W
LayerCount: 2
Fore
SplineSet
289 179 m 2,0,-1
 289 169 l 2,1,2
 289 117 289 117 271.5 64 c 128,-1,3
 254 11 254 11 227 -38.5 c 128,-1,4
 200 -88 200 -88 168 -131.5 c 128,-1,5
 136 -175 136 -175 108 -207 c 0,6,7
 91 -225 91 -225 70 -248 c 128,-1,8
 49 -271 49 -271 25 -290.5 c 128,-1,9
 1 -310 1 -310 -25 -323.5 c 128,-1,10
 -51 -337 -51 -337 -79 -337 c 0,11,12
 -113 -337 -113 -337 -136 -317 c 128,-1,13
 -159 -297 -159 -297 -159 -259 c 0,14,15
 -159 -227 -159 -227 -146 -211 c 1,16,17
 -146 -213 -146 -213 -146.5 -215.5 c 128,-1,18
 -147 -218 -147 -218 -147 -220 c 0,19,20
 -147 -233 -147 -233 -144 -247 c 128,-1,21
 -141 -261 -141 -261 -133.5 -273 c 128,-1,22
 -126 -285 -126 -285 -114.5 -293 c 128,-1,23
 -103 -301 -103 -301 -86 -301 c 0,24,25
 -54 -301 -54 -301 -9 -258.5 c 128,-1,26
 36 -216 36 -216 93 -144 c 0,27,28
 117 -114 117 -114 141 -77 c 128,-1,29
 165 -40 165 -40 183.5 -2 c 128,-1,30
 202 36 202 36 214 73 c 128,-1,31
 226 110 226 110 226 140 c 0,32,33
 226 144 226 144 224.5 161 c 128,-1,34
 223 178 223 178 216 196.5 c 128,-1,35
 209 215 209 215 195 229.5 c 128,-1,36
 181 244 181 244 156 244 c 0,37,38
 136 244 136 244 124.5 234.5 c 128,-1,39
 113 225 113 225 107 210.5 c 128,-1,40
 101 196 101 196 99 178.5 c 128,-1,41
 97 161 97 161 97 146 c 0,42,43
 97 136 97 136 97.5 128.5 c 128,-1,44
 98 121 98 121 98 115 c 1,45,-1
 35 115 l 1,46,47
 35 129 35 129 34.5 148 c 128,-1,48
 34 167 34 167 34 190 c 0,49,50
 34 223 34 223 46.5 246 c 128,-1,51
 59 269 59 269 77.5 283.5 c 128,-1,52
 96 298 96 298 118 304.5 c 128,-1,53
 140 311 140 311 160 311 c 0,54,55
 168 311 168 311 188.5 306.5 c 128,-1,56
 209 302 209 302 231 287.5 c 128,-1,57
 253 273 253 273 270 247 c 128,-1,58
 287 221 287 221 289 179 c 2,0,-1
263 491 m 0,59,60
 264 487 264 487 264 479 c 2,61,-1
 264 466 l 2,62,63
 264 445 264 445 259.5 424 c 128,-1,64
 255 403 255 403 246 386 c 128,-1,65
 237 369 237 369 222.5 358.5 c 128,-1,66
 208 348 208 348 188 348 c 256,67,68
 168 348 168 348 153 358.5 c 128,-1,69
 138 369 138 369 128 386 c 128,-1,70
 118 403 118 403 113.5 424 c 128,-1,71
 109 445 109 445 109 465 c 0,72,73
 110 485 110 485 115 504.5 c 128,-1,74
 120 524 120 524 129.5 539 c 128,-1,75
 139 554 139 554 153 563.5 c 128,-1,76
 167 573 167 573 187 573 c 0,77,78
 220 571 220 571 238 552 c 128,-1,79
 256 533 256 533 263 491 c 0,59,60
217 459 m 2,80,81
 218 465 218 465 218.5 470.5 c 128,-1,82
 219 476 219 476 219 481 c 0,83,84
 219 493 219 493 214 501 c 128,-1,85
 209 509 209 509 193 509 c 256,86,87
 177 509 177 509 170 492.5 c 128,-1,88
 163 476 163 476 163 456 c 0,89,90
 163 440 163 440 169 426.5 c 128,-1,91
 175 413 175 413 189 413 c 0,92,93
 198 413 198 413 203.5 417 c 128,-1,94
 209 421 209 421 211.5 428 c 128,-1,95
 214 435 214 435 215 443 c 2,96,-1
 217 459 l 2,80,81
EndSplineSet
EndChar

StartChar: uni0983
Encoding: 2435 2435 32
Width: 255
GlyphClass: 2
Flags: W
LayerCount: 2
Fore
SplineSet
203 491 m 0,0,1
 204 487 204 487 204 479 c 2,2,-1
 204 466 l 2,3,4
 204 445 204 445 199.5 424 c 128,-1,5
 195 403 195 403 186 386 c 128,-1,6
 177 369 177 369 162.5 358.5 c 128,-1,7
 148 348 148 348 128 348 c 256,8,9
 108 348 108 348 93 358.5 c 128,-1,10
 78 369 78 369 68 386 c 128,-1,11
 58 403 58 403 53.5 424 c 128,-1,12
 49 445 49 445 49 465 c 0,13,14
 50 485 50 485 55 504.5 c 128,-1,15
 60 524 60 524 69.5 539 c 128,-1,16
 79 554 79 554 93 563.5 c 128,-1,17
 107 573 107 573 127 573 c 0,18,19
 160 571 160 571 178 552 c 128,-1,20
 196 533 196 533 203 491 c 0,0,1
203 191 m 0,21,22
 204 187 204 187 204 179 c 2,23,-1
 204 166 l 2,24,25
 204 145 204 145 199.5 124 c 128,-1,26
 195 103 195 103 186 86 c 128,-1,27
 177 69 177 69 162.5 58.5 c 128,-1,28
 148 48 148 48 128 48 c 256,29,30
 108 48 108 48 93 58.5 c 128,-1,31
 78 69 78 69 68 86 c 128,-1,32
 58 103 58 103 53.5 124 c 128,-1,33
 49 145 49 145 49 165 c 0,34,35
 50 185 50 185 55 204.5 c 128,-1,36
 60 224 60 224 69.5 239 c 128,-1,37
 79 254 79 254 93 263.5 c 128,-1,38
 107 273 107 273 127 273 c 0,39,40
 160 271 160 271 177.5 252 c 128,-1,41
 195 233 195 233 203 191 c 0,21,22
157 159 m 0,42,43
 158 165 158 165 158.5 170.5 c 128,-1,44
 159 176 159 176 159 181 c 0,45,46
 159 193 159 193 154 201 c 128,-1,47
 149 209 149 209 133 209 c 256,48,49
 117 209 117 209 110 192.5 c 128,-1,50
 103 176 103 176 103 156 c 0,51,52
 103 141 103 141 109 127 c 128,-1,53
 115 113 115 113 128 113 c 0,54,55
 148 113 148 113 151.5 127.5 c 128,-1,56
 155 142 155 142 157 159 c 0,42,43
157 459 m 2,57,58
 158 465 158 465 158.5 470.5 c 128,-1,59
 159 476 159 476 159 481 c 0,60,61
 159 493 159 493 154 501 c 128,-1,62
 149 509 149 509 133 509 c 256,63,64
 117 509 117 509 110 492.5 c 128,-1,65
 103 476 103 476 103 456 c 0,66,67
 103 440 103 440 109 426.5 c 128,-1,68
 115 413 115 413 129 413 c 0,69,70
 138 413 138 413 143.5 417 c 128,-1,71
 149 421 149 421 151.5 428 c 128,-1,72
 154 435 154 435 155 443 c 2,73,-1
 157 459 l 2,57,58
EndSplineSet
EndChar

StartChar: uni0985
Encoding: 2437 2437 33
Width: 810
GlyphClass: 2
Flags: W
AnchorPoint: "Anchor-1" 741 505 basechar 0
AnchorPoint: "Anchor-0" 741 505 basechar 0
LayerCount: 2
Fore
SplineSet
902 571 m 1,0,1
 900 567 900 567 891 546.5 c 128,-1,2
 882 526 882 526 866 500 c 1,3,4
 858 514 858 514 840.5 525 c 128,-1,5
 823 536 823 536 806 536 c 0,6,7
 786 536 786 536 774 516 c 128,-1,8
 762 496 762 496 755 469 c 128,-1,9
 748 442 748 442 745.5 415 c 128,-1,10
 743 388 743 388 743 374 c 0,11,12
 743 315 743 315 753 261.5 c 128,-1,13
 763 208 763 208 763 149 c 0,14,15
 763 132 763 132 761.5 106.5 c 128,-1,16
 760 81 760 81 754.5 57.5 c 128,-1,17
 749 34 749 34 739 17 c 128,-1,18
 729 0 729 0 713 0 c 256,19,20
 697 0 697 0 687.5 18.5 c 128,-1,21
 678 37 678 37 673 61 c 128,-1,22
 668 85 668 85 666.5 107.5 c 128,-1,23
 665 130 665 130 665 138 c 0,24,25
 665 162 665 162 668.5 182.5 c 128,-1,26
 672 203 672 203 675 230 c 1,27,28
 668 241 668 241 656.5 250.5 c 128,-1,29
 645 260 645 260 632.5 267.5 c 128,-1,30
 620 275 620 275 607.5 280 c 128,-1,31
 595 285 595 285 586 288 c 2,32,-1
 574 293 l 1,33,34
 569 271 569 271 550.5 230 c 128,-1,35
 532 189 532 189 501.5 148.5 c 128,-1,36
 471 108 471 108 428.5 78 c 128,-1,37
 386 48 386 48 332 48 c 0,38,39
 313 48 313 48 295.5 48.5 c 128,-1,40
 278 49 278 49 258 55 c 128,-1,41
 238 61 238 61 213.5 76 c 128,-1,42
 189 91 189 91 156 121 c 0,43,44
 113 160 113 160 85.5 212.5 c 128,-1,45
 58 265 58 265 42 325.5 c 128,-1,46
 26 386 26 386 20 451.5 c 128,-1,47
 14 517 14 517 14 583 c 0,48,49
 14 595 14 595 13.5 623 c 128,-1,50
 13 651 13 651 16 685.5 c 128,-1,51
 19 720 19 720 26.5 756.5 c 128,-1,52
 34 793 34 793 49 823.5 c 128,-1,53
 64 854 64 854 89 873.5 c 128,-1,54
 114 893 114 893 152 893 c 0,55,56
 162 893 162 893 175.5 890.5 c 128,-1,57
 189 888 189 888 203 878 c 128,-1,58
 217 868 217 868 230 848 c 128,-1,59
 243 828 243 828 252 793 c 1,60,-1
 237 777 l 1,61,62
 223 825 223 825 203.5 843 c 128,-1,63
 184 861 184 861 150 861 c 0,64,65
 126 861 126 861 109.5 847 c 128,-1,66
 93 833 93 833 82 810.5 c 128,-1,67
 71 788 71 788 65 761.5 c 128,-1,68
 59 735 59 735 56 709.5 c 128,-1,69
 53 684 53 684 52.5 663.5 c 128,-1,70
 52 643 52 643 52 633 c 0,71,72
 52 580 52 580 56.5 519.5 c 128,-1,73
 61 459 61 459 74.5 398 c 128,-1,74
 88 337 88 337 112 280.5 c 128,-1,75
 136 224 136 224 175 179 c 0,76,77
 191 161 191 161 206 147.5 c 128,-1,78
 221 134 221 134 239 125 c 128,-1,79
 257 116 257 116 280.5 112 c 128,-1,80
 304 108 304 108 337 108 c 256,81,82
 370 108 370 108 401 137 c 128,-1,83
 432 166 432 166 457 209.5 c 128,-1,84
 482 253 482 253 499 303 c 128,-1,85
 516 353 516 353 521 395 c 0,86,87
 523 414 523 414 524.5 433 c 128,-1,88
 526 452 526 452 526 470 c 0,89,90
 526 512 526 512 511.5 543 c 128,-1,91
 497 574 497 574 449 584 c 1,92,-1
 445 584 l 2,93,94
 438 584 438 584 429.5 580 c 128,-1,95
 421 576 421 576 412.5 569 c 128,-1,96
 404 562 404 562 398 552.5 c 128,-1,97
 392 543 392 543 391 533 c 1,98,99
 402 499 402 499 410 459 c 128,-1,100
 418 419 418 419 418 368 c 0,101,102
 418 343 418 343 411 320 c 128,-1,103
 404 297 404 297 392 279 c 128,-1,104
 380 261 380 261 365 250.5 c 128,-1,105
 350 240 350 240 334 240 c 0,106,107
 320 240 320 240 307 249.5 c 128,-1,108
 294 259 294 259 283.5 274 c 128,-1,109
 273 289 273 289 267 308 c 128,-1,110
 261 327 261 327 261 345 c 0,111,112
 261 348 261 348 261.5 350.5 c 128,-1,113
 262 353 262 353 262 355 c 0,114,115
 267 391 267 391 273.5 416 c 128,-1,116
 280 441 280 441 287.5 459.5 c 128,-1,117
 295 478 295 478 303.5 492.5 c 128,-1,118
 312 507 312 507 321 522 c 0,119,120
 329 533 329 533 329 546 c 0,121,122
 329 564 329 564 314.5 578.5 c 128,-1,123
 300 593 300 593 278 593 c 0,124,125
 257 593 257 593 243 581.5 c 128,-1,126
 229 570 229 570 217.5 551 c 128,-1,127
 206 532 206 532 194 507 c 128,-1,128
 182 482 182 482 166 455 c 0,129,130
 156 439 156 439 143.5 429 c 128,-1,131
 131 419 131 419 115 419 c 0,132,133
 88 419 88 419 88 450 c 0,134,135
 88 480 88 480 100.5 505 c 128,-1,136
 113 530 113 530 130.5 550 c 128,-1,137
 148 570 148 570 168 585.5 c 128,-1,138
 188 601 188 601 203 612 c 0,139,140
 249 644 249 644 290 644 c 0,141,142
 321 644 321 644 339.5 628 c 128,-1,143
 358 612 358 612 358 587 c 2,144,-1
 358 579 l 1,145,146
 363 585 363 585 372 595.5 c 128,-1,147
 381 606 381 606 393.5 616 c 128,-1,148
 406 626 406 626 422.5 633.5 c 128,-1,149
 439 641 439 641 459 641 c 0,150,151
 485 641 485 641 506.5 622.5 c 128,-1,152
 528 604 528 604 552 566 c 1,153,154
 569 593 569 593 591 605 c 128,-1,155
 613 617 613 617 636 617 c 0,156,157
 669 617 669 617 693.5 596.5 c 128,-1,158
 718 576 718 576 720 543 c 1,159,160
 734 569 734 569 753.5 589.5 c 128,-1,161
 773 610 773 610 808 610 c 0,162,163
 828 610 828 610 842.5 606 c 128,-1,164
 857 602 857 602 868 596 c 128,-1,165
 879 590 879 590 887 583 c 128,-1,166
 895 576 895 576 902 571 c 1,0,1
693 481 m 1,167,168
 689 513 689 513 673.5 528 c 128,-1,169
 658 543 658 543 638 543 c 0,170,171
 624 543 624 543 609 536 c 128,-1,172
 594 529 594 529 581 514 c 1,173,174
 586 497 586 497 589.5 474 c 128,-1,175
 593 451 593 451 593 425 c 0,176,177
 593 390 593 390 587 359 c 1,178,179
 616 350 616 350 638 334.5 c 128,-1,180
 660 319 660 319 680 295 c 1,181,182
 675 320 675 320 675 353 c 0,183,184
 675 385 675 385 679.5 420 c 128,-1,185
 684 455 684 455 693 481 c 1,167,168
EndSplineSet
EndChar

StartChar: uni0986
Encoding: 2438 2438 34
Width: 998
GlyphClass: 2
Flags: W
AnchorPoint: "Anchor-1" 741 505 basechar 0
AnchorPoint: "Anchor-0" 741 505 basechar 0
LayerCount: 2
Fore
SplineSet
1053 503 m 1,0,1
 1048 521 1048 521 1031 532 c 128,-1,2
 1014 543 1014 543 996 543 c 0,3,4
 974 543 974 543 962 523 c 128,-1,5
 950 503 950 503 944 476 c 128,-1,6
 938 449 938 449 937 421 c 128,-1,7
 936 393 936 393 936 378 c 0,8,9
 936 326 936 326 938 257.5 c 128,-1,10
 940 189 940 189 940 117 c 2,11,-1
 940 54 l 2,12,13
 940 38 940 38 939.5 23.5 c 128,-1,14
 939 9 939 9 938 -5 c 1,15,16
 933 -3 933 -3 929 -2.5 c 128,-1,17
 925 -2 925 -2 921 -2 c 0,18,19
 916 -2 916 -2 911 -2.5 c 128,-1,20
 906 -3 906 -3 898 -3 c 0,21,22
 893 -3 893 -3 888 -2.5 c 128,-1,23
 883 -2 883 -2 876 -1 c 1,24,25
 873 81 873 81 873 156 c 0,26,27
 873 204 873 204 874 249 c 128,-1,28
 875 294 875 294 875 345 c 0,29,30
 875 361 875 361 874.5 382.5 c 128,-1,31
 874 404 874 404 872.5 427 c 128,-1,32
 871 450 871 450 867.5 471.5 c 128,-1,33
 864 493 864 493 858 510 c 1,34,35
 847 520 847 520 833.5 528 c 128,-1,36
 820 536 820 536 806 536 c 0,37,38
 786 536 786 536 774 516 c 128,-1,39
 762 496 762 496 755 469 c 128,-1,40
 748 442 748 442 745.5 415 c 128,-1,41
 743 388 743 388 743 374 c 0,42,43
 743 315 743 315 753 261.5 c 128,-1,44
 763 208 763 208 763 149 c 0,45,46
 763 132 763 132 761.5 106.5 c 128,-1,47
 760 81 760 81 754.5 57.5 c 128,-1,48
 749 34 749 34 739 17 c 128,-1,49
 729 0 729 0 713 0 c 256,50,51
 697 0 697 0 687.5 18.5 c 128,-1,52
 678 37 678 37 673 61 c 128,-1,53
 668 85 668 85 666.5 107.5 c 128,-1,54
 665 130 665 130 665 138 c 0,55,56
 665 162 665 162 668.5 182.5 c 128,-1,57
 672 203 672 203 675 230 c 1,58,59
 668 241 668 241 656.5 250.5 c 128,-1,60
 645 260 645 260 632.5 267.5 c 128,-1,61
 620 275 620 275 607.5 280 c 128,-1,62
 595 285 595 285 586 288 c 2,63,-1
 574 293 l 1,64,65
 569 271 569 271 550.5 230 c 128,-1,66
 532 189 532 189 501.5 148.5 c 128,-1,67
 471 108 471 108 428.5 78 c 128,-1,68
 386 48 386 48 332 48 c 0,69,70
 313 48 313 48 295.5 48.5 c 128,-1,71
 278 49 278 49 258 55 c 128,-1,72
 238 61 238 61 213.5 76 c 128,-1,73
 189 91 189 91 156 121 c 0,74,75
 113 160 113 160 85.5 212.5 c 128,-1,76
 58 265 58 265 42 325.5 c 128,-1,77
 26 386 26 386 20 451.5 c 128,-1,78
 14 517 14 517 14 583 c 0,79,80
 14 595 14 595 13.5 623 c 128,-1,81
 13 651 13 651 16 685.5 c 128,-1,82
 19 720 19 720 26.5 756.5 c 128,-1,83
 34 793 34 793 49 823.5 c 128,-1,84
 64 854 64 854 89 873.5 c 128,-1,85
 114 893 114 893 152 893 c 0,86,87
 162 893 162 893 175.5 890.5 c 128,-1,88
 189 888 189 888 203 878 c 128,-1,89
 217 868 217 868 230 848 c 128,-1,90
 243 828 243 828 252 793 c 1,91,-1
 237 777 l 1,92,93
 223 825 223 825 203.5 843 c 128,-1,94
 184 861 184 861 150 861 c 0,95,96
 126 861 126 861 109.5 847 c 128,-1,97
 93 833 93 833 82 810.5 c 128,-1,98
 71 788 71 788 65 761.5 c 128,-1,99
 59 735 59 735 56 709.5 c 128,-1,100
 53 684 53 684 52.5 663.5 c 128,-1,101
 52 643 52 643 52 633 c 0,102,103
 52 580 52 580 56.5 519.5 c 128,-1,104
 61 459 61 459 74.5 398 c 128,-1,105
 88 337 88 337 112 280.5 c 128,-1,106
 136 224 136 224 175 179 c 0,107,108
 191 161 191 161 206 147.5 c 128,-1,109
 221 134 221 134 239 125 c 128,-1,110
 257 116 257 116 280.5 112 c 128,-1,111
 304 108 304 108 337 108 c 256,112,113
 370 108 370 108 401 137 c 128,-1,114
 432 166 432 166 457 209.5 c 128,-1,115
 482 253 482 253 499 303 c 128,-1,116
 516 353 516 353 521 395 c 0,117,118
 523 414 523 414 524.5 433 c 128,-1,119
 526 452 526 452 526 470 c 0,120,121
 526 512 526 512 511.5 543 c 128,-1,122
 497 574 497 574 449 584 c 1,123,-1
 445 584 l 2,124,125
 438 584 438 584 429.5 580 c 128,-1,126
 421 576 421 576 412.5 569 c 128,-1,127
 404 562 404 562 398 552.5 c 128,-1,128
 392 543 392 543 391 533 c 1,129,130
 402 499 402 499 410 459 c 128,-1,131
 418 419 418 419 418 368 c 0,132,133
 418 343 418 343 411 320 c 128,-1,134
 404 297 404 297 392 279 c 128,-1,135
 380 261 380 261 365 250.5 c 128,-1,136
 350 240 350 240 334 240 c 0,137,138
 320 240 320 240 307 249.5 c 128,-1,139
 294 259 294 259 283.5 274 c 128,-1,140
 273 289 273 289 267 308 c 128,-1,141
 261 327 261 327 261 345 c 0,142,143
 261 348 261 348 261.5 350.5 c 128,-1,144
 262 353 262 353 262 355 c 0,145,146
 267 391 267 391 273.5 416 c 128,-1,147
 280 441 280 441 287.5 459.5 c 128,-1,148
 295 478 295 478 303.5 492.5 c 128,-1,149
 312 507 312 507 321 522 c 0,150,151
 329 533 329 533 329 546 c 0,152,153
 329 564 329 564 314.5 578.5 c 128,-1,154
 300 593 300 593 278 593 c 0,155,156
 257 593 257 593 243 581.5 c 128,-1,157
 229 570 229 570 217.5 551 c 128,-1,158
 206 532 206 532 194 507 c 128,-1,159
 182 482 182 482 166 455 c 0,160,161
 156 439 156 439 143.5 429 c 128,-1,162
 131 419 131 419 115 419 c 0,163,164
 88 419 88 419 88 450 c 0,165,166
 88 480 88 480 100.5 505 c 128,-1,167
 113 530 113 530 130.5 550 c 128,-1,168
 148 570 148 570 168 585.5 c 128,-1,169
 188 601 188 601 203 612 c 0,170,171
 249 644 249 644 290 644 c 0,172,173
 321 644 321 644 339.5 628 c 128,-1,174
 358 612 358 612 358 587 c 2,175,-1
 358 579 l 1,176,177
 363 585 363 585 372 595.5 c 128,-1,178
 381 606 381 606 393.5 616 c 128,-1,179
 406 626 406 626 422.5 633.5 c 128,-1,180
 439 641 439 641 459 641 c 0,181,182
 485 641 485 641 506.5 622.5 c 128,-1,183
 528 604 528 604 552 566 c 1,184,185
 569 593 569 593 591 605 c 128,-1,186
 613 617 613 617 636 617 c 0,187,188
 660 617 660 617 680.5 605 c 128,-1,189
 701 593 701 593 712 573 c 2,190,-1
 715 566 l 1,191,192
 735 586 735 586 758.5 598 c 128,-1,193
 782 610 782 610 808 610 c 0,194,195
 828 610 828 610 842.5 606 c 128,-1,196
 857 602 857 602 868 596 c 128,-1,197
 879 590 879 590 887 583 c 128,-1,198
 895 576 895 576 902 571 c 1,199,-1
 897 559 l 1,200,201
 901 552 901 552 903 540 c 1,202,203
 916 577 916 577 943 592 c 128,-1,204
 970 607 970 607 1005 607 c 0,205,206
 1034 607 1034 607 1052.5 594 c 128,-1,207
 1071 581 1071 581 1090 562 c 1,208,209
 1088 556 1088 556 1078.5 542 c 128,-1,210
 1069 528 1069 528 1053 503 c 1,0,1
693 481 m 1,211,212
 689 513 689 513 673.5 528 c 128,-1,213
 658 543 658 543 638 543 c 0,214,215
 624 543 624 543 609 536 c 128,-1,216
 594 529 594 529 581 514 c 1,217,218
 586 497 586 497 589.5 474 c 128,-1,219
 593 451 593 451 593 425 c 0,220,221
 593 390 593 390 587 359 c 1,222,223
 616 350 616 350 638 334.5 c 128,-1,224
 660 319 660 319 680 295 c 1,225,226
 675 320 675 320 675 353 c 0,227,228
 675 385 675 385 679.5 420 c 128,-1,229
 684 455 684 455 693 481 c 1,211,212
EndSplineSet
EndChar

StartChar: uni0987
Encoding: 2439 2439 35
Width: 402
GlyphClass: 2
Flags: W
AnchorPoint: "Anchor-1" 200 505 basechar 0
AnchorPoint: "Anchor-0" 400 505 basechar 0
LayerCount: 2
Fore
SplineSet
388 607 m 0,0,1
 410 607 410 607 431 594.5 c 128,-1,2
 452 582 452 582 473 562 c 1,3,4
 471 558 471 558 460.5 543.5 c 128,-1,5
 450 529 450 529 435 505 c 1,6,7
 427 519 427 519 409 530 c 128,-1,8
 391 541 391 541 374 541 c 256,9,10
 357 541 357 541 343 524.5 c 128,-1,11
 329 508 329 508 329 485 c 0,12,13
 329 480 329 480 330 479 c 0,14,15
 337 462 337 462 340 442 c 128,-1,16
 343 422 343 422 343 402 c 0,17,18
 343 379 343 379 340.5 355.5 c 128,-1,19
 338 332 338 332 333 310 c 0,20,21
 325 274 325 274 305 240.5 c 128,-1,22
 285 207 285 207 264.5 179 c 128,-1,23
 244 151 244 151 228 130 c 128,-1,24
 212 109 212 109 211 98 c 0,25,26
 214 89 214 89 237 51.5 c 128,-1,27
 260 14 260 14 293.5 -38 c 128,-1,28
 327 -90 327 -90 366 -149.5 c 128,-1,29
 405 -209 405 -209 439 -262.5 c 128,-1,30
 473 -316 473 -316 497.5 -356 c 128,-1,31
 522 -396 522 -396 527 -409 c 1,32,33
 516 -418 516 -418 510 -418.5 c 128,-1,34
 504 -419 504 -419 496 -428 c 1,35,36
 442 -342 442 -342 392.5 -267.5 c 128,-1,37
 343 -193 343 -193 300 -132.5 c 128,-1,38
 257 -72 257 -72 223 -27.5 c 128,-1,39
 189 17 189 17 166 43 c 1,40,41
 149 35 149 35 134 32 c 128,-1,42
 119 29 119 29 108 29 c 0,43,44
 82 29 82 29 67 41.5 c 128,-1,45
 52 54 52 54 44.5 69.5 c 128,-1,46
 37 85 37 85 35 100 c 128,-1,47
 33 115 33 115 33 120 c 0,48,49
 37 150 37 150 53 163 c 128,-1,50
 69 176 69 176 91 176 c 0,51,52
 107 176 107 176 124 170.5 c 128,-1,53
 141 165 141 165 158 155 c 1,54,55
 173 173 173 173 192.5 203.5 c 128,-1,56
 212 234 212 234 229.5 269.5 c 128,-1,57
 247 305 247 305 259 342 c 128,-1,58
 271 379 271 379 271 411 c 0,59,60
 271 425 271 425 265.5 446.5 c 128,-1,61
 260 468 260 468 243 488 c 0,62,63
 240 491 240 491 234.5 499 c 128,-1,64
 229 507 229 507 222 514.5 c 128,-1,65
 215 522 215 522 207.5 528 c 128,-1,66
 200 534 200 534 194 534 c 0,67,68
 183 534 183 534 173 527 c 128,-1,69
 163 520 163 520 155 510.5 c 128,-1,70
 147 501 147 501 142 490 c 128,-1,71
 137 479 137 479 137 471 c 0,72,73
 137 454 137 454 143.5 434 c 128,-1,74
 150 414 150 414 150 395 c 0,75,76
 150 384 150 384 148 364.5 c 128,-1,77
 146 345 146 345 138.5 326.5 c 128,-1,78
 131 308 131 308 116.5 294 c 128,-1,79
 102 280 102 280 77 280 c 0,80,81
 65 280 65 280 55.5 287 c 128,-1,82
 46 294 46 294 40 305 c 128,-1,83
 34 316 34 316 31 330 c 128,-1,84
 28 344 28 344 28 358 c 0,85,86
 28 378 28 378 32 390 c 0,87,88
 38 411 38 411 41.5 423 c 128,-1,89
 45 435 45 435 48.5 444 c 128,-1,90
 52 453 52 453 57 462 c 128,-1,91
 62 471 62 471 70 485 c 0,92,93
 73 491 73 491 73 500 c 0,94,95
 73 504 73 504 70.5 513 c 128,-1,96
 68 522 68 522 62.5 531 c 128,-1,97
 57 540 57 540 48 546.5 c 128,-1,98
 39 553 39 553 27 553 c 0,99,100
 17 553 17 553 6 548.5 c 128,-1,101
 -5 544 -5 544 -15 537 c 128,-1,102
 -25 530 -25 530 -33 521.5 c 128,-1,103
 -41 513 -41 513 -45 505 c 1,104,105
 -60 530 -60 530 -70.5 544 c 128,-1,106
 -81 558 -81 558 -83 562 c 1,107,108
 -62 582 -62 582 -39.5 595.5 c 128,-1,109
 -17 609 -17 609 13 609 c 0,110,111
 45 609 45 609 67.5 593 c 128,-1,112
 90 577 90 577 104 560 c 1,113,114
 115 578 115 578 138 587.5 c 128,-1,115
 161 597 161 597 184 599 c 0,116,117
 210 597 210 597 229.5 588 c 128,-1,118
 249 579 249 579 262 560 c 1,119,120
 276 578 276 578 293 608 c 128,-1,121
 310 638 310 638 310 680 c 0,122,123
 310 695 310 695 305.5 710.5 c 128,-1,124
 301 726 301 726 291 739 c 128,-1,125
 281 752 281 752 266.5 760 c 128,-1,126
 252 768 252 768 232 768 c 0,127,128
 220 768 220 768 208 765 c 0,129,130
 195 763 195 763 180.5 755.5 c 128,-1,131
 166 748 166 748 149.5 739.5 c 128,-1,132
 133 731 133 731 113.5 724 c 128,-1,133
 94 717 94 717 72 717 c 0,134,135
 43 717 43 717 17 726.5 c 128,-1,136
 -9 736 -9 736 -29.5 756.5 c 128,-1,137
 -50 777 -50 777 -62 808.5 c 128,-1,138
 -74 840 -74 840 -74 884 c 0,139,140
 -74 900 -74 900 -70.5 918.5 c 128,-1,141
 -67 937 -67 937 -60 955 c 128,-1,142
 -53 973 -53 973 -43.5 989 c 128,-1,143
 -34 1005 -34 1005 -22 1017 c 1,144,145
 -32 994 -32 994 -36 965.5 c 128,-1,146
 -40 937 -40 937 -40 902 c 0,147,148
 -40 885 -40 885 -37.5 863 c 128,-1,149
 -35 841 -35 841 -23.5 821 c 128,-1,150
 -12 801 -12 801 11 787 c 128,-1,151
 34 773 34 773 75 773 c 0,152,153
 91 773 91 773 108 779.5 c 128,-1,154
 125 786 125 786 141.5 794.5 c 128,-1,155
 158 803 158 803 173.5 811 c 128,-1,156
 189 819 189 819 202 822 c 0,157,158
 212 824 212 824 221.5 826 c 128,-1,159
 231 828 231 828 241 828 c 0,160,161
 266 828 266 828 288.5 818 c 128,-1,162
 311 808 311 808 328 790 c 128,-1,163
 345 772 345 772 355 746.5 c 128,-1,164
 365 721 365 721 365 691 c 0,165,166
 365 625 365 625 338 597 c 1,167,168
 355 605 355 605 368.5 605.5 c 128,-1,169
 382 606 382 606 388 607 c 0,0,1
EndSplineSet
EndChar

StartChar: uni0988
Encoding: 2440 2440 36
Width: 603
GlyphClass: 2
Flags: W
AnchorPoint: "Anchor-1" 277 505 basechar 0
AnchorPoint: "Anchor-0" 545 505 basechar 0
LayerCount: 2
Fore
SplineSet
516 614 m 0,0,1
 536 614 536 614 560 609.5 c 128,-1,2
 584 605 584 605 606.5 597.5 c 128,-1,3
 629 590 629 590 648 581 c 128,-1,4
 667 572 667 572 677 562 c 1,5,6
 675 557 675 557 664.5 541 c 128,-1,7
 654 525 654 525 639 500 c 1,8,9
 635 506 635 506 625.5 515 c 128,-1,10
 616 524 616 524 601.5 532 c 128,-1,11
 587 540 587 540 568 546 c 128,-1,12
 549 552 549 552 527 552 c 0,13,14
 488 552 488 552 450.5 535.5 c 128,-1,15
 413 519 413 519 390 493 c 1,16,17
 392 483 392 483 394.5 473.5 c 128,-1,18
 397 464 397 464 397 444 c 0,19,20
 397 411 397 411 388 375 c 128,-1,21
 379 339 379 339 365.5 306.5 c 128,-1,22
 352 274 352 274 336 248 c 128,-1,23
 320 222 320 222 305 209 c 1,24,25
 334 211 334 211 370 236 c 128,-1,26
 406 261 406 261 435 296 c 0,27,28
 455 321 455 321 465.5 353 c 128,-1,29
 476 385 476 385 484.5 414 c 128,-1,30
 493 443 493 443 502.5 463 c 128,-1,31
 512 483 512 483 530 483 c 0,32,33
 544 483 544 483 555.5 466 c 128,-1,34
 567 449 567 449 567 417 c 256,35,36
 567 385 567 385 561.5 346.5 c 128,-1,37
 556 308 556 308 556 266 c 256,38,39
 556 224 556 224 560.5 180 c 128,-1,40
 565 136 565 136 575 93 c 128,-1,41
 585 50 585 50 601.5 10 c 128,-1,42
 618 -30 618 -30 643 -64 c 0,43,44
 688 -126 688 -126 746 -176.5 c 128,-1,45
 804 -227 804 -227 870.5 -262.5 c 128,-1,46
 937 -298 937 -298 1010 -317 c 128,-1,47
 1083 -336 1083 -336 1160 -336 c 0,48,49
 1199 -336 1199 -336 1237 -328 c 128,-1,50
 1275 -320 1275 -320 1306.5 -306.5 c 128,-1,51
 1338 -293 1338 -293 1362 -275.5 c 128,-1,52
 1386 -258 1386 -258 1397 -240 c 1,53,54
 1399 -243 1399 -243 1400.5 -246 c 128,-1,55
 1402 -249 1402 -249 1405 -254 c 1,56,57
 1401 -260 1401 -260 1384.5 -277.5 c 128,-1,58
 1368 -295 1368 -295 1338.5 -314 c 128,-1,59
 1309 -333 1309 -333 1265.5 -347.5 c 128,-1,60
 1222 -362 1222 -362 1164 -362 c 0,61,62
 1103 -362 1103 -362 1027 -347.5 c 128,-1,63
 951 -333 951 -333 874.5 -301.5 c 128,-1,64
 798 -270 798 -270 727 -221.5 c 128,-1,65
 656 -173 656 -173 605 -104 c 0,66,67
 569 -56 569 -56 544.5 -12.5 c 128,-1,68
 520 31 520 31 505.5 71.5 c 128,-1,69
 491 112 491 112 484.5 151.5 c 128,-1,70
 478 191 478 191 478 231 c 1,71,72
 465 205 465 205 440.5 185 c 128,-1,73
 416 165 416 165 385 151 c 128,-1,74
 354 137 354 137 318.5 130 c 128,-1,75
 283 123 283 123 249 123 c 2,76,-1
 237 123 l 2,77,78
 229 123 229 123 225 124 c 0,79,80
 212 106 212 106 201 89.5 c 128,-1,81
 190 73 190 73 176.5 61 c 128,-1,82
 163 49 163 49 145 42 c 128,-1,83
 127 35 127 35 100 35 c 0,84,85
 77 35 77 35 62.5 41 c 128,-1,86
 48 47 48 47 40 56 c 128,-1,87
 32 65 32 65 29 74.5 c 128,-1,88
 26 84 26 84 26 91 c 0,89,90
 26 116 26 116 39.5 129 c 128,-1,91
 53 142 53 142 73 149 c 128,-1,92
 93 156 93 156 115.5 160.5 c 128,-1,93
 138 165 138 165 156 172 c 0,94,95
 178 178 178 178 207 207 c 128,-1,96
 236 236 236 236 261.5 276.5 c 128,-1,97
 287 317 287 317 304.5 363 c 128,-1,98
 322 409 322 409 322 448 c 0,99,100
 322 468 322 468 312.5 485.5 c 128,-1,101
 303 503 303 503 288.5 516 c 128,-1,102
 274 529 274 529 257.5 536.5 c 128,-1,103
 241 544 241 544 227 544 c 0,104,105
 219 544 219 544 209 539 c 128,-1,106
 199 534 199 534 190.5 525.5 c 128,-1,107
 182 517 182 517 176 506 c 128,-1,108
 170 495 170 495 170 484 c 0,109,110
 170 476 170 476 172 465.5 c 128,-1,111
 174 455 174 455 174 446 c 0,112,113
 174 419 174 419 166 390 c 128,-1,114
 158 361 158 361 144.5 337 c 128,-1,115
 131 313 131 313 113 297 c 128,-1,116
 95 281 95 281 74 281 c 0,117,118
 56 281 56 281 45.5 290 c 128,-1,119
 35 299 35 299 30 312.5 c 128,-1,120
 25 326 25 326 24 342 c 128,-1,121
 23 358 23 358 23 372 c 0,122,123
 23 390 23 390 28.5 407.5 c 128,-1,124
 34 425 34 425 42 439.5 c 128,-1,125
 50 454 50 454 59.5 466 c 128,-1,126
 69 478 69 478 77 486 c 1,127,128
 75 497 75 497 69.5 508.5 c 128,-1,129
 64 520 64 520 56 529.5 c 128,-1,130
 48 539 48 539 38 545 c 128,-1,131
 28 551 28 551 16 551 c 0,132,133
 -5 551 -5 551 -25 536.5 c 128,-1,134
 -45 522 -45 522 -55 505 c 1,135,136
 -70 530 -70 530 -80.5 544 c 128,-1,137
 -91 558 -91 558 -93 562 c 1,138,139
 -73 581 -73 581 -50.5 594.5 c 128,-1,140
 -28 608 -28 608 1 608 c 0,141,142
 17 608 17 608 34.5 604.5 c 128,-1,143
 52 601 52 601 67.5 592.5 c 128,-1,144
 83 584 83 584 94 571 c 128,-1,145
 105 558 105 558 108 539 c 1,146,147
 124 570 124 570 154.5 594 c 128,-1,148
 185 618 185 618 231 618 c 0,149,150
 239 618 239 618 255 616 c 128,-1,151
 271 614 271 614 289.5 608 c 128,-1,152
 308 602 308 602 326.5 591.5 c 128,-1,153
 345 581 345 581 358 565 c 1,154,155
 365 573 365 573 376 586 c 128,-1,156
 387 599 387 599 397.5 614.5 c 128,-1,157
 408 630 408 630 415.5 649 c 128,-1,158
 423 668 423 668 423 688 c 0,159,160
 423 703 423 703 418 718.5 c 128,-1,161
 413 734 413 734 403 747 c 128,-1,162
 393 760 393 760 377.5 768 c 128,-1,163
 362 776 362 776 342 776 c 0,164,165
 330 776 330 776 318 773 c 0,166,167
 305 771 305 771 277.5 761 c 128,-1,168
 250 751 250 751 220.5 740 c 128,-1,169
 191 729 191 729 165 720 c 128,-1,170
 139 711 139 711 129 711 c 2,171,-1
 116 711 l 2,172,173
 89 711 89 711 62.5 720.5 c 128,-1,174
 36 730 36 730 15.5 751 c 128,-1,175
 -5 772 -5 772 -18 806 c 128,-1,176
 -31 840 -31 840 -31 889 c 0,177,178
 -31 931 -31 931 -17.5 965.5 c 128,-1,179
 -4 1000 -4 1000 21 1025 c 1,180,181
 13 1005 13 1005 8 979.5 c 128,-1,182
 3 954 3 954 3 925 c 0,183,184
 3 911 3 911 5 884 c 128,-1,185
 7 857 7 857 18.5 830 c 128,-1,186
 30 803 30 803 55.5 783 c 128,-1,187
 81 763 81 763 128 763 c 0,188,189
 141 763 141 763 167 772 c 128,-1,190
 193 781 193 781 221 792.5 c 128,-1,191
 249 804 249 804 275 815 c 128,-1,192
 301 826 301 826 315 830 c 0,193,194
 324 832 324 832 334 834 c 128,-1,195
 344 836 344 836 354 836 c 0,196,197
 379 836 379 836 401.5 826 c 128,-1,198
 424 816 424 816 441 798 c 128,-1,199
 458 780 458 780 468 754.5 c 128,-1,200
 478 729 478 729 478 699 c 0,201,202
 478 633 478 633 451 605 c 1,203,204
 466 609 466 609 484.5 611.5 c 128,-1,205
 503 614 503 614 516 614 c 0,0,1
EndSplineSet
EndChar

StartChar: uni0989
Encoding: 2441 2441 37
Width: 526
GlyphClass: 2
Flags: W
AnchorPoint: "Anchor-1" 162 505 basechar 0
AnchorPoint: "Anchor-0" 459 505 basechar 0
LayerCount: 2
Fore
SplineSet
262 560 m 1,0,1
 276 578 276 578 293 608 c 128,-1,2
 310 638 310 638 310 680 c 0,3,4
 310 695 310 695 305.5 710.5 c 128,-1,5
 301 726 301 726 291 739 c 128,-1,6
 281 752 281 752 266.5 760 c 128,-1,7
 252 768 252 768 232 768 c 0,8,9
 220 768 220 768 208 765 c 0,10,11
 195 763 195 763 180.5 755.5 c 128,-1,12
 166 748 166 748 149.5 739.5 c 128,-1,13
 133 731 133 731 113.5 724 c 128,-1,14
 94 717 94 717 72 717 c 0,15,16
 43 717 43 717 17 726.5 c 128,-1,17
 -9 736 -9 736 -29.5 756.5 c 128,-1,18
 -50 777 -50 777 -62 808.5 c 128,-1,19
 -74 840 -74 840 -74 884 c 0,20,21
 -74 900 -74 900 -70.5 918.5 c 128,-1,22
 -67 937 -67 937 -60 955 c 128,-1,23
 -53 973 -53 973 -43.5 989 c 128,-1,24
 -34 1005 -34 1005 -22 1017 c 1,25,26
 -32 994 -32 994 -36 965.5 c 128,-1,27
 -40 937 -40 937 -40 902 c 0,28,29
 -40 885 -40 885 -37.5 863 c 128,-1,30
 -35 841 -35 841 -23.5 821 c 128,-1,31
 -12 801 -12 801 11 787 c 128,-1,32
 34 773 34 773 75 773 c 0,33,34
 91 773 91 773 108 779.5 c 128,-1,35
 125 786 125 786 141.5 794.5 c 128,-1,36
 158 803 158 803 173.5 811 c 128,-1,37
 189 819 189 819 202 822 c 0,38,39
 212 824 212 824 221.5 826 c 128,-1,40
 231 828 231 828 241 828 c 0,41,42
 266 828 266 828 288.5 818 c 128,-1,43
 311 808 311 808 328 790 c 128,-1,44
 345 772 345 772 355 746.5 c 128,-1,45
 365 721 365 721 365 691 c 0,46,47
 365 625 365 625 338 597 c 1,48,49
 368 608 368 608 395.5 611 c 128,-1,50
 423 614 423 614 436 614 c 0,51,52
 456 614 456 614 480 609.5 c 128,-1,53
 504 605 504 605 526.5 597.5 c 128,-1,54
 549 590 549 590 568 581 c 128,-1,55
 587 572 587 572 597 562 c 1,56,57
 595 557 595 557 584.5 541 c 128,-1,58
 574 525 574 525 559 500 c 1,59,60
 555 506 555 506 545.5 515 c 128,-1,61
 536 524 536 524 521.5 532 c 128,-1,62
 507 540 507 540 488 546 c 128,-1,63
 469 552 469 552 447 552 c 0,64,65
 427 552 427 552 406.5 546.5 c 128,-1,66
 386 541 386 541 367.5 531.5 c 128,-1,67
 349 522 349 522 333 509.5 c 128,-1,68
 317 497 317 497 305 484 c 1,69,70
 299 462 299 462 296.5 441.5 c 128,-1,71
 294 421 294 421 294 400 c 2,72,-1
 294 378 l 2,73,74
 294 359 294 359 297.5 341.5 c 128,-1,75
 301 324 301 324 315 324 c 0,76,77
 326 324 326 324 338 332 c 128,-1,78
 350 340 350 340 363.5 353 c 128,-1,79
 377 366 377 366 392.5 382 c 128,-1,80
 408 398 408 398 425 414 c 1,81,82
 440 419 440 419 448 419 c 0,83,84
 471 419 471 419 486 400 c 128,-1,85
 501 381 501 381 501 339 c 0,86,87
 501 318 501 318 498.5 284.5 c 128,-1,88
 496 251 496 251 488.5 213 c 128,-1,89
 481 175 481 175 467 137 c 128,-1,90
 453 99 453 99 429.5 68.5 c 128,-1,91
 406 38 406 38 371.5 18.5 c 128,-1,92
 337 -1 337 -1 290 -1 c 0,93,94
 237 -1 237 -1 198 23.5 c 128,-1,95
 159 48 159 48 131 87 c 128,-1,96
 103 126 103 126 84 175.5 c 128,-1,97
 65 225 65 225 52.5 275.5 c 128,-1,98
 40 326 40 326 33.5 372.5 c 128,-1,99
 27 419 27 419 23 453 c 1,100,101
 34 460 34 460 41.5 465 c 128,-1,102
 49 470 49 470 57 478 c 1,103,104
 74 395 74 395 95 325 c 128,-1,105
 116 255 116 255 144.5 204 c 128,-1,106
 173 153 173 153 210 124 c 128,-1,107
 247 95 247 95 295 95 c 0,108,109
 316 95 316 95 338 106 c 128,-1,110
 360 117 360 117 379 143 c 128,-1,111
 398 169 398 169 412 212 c 128,-1,112
 426 255 426 255 432 320 c 1,113,114
 421 311 421 311 405.5 295.5 c 128,-1,115
 390 280 390 280 370.5 265.5 c 128,-1,116
 351 251 351 251 327 240.5 c 128,-1,117
 303 230 303 230 274 230 c 0,118,119
 263 230 263 230 254.5 237.5 c 128,-1,120
 246 245 246 245 240 255.5 c 128,-1,121
 234 266 234 266 230 278.5 c 128,-1,122
 226 291 226 291 224 301 c 2,123,-1
 224 366 l 2,124,125
 224 394 224 394 223 422 c 128,-1,126
 222 450 222 450 218 472 c 0,127,128
 215 488 215 488 203 502 c 128,-1,129
 191 516 191 516 173.5 526.5 c 128,-1,130
 156 537 156 537 135.5 543.5 c 128,-1,131
 115 550 115 550 96 550 c 2,132,-1
 78 550 l 2,133,134
 55 550 55 550 35 544.5 c 128,-1,135
 15 539 15 539 -0.5 531 c 128,-1,136
 -16 523 -16 523 -26.5 514.5 c 128,-1,137
 -37 506 -37 506 -41 500 c 1,138,139
 -56 525 -56 525 -66.5 541 c 128,-1,140
 -77 557 -77 557 -79 562 c 1,141,142
 -69 572 -69 572 -50 581 c 128,-1,143
 -31 590 -31 590 -8.5 597.5 c 128,-1,144
 14 605 14 605 38 609.5 c 128,-1,145
 62 614 62 614 82 614 c 0,146,147
 97 614 97 614 120 611.5 c 128,-1,148
 143 609 143 609 168.5 603 c 128,-1,149
 194 597 194 597 218.5 586.5 c 128,-1,150
 243 576 243 576 262 560 c 1,0,1
EndSplineSet
EndChar

StartChar: uni098A
Encoding: 2442 2442 38
Width: 603
GlyphClass: 2
Flags: W
AnchorPoint: "Anchor-1" 200 505 basechar 0
AnchorPoint: "Anchor-0" 550 505 basechar 0
LayerCount: 2
Fore
SplineSet
400 680 m 0,0,1
 400 695 400 695 395.5 710.5 c 128,-1,2
 391 726 391 726 381 739 c 128,-1,3
 371 752 371 752 356.5 760 c 128,-1,4
 342 768 342 768 322 768 c 0,5,6
 310 768 310 768 298 765 c 0,7,8
 285 763 285 763 270.5 755.5 c 128,-1,9
 256 748 256 748 239.5 739.5 c 128,-1,10
 223 731 223 731 203.5 724 c 128,-1,11
 184 717 184 717 162 717 c 0,12,13
 133 717 133 717 107 726.5 c 128,-1,14
 81 736 81 736 60.5 756.5 c 128,-1,15
 40 777 40 777 28 808.5 c 128,-1,16
 16 840 16 840 16 884 c 0,17,18
 16 900 16 900 19.5 918.5 c 128,-1,19
 23 937 23 937 30 955 c 128,-1,20
 37 973 37 973 46.5 989 c 128,-1,21
 56 1005 56 1005 68 1017 c 1,22,23
 58 994 58 994 54 965.5 c 128,-1,24
 50 937 50 937 50 902 c 0,25,26
 50 885 50 885 52.5 863 c 128,-1,27
 55 841 55 841 66.5 821 c 128,-1,28
 78 801 78 801 101 787 c 128,-1,29
 124 773 124 773 165 773 c 0,30,31
 181 773 181 773 198 779.5 c 128,-1,32
 215 786 215 786 231.5 794.5 c 128,-1,33
 248 803 248 803 263.5 811 c 128,-1,34
 279 819 279 819 292 822 c 0,35,36
 302 824 302 824 311.5 826 c 128,-1,37
 321 828 321 828 331 828 c 0,38,39
 356 828 356 828 378.5 818 c 128,-1,40
 401 808 401 808 418 790 c 128,-1,41
 435 772 435 772 445 746.5 c 128,-1,42
 455 721 455 721 455 691 c 0,43,44
 455 625 455 625 428 597 c 1,45,46
 441 603 441 603 455.5 606.5 c 128,-1,47
 470 610 470 610 483.5 611.5 c 128,-1,48
 497 613 497 613 508.5 613.5 c 128,-1,49
 520 614 520 614 526 614 c 0,50,51
 546 614 546 614 570 609.5 c 128,-1,52
 594 605 594 605 616.5 597.5 c 128,-1,53
 639 590 639 590 658 581 c 128,-1,54
 677 572 677 572 687 562 c 1,55,56
 685 557 685 557 674.5 541 c 128,-1,57
 664 525 664 525 649 500 c 1,58,59
 645 506 645 506 635.5 515 c 128,-1,60
 626 524 626 524 611.5 532 c 128,-1,61
 597 540 597 540 578 546 c 128,-1,62
 559 552 559 552 537 552 c 0,63,64
 519 552 519 552 496 546 c 128,-1,65
 473 540 473 540 450 530.5 c 128,-1,66
 427 521 427 521 407 509 c 128,-1,67
 387 497 387 497 375 484 c 1,68,69
 369 462 369 462 366.5 443 c 128,-1,70
 364 424 364 424 364 405 c 2,71,-1
 364 385 l 2,72,73
 364 376 364 376 365 366.5 c 128,-1,74
 366 357 366 357 367.5 349 c 128,-1,75
 369 341 369 341 371.5 335.5 c 128,-1,76
 374 330 374 330 377 330 c 0,77,78
 388 330 388 330 407.5 344.5 c 128,-1,79
 427 359 427 359 448 377 c 128,-1,80
 469 395 469 395 489.5 409.5 c 128,-1,81
 510 424 510 424 523 424 c 0,82,83
 553 424 553 424 562.5 391 c 128,-1,84
 572 358 572 358 572 303 c 0,85,86
 572 237 572 237 553 181 c 128,-1,87
 534 125 534 125 504.5 83.5 c 128,-1,88
 475 42 475 42 438 17 c 128,-1,89
 401 -8 401 -8 365 -12 c 2,90,-1
 329 -14 l 2,91,92
 310 -14 310 -14 292 -11 c 128,-1,93
 274 -8 274 -8 254 0 c 0,94,95
 186 27 186 27 143 71 c 128,-1,96
 100 115 100 115 74.5 171 c 128,-1,97
 49 227 49 227 37 292.5 c 128,-1,98
 25 358 25 358 18 428 c 1,99,100
 24 433 24 433 26.5 435 c 128,-1,101
 29 437 29 437 31 438 c 128,-1,102
 33 439 33 439 35.5 440 c 128,-1,103
 38 441 38 441 44 445 c 1,104,105
 53 367 53 367 71.5 301 c 128,-1,106
 90 235 90 235 117 184 c 128,-1,107
 144 133 144 133 179.5 99.5 c 128,-1,108
 215 66 215 66 259 53 c 0,109,110
 285 45 285 45 302 40.5 c 128,-1,111
 319 36 319 36 336 36 c 0,112,113
 364 36 364 36 388.5 45 c 128,-1,114
 413 54 413 54 433 69 c 128,-1,115
 453 84 453 84 469 103 c 128,-1,116
 485 122 485 122 498 143 c 1,117,118
 484 132 484 132 466.5 120 c 128,-1,119
 449 108 449 108 430 97.5 c 128,-1,120
 411 87 411 87 392.5 80.5 c 128,-1,121
 374 74 374 74 358 74 c 2,122,-1
 354 74 l 1,123,124
 285 80 285 80 234 114.5 c 128,-1,125
 183 149 183 149 148.5 204.5 c 128,-1,126
 114 260 114 260 94.5 331.5 c 128,-1,127
 75 403 75 403 68 483 c 1,128,129
 79 490 79 490 89 495.5 c 128,-1,130
 99 501 99 501 107 509 c 1,131,132
 111 479 111 479 120 439.5 c 128,-1,133
 129 400 129 400 143.5 359 c 128,-1,134
 158 318 158 318 178.5 277.5 c 128,-1,135
 199 237 199 237 225.5 206 c 128,-1,136
 252 175 252 175 285.5 155.5 c 128,-1,137
 319 136 319 136 359 136 c 0,138,139
 385 136 385 136 410 142.5 c 128,-1,140
 435 149 435 149 455.5 168.5 c 128,-1,141
 476 188 476 188 490 225 c 128,-1,142
 504 262 504 262 509 322 c 1,143,144
 501 309 501 309 485 293 c 128,-1,145
 469 277 469 277 447.5 263 c 128,-1,146
 426 249 426 249 399.5 239.5 c 128,-1,147
 373 230 373 230 344 230 c 0,148,149
 328 230 328 230 318.5 237 c 128,-1,150
 309 244 309 244 303.5 254.5 c 128,-1,151
 298 265 298 265 296 277.5 c 128,-1,152
 294 290 294 290 294 301 c 2,153,-1
 294 366 l 2,154,155
 294 394 294 394 293 422 c 128,-1,156
 292 450 292 450 288 472 c 0,157,158
 285 488 285 488 268.5 502 c 128,-1,159
 252 516 252 516 229 526.5 c 128,-1,160
 206 537 206 537 180.5 543.5 c 128,-1,161
 155 550 155 550 136 550 c 2,162,-1
 117 550 l 2,163,164
 93 550 93 550 67 544.5 c 128,-1,165
 41 539 41 539 18.5 531 c 128,-1,166
 -4 523 -4 523 -20 514.5 c 128,-1,167
 -36 506 -36 506 -41 500 c 1,168,169
 -56 525 -56 525 -66.5 541 c 128,-1,170
 -77 557 -77 557 -79 562 c 1,171,172
 -69 572 -69 572 -44 581 c 128,-1,173
 -19 590 -19 590 11 597.5 c 128,-1,174
 41 605 41 605 71.5 609.5 c 128,-1,175
 102 614 102 614 122 614 c 0,176,177
 137 614 137 614 164.5 609 c 128,-1,178
 192 604 192 604 223 595 c 128,-1,179
 254 586 254 586 285 572 c 128,-1,180
 316 558 316 558 337 540 c 1,181,182
 346 546 346 546 356.5 561.5 c 128,-1,183
 367 577 367 577 377 596.5 c 128,-1,184
 387 616 387 616 393.5 638 c 128,-1,185
 400 660 400 660 400 680 c 0,0,1
EndSplineSet
EndChar

StartChar: uni098B
Encoding: 2443 2443 39
Width: 672
GlyphClass: 2
Flags: W
AnchorPoint: "Anchor-1" 570 505 basechar 0
AnchorPoint: "Anchor-0" 568 505 basechar 0
LayerCount: 2
Fore
SplineSet
760 571 m 1,0,1
 758 567 758 567 749 546.5 c 128,-1,2
 740 526 740 526 724 500 c 1,3,4
 716 516 716 516 697 527.5 c 128,-1,5
 678 539 678 539 661 539 c 0,6,7
 647 539 647 539 637.5 522.5 c 128,-1,8
 628 506 628 506 621.5 479.5 c 128,-1,9
 615 453 615 453 611.5 420 c 128,-1,10
 608 387 608 387 606 353 c 128,-1,11
 604 319 604 319 603.5 288 c 128,-1,12
 603 257 603 257 603 235 c 0,13,14
 603 191 603 191 604 148.5 c 128,-1,15
 605 106 605 106 605 64 c 0,16,17
 605 49 605 49 604.5 34 c 128,-1,18
 604 19 604 19 604 5 c 1,19,20
 599 6 599 6 595 6 c 2,21,-1
 576 6 l 2,22,23
 567 6 567 6 558.5 5.5 c 128,-1,24
 550 5 550 5 538 5 c 1,25,26
 537 9 537 9 537 13 c 2,27,-1
 537 84 l 2,28,29
 537 101 537 101 536 119 c 128,-1,30
 535 137 535 137 533 158 c 1,31,32
 524 171 524 171 506.5 183 c 128,-1,33
 489 195 489 195 471.5 203.5 c 128,-1,34
 454 212 454 212 440.5 217.5 c 128,-1,35
 427 223 427 223 426 224 c 1,36,37
 426 190 426 190 427.5 169 c 128,-1,38
 429 148 429 148 430.5 130 c 128,-1,39
 432 112 432 112 433.5 91.5 c 128,-1,40
 435 71 435 71 435 38 c 0,41,42
 435 15 435 15 424.5 3 c 128,-1,43
 414 -9 414 -9 399 -9 c 0,44,45
 382 -9 382 -9 365.5 5 c 128,-1,46
 349 19 349 19 338 48 c 1,47,48
 319 76 319 76 296 95 c 128,-1,49
 273 114 273 114 249.5 128.5 c 128,-1,50
 226 143 226 143 203 155 c 128,-1,51
 180 167 180 167 162.5 180.5 c 128,-1,52
 145 194 145 194 133.5 210.5 c 128,-1,53
 122 227 122 227 121 252 c 0,54,55
 123 267 123 267 138.5 285.5 c 128,-1,56
 154 304 154 304 176.5 325 c 128,-1,57
 199 346 199 346 224.5 368.5 c 128,-1,58
 250 391 250 391 271.5 414 c 128,-1,59
 293 437 293 437 307.5 459.5 c 128,-1,60
 322 482 322 482 322 502 c 0,61,62
 322 518 322 518 309 533.5 c 128,-1,63
 296 549 296 549 276 549 c 1,64,65
 273 534 273 534 264 512.5 c 128,-1,66
 255 491 255 491 239 471.5 c 128,-1,67
 223 452 223 452 199.5 438.5 c 128,-1,68
 176 425 176 425 145 425 c 0,69,70
 115 425 115 425 93 439 c 128,-1,71
 71 453 71 453 57.5 473.5 c 128,-1,72
 44 494 44 494 37.5 515.5 c 128,-1,73
 31 537 31 537 31 552 c 0,74,75
 31 576 31 576 34.5 598 c 128,-1,76
 38 620 38 620 47 636.5 c 128,-1,77
 56 653 56 653 71.5 662.5 c 128,-1,78
 87 672 87 672 111 672 c 0,79,80
 139 672 139 672 157.5 652 c 128,-1,81
 176 632 176 632 176 605 c 0,82,83
 176 579 176 579 156.5 560 c 128,-1,84
 137 541 137 541 114 541 c 0,85,86
 100 541 100 541 89 555 c 1,87,88
 94 517 94 517 108 504.5 c 128,-1,89
 122 492 122 492 142 492 c 0,90,91
 160 492 160 492 172.5 500.5 c 128,-1,92
 185 509 185 509 194.5 522 c 128,-1,93
 204 535 204 535 211.5 550.5 c 128,-1,94
 219 566 219 566 228 579 c 128,-1,95
 237 592 237 592 248.5 600.5 c 128,-1,96
 260 609 260 609 277 609 c 0,97,98
 311 609 311 609 334.5 595.5 c 128,-1,99
 358 582 358 582 372 547 c 1,100,101
 392 580 392 580 423 595 c 128,-1,102
 454 610 454 610 485 610 c 0,103,104
 522 610 522 610 549 592 c 128,-1,105
 576 574 576 574 578 543 c 1,106,107
 592 569 592 569 611.5 589.5 c 128,-1,108
 631 610 631 610 666 610 c 0,109,110
 686 610 686 610 700.5 606 c 128,-1,111
 715 602 715 602 726 596 c 128,-1,112
 737 590 737 590 745 583 c 128,-1,113
 753 576 753 576 760 571 c 1,0,1
551 481 m 1,114,115
 548 510 548 510 529.5 524 c 128,-1,116
 511 538 511 538 488 538 c 0,117,118
 469 538 469 538 451 528.5 c 128,-1,119
 433 519 433 519 423 499 c 1,120,121
 428 486 428 486 430.5 457.5 c 128,-1,122
 433 429 433 429 433 396 c 0,123,124
 433 366 433 366 431 336.5 c 128,-1,125
 429 307 429 307 425 287 c 1,126,127
 454 278 454 278 486 262.5 c 128,-1,128
 518 247 518 247 538 223 c 1,129,130
 536 236 536 236 534.5 255.5 c 128,-1,131
 533 275 533 275 533 303 c 0,132,133
 533 326 533 326 534 352 c 128,-1,134
 535 378 535 378 537 402.5 c 128,-1,135
 539 427 539 427 542.5 447.5 c 128,-1,136
 546 468 546 468 551 481 c 1,114,115
353 410 m 1,137,138
 340 387 340 387 320.5 367 c 128,-1,139
 301 347 301 347 278.5 328 c 128,-1,140
 256 309 256 309 233 290.5 c 128,-1,141
 210 272 210 272 190 252 c 1,142,143
 213 245 213 245 236 229.5 c 128,-1,144
 259 214 259 214 281 194.5 c 128,-1,145
 303 175 303 175 322 155 c 128,-1,146
 341 135 341 135 356 119 c 1,147,-1
 353 410 l 1,137,138
EndSplineSet
EndChar

StartChar: uni098F
Encoding: 2447 2447 40
Width: 584
GlyphClass: 2
Flags: W
AnchorPoint: "Anchor-1" 467 505 basechar 0
AnchorPoint: "Anchor-0" 465 505 basechar 0
LayerCount: 2
Fore
SplineSet
451 501 m 0,0,1
 446 524 446 524 426.5 541.5 c 128,-1,2
 407 559 407 559 380 559 c 0,3,4
 372 559 372 559 361.5 555 c 128,-1,5
 351 551 351 551 340.5 544 c 128,-1,6
 330 537 330 537 322 526.5 c 128,-1,7
 314 516 314 516 311 503 c 1,8,9
 322 469 322 469 330 434 c 128,-1,10
 338 399 338 399 338 348 c 0,11,12
 338 323 338 323 331 300 c 128,-1,13
 324 277 324 277 312 259 c 128,-1,14
 300 241 300 241 285 230.5 c 128,-1,15
 270 220 270 220 254 220 c 0,16,17
 240 220 240 220 227 229.5 c 128,-1,18
 214 239 214 239 203.5 254 c 128,-1,19
 193 269 193 269 187 288 c 128,-1,20
 181 307 181 307 181 325 c 0,21,22
 181 328 181 328 181.5 330.5 c 128,-1,23
 182 333 182 333 182 335 c 0,24,25
 187 371 187 371 193.5 394.5 c 128,-1,26
 200 418 200 418 207.5 434.5 c 128,-1,27
 215 451 215 451 223.5 464 c 128,-1,28
 232 477 232 477 241 492 c 0,29,30
 249 503 249 503 249 516 c 0,31,32
 249 534 249 534 234.5 548.5 c 128,-1,33
 220 563 220 563 198 563 c 0,34,35
 158 563 158 563 139 531.5 c 128,-1,36
 120 500 120 500 106 434 c 1,37,38
 97 418 97 418 83.5 408.5 c 128,-1,39
 70 399 70 399 55 399 c 0,40,41
 42 399 42 399 35 406 c 128,-1,42
 28 413 28 413 28 430 c 0,43,44
 28 459 28 459 38 483 c 128,-1,45
 48 507 48 507 63 526 c 128,-1,46
 78 545 78 545 94.5 559 c 128,-1,47
 111 573 111 573 123 582 c 0,48,49
 169 614 169 614 210 614 c 0,50,51
 241 614 241 614 259.5 598 c 128,-1,52
 278 582 278 582 278 557 c 2,53,-1
 278 549 l 1,54,55
 292 578 292 578 322.5 596 c 128,-1,56
 353 614 353 614 389 614 c 0,57,58
 405 614 405 614 423 607.5 c 128,-1,59
 441 601 441 601 458 590 c 128,-1,60
 475 579 475 579 488.5 564 c 128,-1,61
 502 549 502 549 509 533 c 0,62,63
 526 491 526 491 531 458 c 128,-1,64
 536 425 536 425 536 388 c 2,65,-1
 536 335 l 2,66,67
 536 284 536 284 536.5 236 c 128,-1,68
 537 188 537 188 537 143 c 0,69,70
 537 68 537 68 534 1 c 1,71,72
 529 0 529 0 524 0 c 2,73,-1
 480 0 l 2,74,75
 473 0 473 0 470.5 2.5 c 128,-1,76
 468 5 468 5 468 16 c 0,77,78
 468 30 468 30 468.5 40 c 128,-1,79
 469 50 469 50 469 62 c 1,80,-1
 459 62 l 2,81,82
 394 62 394 62 328.5 39 c 128,-1,83
 263 16 263 16 199.5 -21 c 128,-1,84
 136 -58 136 -58 77 -105 c 128,-1,85
 18 -152 18 -152 -32.5 -198.5 c 128,-1,86
 -83 -245 -83 -245 -124 -287.5 c 128,-1,87
 -165 -330 -165 -330 -192 -359 c 1,88,-1
 -205 -339 l 1,89,90
 -186 -310 -186 -310 -151.5 -265.5 c 128,-1,91
 -117 -221 -117 -221 -69 -171 c 128,-1,92
 -21 -121 -21 -121 38 -69.5 c 128,-1,93
 97 -18 97 -18 165 25 c 128,-1,94
 233 68 233 68 308 98.5 c 128,-1,95
 383 129 383 129 463 137 c 1,96,97
 467 169 467 169 468.5 204 c 128,-1,98
 470 239 470 239 470 274 c 0,99,100
 470 337 470 337 465 396.5 c 128,-1,101
 460 456 460 456 451 501 c 0,0,1
EndSplineSet
EndChar

StartChar: uni0990
Encoding: 2448 2448 41
Width: 652
GlyphClass: 2
Flags: W
AnchorPoint: "Anchor-1" 400 505 basechar 0
AnchorPoint: "Anchor-0" 656 505 basechar 0
LayerCount: 2
Fore
SplineSet
536 335 m 0,0,1
 536 284 536 284 536.5 236 c 128,-1,2
 537 188 537 188 537 143 c 0,3,4
 537 68 537 68 534 1 c 1,5,6
 529 0 529 0 524 0 c 2,7,-1
 480 0 l 2,8,9
 473 0 473 0 470.5 2.5 c 128,-1,10
 468 5 468 5 468 16 c 0,11,12
 468 30 468 30 468.5 40 c 128,-1,13
 469 50 469 50 469 62 c 1,14,-1
 459 62 l 2,15,16
 394 62 394 62 328.5 39 c 128,-1,17
 263 16 263 16 199.5 -21 c 128,-1,18
 136 -58 136 -58 77 -105 c 128,-1,19
 18 -152 18 -152 -32.5 -198.5 c 128,-1,20
 -83 -245 -83 -245 -124 -287.5 c 128,-1,21
 -165 -330 -165 -330 -192 -359 c 1,22,-1
 -205 -339 l 1,23,24
 -186 -310 -186 -310 -151.5 -265.5 c 128,-1,25
 -117 -221 -117 -221 -69 -171 c 128,-1,26
 -21 -121 -21 -121 38 -69.5 c 128,-1,27
 97 -18 97 -18 165 25 c 128,-1,28
 233 68 233 68 308 98.5 c 128,-1,29
 383 129 383 129 463 137 c 1,30,31
 467 169 467 169 468.5 204 c 128,-1,32
 470 239 470 239 470 274 c 0,33,34
 470 337 470 337 465 396.5 c 128,-1,35
 460 456 460 456 451 501 c 0,36,37
 446 524 446 524 426 541.5 c 128,-1,38
 406 559 406 559 380 559 c 0,39,40
 372 559 372 559 361.5 555 c 128,-1,41
 351 551 351 551 340.5 544 c 128,-1,42
 330 537 330 537 322 526.5 c 128,-1,43
 314 516 314 516 311 503 c 1,44,45
 322 469 322 469 330 434 c 128,-1,46
 338 399 338 399 338 348 c 0,47,48
 338 323 338 323 331 300 c 128,-1,49
 324 277 324 277 312 259 c 128,-1,50
 300 241 300 241 285 230.5 c 128,-1,51
 270 220 270 220 254 220 c 0,52,53
 240 220 240 220 227 229.5 c 128,-1,54
 214 239 214 239 203.5 254 c 128,-1,55
 193 269 193 269 187 288 c 128,-1,56
 181 307 181 307 181 325 c 0,57,58
 181 328 181 328 181.5 330.5 c 128,-1,59
 182 333 182 333 182 335 c 0,60,61
 187 371 187 371 193.5 394.5 c 128,-1,62
 200 418 200 418 207.5 434.5 c 128,-1,63
 215 451 215 451 223.5 464 c 128,-1,64
 232 477 232 477 241 492 c 0,65,66
 249 503 249 503 249 516 c 0,67,68
 249 534 249 534 234.5 548.5 c 128,-1,69
 220 563 220 563 198 563 c 0,70,71
 158 563 158 563 139 531.5 c 128,-1,72
 120 500 120 500 106 434 c 1,73,74
 97 418 97 418 83.5 408.5 c 128,-1,75
 70 399 70 399 55 399 c 0,76,77
 42 399 42 399 35 406 c 128,-1,78
 28 413 28 413 28 430 c 0,79,80
 28 459 28 459 38 483 c 128,-1,81
 48 507 48 507 63 526 c 128,-1,82
 78 545 78 545 94.5 559 c 128,-1,83
 111 573 111 573 123 582 c 0,84,85
 169 614 169 614 210 614 c 0,86,87
 241 614 241 614 259.5 598 c 128,-1,88
 278 582 278 582 278 557 c 2,89,-1
 278 549 l 1,90,91
 292 578 292 578 322.5 596 c 128,-1,92
 353 614 353 614 389 614 c 0,93,94
 404 614 404 614 422.5 607.5 c 128,-1,95
 441 601 441 601 458 590 c 128,-1,96
 475 579 475 579 488.5 564.5 c 128,-1,97
 502 550 502 550 509 533 c 0,98,99
 512 524 512 524 513 517 c 128,-1,100
 514 510 514 510 514.5 505 c 128,-1,101
 515 500 515 500 516 495.5 c 128,-1,102
 517 491 517 491 520 485 c 1,103,104
 529 496 529 496 537.5 514 c 128,-1,105
 546 532 546 532 552 552.5 c 128,-1,106
 558 573 558 573 562 595.5 c 128,-1,107
 566 618 566 618 566 638 c 0,108,109
 566 653 566 653 560.5 670.5 c 128,-1,110
 555 688 555 688 544.5 703 c 128,-1,111
 534 718 534 718 518.5 728 c 128,-1,112
 503 738 503 738 482 738 c 2,113,-1
 472 738 l 2,114,115
 461 738 461 738 429.5 730.5 c 128,-1,116
 398 723 398 723 363 714.5 c 128,-1,117
 328 706 328 706 298 698.5 c 128,-1,118
 268 691 268 691 259 691 c 0,119,120
 232 691 232 691 205.5 700.5 c 128,-1,121
 179 710 179 710 158.5 731 c 128,-1,122
 138 752 138 752 125 786 c 128,-1,123
 112 820 112 820 112 869 c 0,124,125
 112 911 112 911 125.5 945.5 c 128,-1,126
 139 980 139 980 164 1005 c 1,127,128
 156 985 156 985 151 959.5 c 128,-1,129
 146 934 146 934 146 905 c 0,130,131
 146 891 146 891 148 864 c 128,-1,132
 150 837 150 837 161.5 810 c 128,-1,133
 173 783 173 783 198.5 763 c 128,-1,134
 224 743 224 743 271 743 c 0,135,136
 283 743 283 743 308.5 749 c 128,-1,137
 334 755 334 755 363 763 c 128,-1,138
 392 771 392 771 418 779 c 128,-1,139
 444 787 444 787 458 790 c 0,140,141
 467 792 467 792 475.5 794 c 128,-1,142
 484 796 484 796 493 795 c 0,143,144
 520 795 520 795 543.5 783 c 128,-1,145
 567 771 567 771 584.5 750 c 128,-1,146
 602 729 602 729 611.5 701 c 128,-1,147
 621 673 621 673 621 640 c 0,148,149
 619 568 619 568 598 506 c 128,-1,150
 577 444 577 444 535 413 c 0,151,152
 534 410 534 410 534 404 c 2,153,-1
 534 394 l 2,154,155
 534 379 534 379 535 362.5 c 128,-1,156
 536 346 536 346 536 335 c 0,0,1
EndSplineSet
EndChar

StartChar: uni0993
Encoding: 2451 2451 42
Width: 576
GlyphClass: 2
Flags: W
AnchorPoint: "Anchor-1" 471 505 basechar 0
AnchorPoint: "Anchor-0" 471 505 basechar 0
LayerCount: 2
Fore
SplineSet
542 258 m 2,0,-1
 542 243 l 2,1,2
 542 196 542 196 526.5 153 c 128,-1,3
 511 110 511 110 485 77 c 128,-1,4
 459 44 459 44 425 24.5 c 128,-1,5
 391 5 391 5 355 5 c 2,6,-1
 349 5 l 2,7,8
 346 4 346 4 340 4 c 2,9,-1
 331 4 l 2,10,11
 295 4 295 4 266.5 14.5 c 128,-1,12
 238 25 238 25 214.5 41.5 c 128,-1,13
 191 58 191 58 170.5 78.5 c 128,-1,14
 150 99 150 99 130 120 c 0,15,16
 103 148 103 148 83.5 193 c 128,-1,17
 64 238 64 238 51.5 289 c 128,-1,18
 39 340 39 340 33.5 393 c 128,-1,19
 28 446 28 446 28 490 c 0,20,21
 28 501 28 501 28.5 511.5 c 128,-1,22
 29 522 29 522 30 532 c 1,23,24
 24 531 24 531 11.5 528 c 128,-1,25
 -1 525 -1 525 -15 520.5 c 128,-1,26
 -29 516 -29 516 -41.5 511 c 128,-1,27
 -54 506 -54 506 -61 500 c 1,28,29
 -77 526 -77 526 -87.5 544.5 c 128,-1,30
 -98 563 -98 563 -100 566 c 0,31,32
 -94 572 -94 572 -80.5 578.5 c 128,-1,33
 -67 585 -67 585 -50 590.5 c 128,-1,34
 -33 596 -33 596 -14.5 600.5 c 128,-1,35
 4 605 4 605 20 607 c 1,36,37
 21 650 21 650 27 700.5 c 128,-1,38
 33 751 33 751 50.5 793.5 c 128,-1,39
 68 836 68 836 99.5 864.5 c 128,-1,40
 131 893 131 893 184 893 c 0,41,42
 192 893 192 893 209.5 888 c 128,-1,43
 227 883 227 883 247 869 c 128,-1,44
 267 855 267 855 285.5 829.5 c 128,-1,45
 304 804 304 804 314 763 c 1,46,-1
 299 747 l 1,47,48
 292 771 292 771 279 792 c 128,-1,49
 266 813 266 813 249.5 828 c 128,-1,50
 233 843 233 843 214 852 c 128,-1,51
 195 861 195 861 177 861 c 0,52,53
 156 861 156 861 137 847 c 128,-1,54
 118 833 118 833 104.5 809.5 c 128,-1,55
 91 786 91 786 83 756 c 128,-1,56
 75 726 75 726 75 693 c 0,57,58
 75 659 75 659 73.5 617.5 c 128,-1,59
 72 576 72 576 72 528 c 0,60,61
 72 479 72 479 75 429.5 c 128,-1,62
 78 380 78 380 87.5 334.5 c 128,-1,63
 97 289 97 289 114.5 248.5 c 128,-1,64
 132 208 132 208 160 178 c 0,65,66
 176 160 176 160 193.5 143 c 128,-1,67
 211 126 211 126 233 112 c 128,-1,68
 255 98 255 98 282.5 89.5 c 128,-1,69
 310 81 310 81 346 81 c 0,70,71
 365 81 365 81 386.5 95.5 c 128,-1,72
 408 110 408 110 426 133 c 128,-1,73
 444 156 444 156 455.5 184 c 128,-1,74
 467 212 467 212 467 239 c 0,75,76
 467 281 467 281 447.5 298.5 c 128,-1,77
 428 316 428 316 399 316 c 0,78,79
 396 316 396 316 396 311 c 0,80,81
 396 305 396 305 398 296 c 128,-1,82
 400 287 400 287 402.5 276 c 128,-1,83
 405 265 405 265 407 254 c 128,-1,84
 409 243 409 243 409 233 c 0,85,86
 409 219 409 219 403 208 c 128,-1,87
 397 197 397 197 387 189 c 128,-1,88
 377 181 377 181 365.5 176.5 c 128,-1,89
 354 172 354 172 344 172 c 0,90,91
 324 172 324 172 311.5 180 c 128,-1,92
 299 188 299 188 291.5 200.5 c 128,-1,93
 284 213 284 213 281 228.5 c 128,-1,94
 278 244 278 244 278 259 c 0,95,96
 278 287 278 287 292 312.5 c 128,-1,97
 306 338 306 338 325.5 358.5 c 128,-1,98
 345 379 345 379 365 393 c 128,-1,99
 385 407 385 407 398 412 c 0,100,101
 416 420 416 420 429.5 440 c 128,-1,102
 443 460 443 460 443 480 c 0,103,104
 443 498 443 498 437 513.5 c 128,-1,105
 431 529 431 529 421 540.5 c 128,-1,106
 411 552 411 552 398.5 558.5 c 128,-1,107
 386 565 386 565 373 565 c 2,108,-1
 352 565 l 2,109,110
 340 565 340 565 332.5 561.5 c 128,-1,111
 325 558 325 558 317 543 c 1,112,113
 331 528 331 528 337.5 509 c 128,-1,114
 344 490 344 490 344 470 c 0,115,116
 344 442 344 442 333.5 420.5 c 128,-1,117
 323 399 323 399 307.5 384 c 128,-1,118
 292 369 292 369 274 361 c 128,-1,119
 256 353 256 353 240 353 c 0,120,121
 216 353 216 353 205 370.5 c 128,-1,122
 194 388 194 388 194 416 c 0,123,124
 194 438 194 438 202.5 461.5 c 128,-1,125
 211 485 211 485 220.5 506 c 128,-1,126
 230 527 230 527 238.5 544.5 c 128,-1,127
 247 562 247 562 247 573 c 0,128,129
 247 595 247 595 230 595 c 256,130,131
 213 595 213 595 204 582.5 c 128,-1,132
 195 570 195 570 189.5 551.5 c 128,-1,133
 184 533 184 533 180 511.5 c 128,-1,134
 176 490 176 490 170 471.5 c 128,-1,135
 164 453 164 453 154 440.5 c 128,-1,136
 144 428 144 428 126 428 c 0,137,138
 109 428 109 428 103.5 441 c 128,-1,139
 98 454 98 454 98 473 c 0,140,141
 98 520 98 520 109.5 555 c 128,-1,142
 121 590 121 590 140 613 c 128,-1,143
 159 636 159 636 182 647.5 c 128,-1,144
 205 659 205 659 229 659 c 0,145,146
 275 659 275 659 298 617 c 1,147,148
 316 634 316 634 330 637 c 128,-1,149
 344 640 344 640 368 640 c 0,150,151
 420 640 420 640 450 623.5 c 128,-1,152
 480 607 480 607 495 584.5 c 128,-1,153
 510 562 510 562 514 539.5 c 128,-1,154
 518 517 518 517 518 505 c 0,155,156
 518 459 518 459 506 425.5 c 128,-1,157
 494 392 494 392 462 369 c 1,158,159
 479 362 479 362 493 354 c 128,-1,160
 507 346 507 346 517.5 333.5 c 128,-1,161
 528 321 528 321 534 303 c 128,-1,162
 540 285 540 285 542 258 c 2,0,-1
EndSplineSet
EndChar

StartChar: uni0994
Encoding: 2452 2452 43
Width: 675
GlyphClass: 2
Flags: W
AnchorPoint: "Anchor-1" 446 505 basechar 0
AnchorPoint: "Anchor-0" 674 505 basechar 0
LayerCount: 2
Fore
SplineSet
492 357 m 1,0,1
 498 349 498 349 507 336 c 128,-1,2
 516 323 516 323 523.5 308 c 128,-1,3
 531 293 531 293 536.5 276 c 128,-1,4
 542 259 542 259 542 243 c 0,5,6
 542 196 542 196 526.5 153 c 128,-1,7
 511 110 511 110 485 77 c 128,-1,8
 459 44 459 44 425 24.5 c 128,-1,9
 391 5 391 5 355 5 c 2,10,-1
 349 5 l 2,11,12
 346 4 346 4 340 4 c 2,13,-1
 331 4 l 2,14,15
 295 4 295 4 266.5 14.5 c 128,-1,16
 238 25 238 25 214.5 41.5 c 128,-1,17
 191 58 191 58 170.5 78.5 c 128,-1,18
 150 99 150 99 130 120 c 0,19,20
 103 148 103 148 83.5 193 c 128,-1,21
 64 238 64 238 51.5 289 c 128,-1,22
 39 340 39 340 33.5 393 c 128,-1,23
 28 446 28 446 28 490 c 0,24,25
 28 501 28 501 28.5 511.5 c 128,-1,26
 29 522 29 522 30 532 c 1,27,28
 24 531 24 531 11.5 528 c 128,-1,29
 -1 525 -1 525 -15 520.5 c 128,-1,30
 -29 516 -29 516 -41.5 511 c 128,-1,31
 -54 506 -54 506 -61 500 c 1,32,33
 -77 526 -77 526 -87.5 544.5 c 128,-1,34
 -98 563 -98 563 -100 566 c 0,35,36
 -94 572 -94 572 -80.5 578.5 c 128,-1,37
 -67 585 -67 585 -50 590.5 c 128,-1,38
 -33 596 -33 596 -14.5 600.5 c 128,-1,39
 4 605 4 605 20 607 c 1,40,41
 21 661 21 661 26.5 708 c 128,-1,42
 32 755 32 755 47 789.5 c 128,-1,43
 62 824 62 824 90.5 843.5 c 128,-1,44
 119 863 119 863 166 863 c 0,45,46
 172 863 172 863 184 861 c 128,-1,47
 196 859 196 859 210 853 c 128,-1,48
 224 847 224 847 238.5 835 c 128,-1,49
 253 823 253 823 264 802 c 1,50,-1
 249 786 l 1,51,52
 213 831 213 831 163 831 c 0,53,54
 131 831 131 831 113 815.5 c 128,-1,55
 95 800 95 800 86 770.5 c 128,-1,56
 77 741 77 741 74.5 698.5 c 128,-1,57
 72 656 72 656 72 602 c 0,58,59
 72 546 72 546 73 487 c 128,-1,60
 74 428 74 428 82 371.5 c 128,-1,61
 90 315 90 315 108 265 c 128,-1,62
 126 215 126 215 160 178 c 0,63,64
 176 160 176 160 193.5 143 c 128,-1,65
 211 126 211 126 233 112 c 128,-1,66
 255 98 255 98 282.5 89.5 c 128,-1,67
 310 81 310 81 346 81 c 0,68,69
 365 81 365 81 386.5 95.5 c 128,-1,70
 408 110 408 110 426 133 c 128,-1,71
 444 156 444 156 455.5 184 c 128,-1,72
 467 212 467 212 467 239 c 0,73,74
 467 281 467 281 447.5 298.5 c 128,-1,75
 428 316 428 316 399 316 c 0,76,77
 396 316 396 316 396 311 c 0,78,79
 396 305 396 305 398 296 c 128,-1,80
 400 287 400 287 402.5 276 c 128,-1,81
 405 265 405 265 407 254 c 128,-1,82
 409 243 409 243 409 233 c 0,83,84
 409 219 409 219 403 208 c 128,-1,85
 397 197 397 197 387 189 c 128,-1,86
 377 181 377 181 365.5 176.5 c 128,-1,87
 354 172 354 172 344 172 c 0,88,89
 324 172 324 172 311.5 180 c 128,-1,90
 299 188 299 188 291.5 200.5 c 128,-1,91
 284 213 284 213 281 228.5 c 128,-1,92
 278 244 278 244 278 259 c 0,93,94
 278 287 278 287 292 312.5 c 128,-1,95
 306 338 306 338 325.5 358.5 c 128,-1,96
 345 379 345 379 365 393 c 128,-1,97
 385 407 385 407 398 412 c 0,98,99
 416 420 416 420 429.5 440 c 128,-1,100
 443 460 443 460 443 480 c 0,101,102
 443 498 443 498 437 513.5 c 128,-1,103
 431 529 431 529 421 540.5 c 128,-1,104
 411 552 411 552 398.5 558.5 c 128,-1,105
 386 565 386 565 373 565 c 2,106,-1
 352 565 l 2,107,108
 340 565 340 565 332.5 561.5 c 128,-1,109
 325 558 325 558 317 543 c 1,110,111
 331 528 331 528 337.5 509 c 128,-1,112
 344 490 344 490 344 470 c 0,113,114
 344 442 344 442 333.5 420.5 c 128,-1,115
 323 399 323 399 307.5 384 c 128,-1,116
 292 369 292 369 274 361 c 128,-1,117
 256 353 256 353 240 353 c 0,118,119
 216 353 216 353 205 370.5 c 128,-1,120
 194 388 194 388 194 416 c 0,121,122
 194 438 194 438 202.5 461.5 c 128,-1,123
 211 485 211 485 220.5 506 c 128,-1,124
 230 527 230 527 238.5 544.5 c 128,-1,125
 247 562 247 562 247 573 c 0,126,127
 247 595 247 595 230 595 c 256,128,129
 213 595 213 595 204 582.5 c 128,-1,130
 195 570 195 570 189.5 551.5 c 128,-1,131
 184 533 184 533 180 511.5 c 128,-1,132
 176 490 176 490 170 471.5 c 128,-1,133
 164 453 164 453 154 440.5 c 128,-1,134
 144 428 144 428 126 428 c 0,135,136
 109 428 109 428 103.5 441 c 128,-1,137
 98 454 98 454 98 473 c 0,138,139
 98 520 98 520 109.5 555 c 128,-1,140
 121 590 121 590 140 613 c 128,-1,141
 159 636 159 636 182 647.5 c 128,-1,142
 205 659 205 659 229 659 c 0,143,144
 275 659 275 659 298 617 c 1,145,146
 316 634 316 634 330 637 c 128,-1,147
 344 640 344 640 368 640 c 0,148,149
 407 640 407 640 434 628.5 c 128,-1,150
 461 617 461 617 478.5 600.5 c 128,-1,151
 496 584 496 584 504.5 566 c 128,-1,152
 513 548 513 548 515 536 c 0,153,154
 517 521 517 521 518.5 507.5 c 128,-1,155
 520 494 520 494 520 481 c 0,156,157
 520 465 520 465 517.5 450.5 c 128,-1,158
 515 436 515 436 508 422 c 1,159,160
 524 428 524 428 539.5 438.5 c 128,-1,161
 555 449 555 449 567 466.5 c 128,-1,162
 579 484 579 484 586.5 509.5 c 128,-1,163
 594 535 594 535 594 570 c 0,164,165
 594 583 594 583 589.5 602.5 c 128,-1,166
 585 622 585 622 571 639.5 c 128,-1,167
 557 657 557 657 530 669.5 c 128,-1,168
 503 682 503 682 457 682 c 2,169,-1
 442 682 l 2,170,171
 416 682 416 682 391 696.5 c 128,-1,172
 366 711 366 711 345.5 737.5 c 128,-1,173
 325 764 325 764 312.5 802 c 128,-1,174
 300 840 300 840 300 887 c 0,175,176
 300 903 300 903 304.5 921 c 128,-1,177
 309 939 309 939 317 956 c 128,-1,178
 325 973 325 973 335.5 989 c 128,-1,179
 346 1005 346 1005 358 1017 c 1,180,181
 350 997 350 997 348 965.5 c 128,-1,182
 346 934 346 934 346 905 c 0,183,184
 346 890 346 890 348 861.5 c 128,-1,185
 350 833 350 833 361 805 c 128,-1,186
 372 777 372 777 396 756 c 128,-1,187
 420 735 420 735 465 735 c 0,188,189
 558 735 558 735 603.5 694 c 128,-1,190
 649 653 649 653 649 562 c 0,191,192
 649 503 649 503 631 465.5 c 128,-1,193
 613 428 613 428 588 405.5 c 128,-1,194
 563 383 563 383 536.5 372.5 c 128,-1,195
 510 362 510 362 492 357 c 1,0,1
EndSplineSet
EndChar

StartChar: uni0995
Encoding: 2453 2453 44
Width: 579
GlyphClass: 2
Flags: W
AnchorPoint: "Anchor-2" 318 -100 basechar 0
AnchorPoint: "Anchor-1" 276 505 basechar 0
AnchorPoint: "Anchor-0" 274 505 basechar 0
LayerCount: 2
Fore
SplineSet
650 561 m 0,0,1
 648 557 648 557 638 543 c 128,-1,2
 628 529 628 529 613 505 c 1,3,4
 601 528 601 528 586 537 c 128,-1,5
 571 546 571 546 557 546 c 0,6,7
 537 546 537 546 520.5 532 c 128,-1,8
 504 518 504 518 499 503 c 1,9,10
 500 474 500 474 509 454.5 c 128,-1,11
 518 435 518 435 528 415.5 c 128,-1,12
 538 396 538 396 546.5 371.5 c 128,-1,13
 555 347 555 347 555 307 c 0,14,15
 555 288 555 288 550 269 c 128,-1,16
 545 250 545 250 536 235 c 128,-1,17
 527 220 527 220 515 210.5 c 128,-1,18
 503 201 503 201 488 201 c 0,19,20
 472 201 472 201 457 211.5 c 128,-1,21
 442 222 442 222 430 240 c 128,-1,22
 418 258 418 258 411 281 c 128,-1,23
 404 304 404 304 404 329 c 0,24,25
 404 380 404 380 412 420 c 128,-1,26
 420 460 420 460 431 494 c 1,27,28
 429 514 429 514 412.5 524.5 c 128,-1,29
 396 535 396 535 384 535 c 256,30,31
 372 535 372 535 365.5 534.5 c 128,-1,32
 359 534 359 534 354.5 531.5 c 128,-1,33
 350 529 350 529 346 525 c 128,-1,34
 342 521 342 521 336 514 c 1,35,36
 336 451 336 451 337 383 c 128,-1,37
 338 315 338 315 339.5 258.5 c 128,-1,38
 341 202 341 202 342.5 164 c 128,-1,39
 344 126 344 126 344 122 c 0,40,41
 344 107 344 107 342.5 92 c 128,-1,42
 341 77 341 77 336.5 65 c 128,-1,43
 332 53 332 53 324 45.5 c 128,-1,44
 316 38 316 38 304 38 c 0,45,46
 290 38 290 38 267.5 50.5 c 128,-1,47
 245 63 245 63 214 93 c 0,48,49
 186 120 186 120 152 136.5 c 128,-1,50
 118 153 118 153 88.5 169 c 128,-1,51
 59 185 59 185 38.5 206 c 128,-1,52
 18 227 18 227 16 263 c 0,53,54
 17 270 17 270 32 287 c 128,-1,55
 47 304 47 304 69.5 325 c 128,-1,56
 92 346 92 346 118 368 c 128,-1,57
 144 390 144 390 167 408 c 0,58,59
 172 412 172 412 182.5 421.5 c 128,-1,60
 193 431 193 431 204 443.5 c 128,-1,61
 215 456 215 456 224.5 471.5 c 128,-1,62
 234 487 234 487 238 504 c 0,63,64
 238 521 238 521 226.5 532 c 128,-1,65
 215 543 215 543 197 549.5 c 128,-1,66
 179 556 179 556 157.5 558.5 c 128,-1,67
 136 561 136 561 115 561 c 0,68,69
 98 561 98 561 74.5 558 c 128,-1,70
 51 555 51 555 27.5 548.5 c 128,-1,71
 4 542 4 542 -15.5 531 c 128,-1,72
 -35 520 -35 520 -43 505 c 1,73,74
 -58 530 -58 530 -68.5 544 c 128,-1,75
 -79 558 -79 558 -81 562 c 1,76,77
 -66 576 -66 576 -42 586 c 128,-1,78
 -18 596 -18 596 9 602.5 c 128,-1,79
 36 609 36 609 63 612 c 128,-1,80
 90 615 90 615 112 615 c 0,81,82
 162 615 162 615 207.5 601 c 128,-1,83
 253 587 253 587 276 550 c 1,84,85
 282 563 282 563 293.5 572.5 c 128,-1,86
 305 582 305 582 318.5 587.5 c 128,-1,87
 332 593 332 593 346 595.5 c 128,-1,88
 360 598 360 598 371 598 c 0,89,90
 392 598 392 598 407.5 591 c 128,-1,91
 423 584 423 584 434 575 c 128,-1,92
 445 566 445 566 452 556 c 128,-1,93
 459 546 459 546 464 540 c 1,94,95
 477 577 477 577 504 591 c 128,-1,96
 531 605 531 605 566 607 c 0,97,98
 580 607 580 607 593.5 602 c 128,-1,99
 607 597 607 597 618 590 c 128,-1,100
 629 583 629 583 637.5 575 c 128,-1,101
 646 567 646 567 650 561 c 0,0,1
271 435 m 1,102,103
 257 411 257 411 235 387 c 128,-1,104
 213 363 213 363 188.5 339.5 c 128,-1,105
 164 316 164 316 139 294 c 128,-1,106
 114 272 114 272 93 251 c 1,107,108
 108 243 108 243 134 231 c 128,-1,109
 160 219 160 219 187 202.5 c 128,-1,110
 214 186 214 186 238.5 164.5 c 128,-1,111
 263 143 263 143 276 116 c 1,112,-1
 271 435 l 1,102,103
EndSplineSet
EndChar

StartChar: uni0996
Encoding: 2454 2454 45
Width: 549
GlyphClass: 2
Flags: W
AnchorPoint: "Anchor-2" 450 -130 basechar 0
AnchorPoint: "Anchor-1" 500 505 basechar 0
AnchorPoint: "Anchor-0" 500 505 basechar 0
LayerCount: 2
Fore
SplineSet
637 562 m 1,0,1
 635 558 635 558 624.5 543.5 c 128,-1,2
 614 529 614 529 599 505 c 1,3,4
 591 519 591 519 573.5 530 c 128,-1,5
 556 541 556 541 539 541 c 256,6,7
 522 541 522 541 510 528 c 1,8,9
 501 499 501 499 495 461 c 128,-1,10
 489 423 489 423 485 387.5 c 128,-1,11
 481 352 481 352 479.5 323.5 c 128,-1,12
 478 295 478 295 478 286 c 0,13,14
 478 240 478 240 484.5 198.5 c 128,-1,15
 491 157 491 157 491 112 c 0,16,17
 491 95 491 95 489 75.5 c 128,-1,18
 487 56 487 56 482 39.5 c 128,-1,19
 477 23 477 23 468.5 11.5 c 128,-1,20
 460 0 460 0 447 0 c 0,21,22
 436 0 436 0 427.5 10 c 128,-1,23
 419 20 419 20 412.5 34.5 c 128,-1,24
 406 49 406 49 402 64.5 c 128,-1,25
 398 80 398 80 396 92 c 1,26,27
 387 104 387 104 371 118 c 128,-1,28
 355 132 355 132 335.5 144 c 128,-1,29
 316 156 316 156 294.5 164 c 128,-1,30
 273 172 273 172 254 172 c 1,31,32
 247 165 247 165 236.5 157 c 128,-1,33
 226 149 226 149 214 142 c 128,-1,34
 202 135 202 135 189.5 130.5 c 128,-1,35
 177 126 177 126 166 126 c 256,36,37
 155 126 155 126 145 131.5 c 128,-1,38
 135 137 135 137 127.5 146 c 128,-1,39
 120 155 120 155 115 165.5 c 128,-1,40
 110 176 110 176 110 186 c 0,41,42
 110 205 110 205 120 220 c 128,-1,43
 130 235 130 235 146.5 244.5 c 128,-1,44
 163 254 163 254 184 259 c 128,-1,45
 205 264 205 264 228 264 c 0,46,47
 243 264 243 264 254 282.5 c 128,-1,48
 265 301 265 301 272.5 325.5 c 128,-1,49
 280 350 280 350 284 375.5 c 128,-1,50
 288 401 288 401 289 416 c 2,51,-1
 291 429 l 2,52,53
 291 443 291 443 289.5 460 c 128,-1,54
 288 477 288 477 284.5 493.5 c 128,-1,55
 281 510 281 510 273.5 525 c 128,-1,56
 266 540 266 540 254 550 c 1,57,58
 254 537 254 537 254.5 528 c 128,-1,59
 255 519 255 519 255 511 c 0,60,61
 255 461 255 461 241.5 431.5 c 128,-1,62
 228 402 228 402 209 386.5 c 128,-1,63
 190 371 190 371 171 366.5 c 128,-1,64
 152 362 152 362 140 362 c 0,65,66
 129 362 129 362 109.5 369.5 c 128,-1,67
 90 377 90 377 71.5 393 c 128,-1,68
 53 409 53 409 39 434 c 128,-1,69
 25 459 25 459 25 494 c 0,70,71
 25 545 25 545 46 569 c 128,-1,72
 67 593 67 593 90 595 c 0,73,74
 109 595 109 595 121 587 c 128,-1,75
 133 579 133 579 140.5 567 c 128,-1,76
 148 555 148 555 151 540.5 c 128,-1,77
 154 526 154 526 154 513 c 0,78,79
 154 475 154 475 144 451 c 128,-1,80
 134 427 134 427 125 421 c 1,81,-1
 129 420 l 2,82,83
 138 420 138 420 150 425 c 128,-1,84
 162 430 162 430 173 440.5 c 128,-1,85
 184 451 184 451 191.5 467 c 128,-1,86
 199 483 199 483 199 505 c 0,87,88
 199 516 199 516 194 541 c 0,89,90
 191 552 191 552 184 569 c 128,-1,91
 177 586 177 586 177 596 c 0,92,93
 177 615 177 615 189.5 618.5 c 128,-1,94
 202 622 202 622 214 622 c 0,95,96
 241 622 241 622 265.5 610 c 128,-1,97
 290 598 290 598 308.5 574 c 128,-1,98
 327 550 327 550 337.5 514.5 c 128,-1,99
 348 479 348 479 348 432 c 0,100,101
 348 415 348 415 345.5 389.5 c 128,-1,102
 343 364 343 364 337 336.5 c 128,-1,103
 331 309 331 309 322.5 282.5 c 128,-1,104
 314 256 314 256 302 238 c 1,105,106
 310 234 310 234 322 227.5 c 128,-1,107
 334 221 334 221 347 212.5 c 128,-1,108
 360 204 360 204 372 193.5 c 128,-1,109
 384 183 384 183 393 171 c 1,110,111
 395 200 395 200 400 238.5 c 128,-1,112
 405 277 405 277 411 319 c 0,113,114
 418 370 418 370 423.5 421.5 c 128,-1,115
 429 473 429 473 441.5 514.5 c 128,-1,116
 454 556 454 556 479.5 581.5 c 128,-1,117
 505 607 505 607 552 607 c 0,118,119
 572 607 572 607 584 603.5 c 128,-1,120
 596 600 596 600 605 594 c 128,-1,121
 614 588 614 588 621 579.5 c 128,-1,122
 628 571 628 571 637 562 c 1,0,1
EndSplineSet
EndChar

StartChar: uni0997
Encoding: 2455 2455 46
Width: 470
GlyphClass: 2
Flags: W
AnchorPoint: "Anchor-2" 400 -110 basechar 0
AnchorPoint: "Anchor-1" 400 505 basechar 0
AnchorPoint: "Anchor-0" 400 505 basechar 0
LayerCount: 2
Fore
SplineSet
557 562 m 1,0,1
 555 557 555 557 544.5 541 c 128,-1,2
 534 525 534 525 519 500 c 1,3,4
 511 514 511 514 493.5 525 c 128,-1,5
 476 536 476 536 459 536 c 0,6,7
 439 536 439 536 428 517 c 128,-1,8
 417 498 417 498 411.5 473 c 128,-1,9
 406 448 406 448 404.5 423 c 128,-1,10
 403 398 403 398 403 386 c 0,11,12
 403 356 403 356 404 326.5 c 128,-1,13
 405 297 405 297 405 266 c 0,14,15
 405 206 405 206 404 148 c 128,-1,16
 403 90 403 90 403 33 c 1,17,18
 390 34 390 34 377.5 34.5 c 128,-1,19
 365 35 365 35 344 35 c 1,20,21
 338 101 338 101 338 177 c 0,22,23
 338 216 338 216 339 257.5 c 128,-1,24
 340 299 340 299 342 345 c 0,25,26
 342 357 342 357 340.5 375 c 128,-1,27
 339 393 339 393 336.5 412.5 c 128,-1,28
 334 432 334 432 331 450.5 c 128,-1,29
 328 469 328 469 325 481 c 0,30,31
 316 513 316 513 285.5 530.5 c 128,-1,32
 255 548 255 548 223 548 c 0,33,34
 165 548 165 548 133.5 512.5 c 128,-1,35
 102 477 102 477 102 411 c 0,36,37
 102 402 102 402 102.5 394 c 128,-1,38
 103 386 103 386 104 379 c 1,39,40
 116 400 116 400 131.5 411.5 c 128,-1,41
 147 423 147 423 161.5 429 c 128,-1,42
 176 435 176 435 186.5 436.5 c 128,-1,43
 197 438 197 438 198 438 c 2,44,-1
 204 438 l 2,45,46
 221 438 221 438 235 428.5 c 128,-1,47
 249 419 249 419 259.5 404 c 128,-1,48
 270 389 270 389 275.5 371 c 128,-1,49
 281 353 281 353 281 336 c 0,50,51
 281 251 281 251 238 180.5 c 128,-1,52
 195 110 195 110 125 65 c 1,53,54
 120 72 120 72 107 93.5 c 128,-1,55
 94 115 94 115 81 135 c 1,56,57
 108 145 108 145 132.5 165.5 c 128,-1,58
 157 186 157 186 175 212.5 c 128,-1,59
 193 239 193 239 203.5 270.5 c 128,-1,60
 214 302 214 302 214 335 c 0,61,62
 214 349 214 349 203 353 c 128,-1,63
 192 357 192 357 178 357 c 0,64,65
 167 357 167 357 161 346 c 128,-1,66
 155 335 155 335 148.5 321.5 c 128,-1,67
 142 308 142 308 133 296 c 128,-1,68
 124 284 124 284 107 283 c 0,69,70
 82 283 82 283 66 296 c 128,-1,71
 50 309 50 309 41 327.5 c 128,-1,72
 32 346 32 346 28.5 367.5 c 128,-1,73
 25 389 25 389 25 407 c 0,74,75
 25 452 25 452 40.5 491 c 128,-1,76
 56 530 56 530 80.5 559.5 c 128,-1,77
 105 589 105 589 137 606 c 128,-1,78
 169 623 169 623 202 623 c 0,79,80
 229 623 229 623 255.5 617.5 c 128,-1,81
 282 612 282 612 304.5 601.5 c 128,-1,82
 327 591 327 591 343 575 c 128,-1,83
 359 559 359 559 366 537 c 1,84,85
 382 575 382 575 409.5 591 c 128,-1,86
 437 607 437 607 472 607 c 0,87,88
 492 607 492 607 505.5 602 c 128,-1,89
 519 597 519 597 528.5 589.5 c 128,-1,90
 538 582 538 582 544.5 574.5 c 128,-1,91
 551 567 551 567 557 562 c 1,0,1
EndSplineSet
EndChar

StartChar: uni0998
Encoding: 2456 2456 47
Width: 448
GlyphClass: 2
Flags: W
AnchorPoint: "Anchor-2" 352 -134 basechar 0
AnchorPoint: "Anchor-1" 364 505 basechar 0
AnchorPoint: "Anchor-0" 360 505 basechar 0
LayerCount: 2
Fore
SplineSet
532 562 m 1,0,1
 530 558 530 558 520 544 c 128,-1,2
 510 530 510 530 494 506 c 1,3,4
 490 520 490 520 472 531 c 128,-1,5
 454 542 454 542 435 542 c 0,6,7
 418 542 418 542 407 527.5 c 128,-1,8
 396 513 396 513 390 490 c 128,-1,9
 384 467 384 467 382 439 c 128,-1,10
 380 411 380 411 380 383 c 0,11,12
 380 352 380 352 382.5 323 c 128,-1,13
 385 294 385 294 388.5 265.5 c 128,-1,14
 392 237 392 237 394.5 208 c 128,-1,15
 397 179 397 179 397 149 c 0,16,17
 397 132 397 132 396 106.5 c 128,-1,18
 395 81 395 81 391 57.5 c 128,-1,19
 387 34 387 34 377.5 17 c 128,-1,20
 368 0 368 0 352 0 c 0,21,22
 339 0 339 0 331 11 c 128,-1,23
 323 22 323 22 318.5 37 c 128,-1,24
 314 52 314 52 312 68.5 c 128,-1,25
 310 85 310 85 310 96 c 1,26,27
 304 105 304 105 292 112 c 128,-1,28
 280 119 280 119 265 123.5 c 128,-1,29
 250 128 250 128 234.5 130.5 c 128,-1,30
 219 133 219 133 206 133 c 256,31,32
 193 133 193 133 178 125.5 c 128,-1,33
 163 118 163 118 147.5 108.5 c 128,-1,34
 132 99 132 99 115 91.5 c 128,-1,35
 98 84 98 84 81 84 c 0,36,37
 73 84 73 84 63.5 86 c 128,-1,38
 54 88 54 88 46 93 c 128,-1,39
 38 98 38 98 32.5 108 c 128,-1,40
 27 118 27 118 27 134 c 0,41,42
 27 149 27 149 35.5 160.5 c 128,-1,43
 44 172 44 172 55.5 180 c 128,-1,44
 67 188 67 188 78.5 193 c 128,-1,45
 90 198 90 198 97 201 c 0,46,47
 130 215 130 215 151 248.5 c 128,-1,48
 172 282 172 282 186 336 c 1,49,50
 181 335 181 335 175 334.5 c 128,-1,51
 169 334 169 334 162 334 c 0,52,53
 136 334 136 334 112 341 c 128,-1,54
 88 348 88 348 69 363 c 128,-1,55
 50 378 50 378 39 400.5 c 128,-1,56
 28 423 28 423 28 453 c 0,57,58
 28 459 28 459 28.5 470.5 c 128,-1,59
 29 482 29 482 30.5 495 c 128,-1,60
 32 508 32 508 35.5 521.5 c 128,-1,61
 39 535 39 535 45 545 c 1,62,63
 36 555 36 555 23 555 c 0,64,65
 13 555 13 555 2 550.5 c 128,-1,66
 -9 546 -9 546 -19 538.5 c 128,-1,67
 -29 531 -29 531 -37.5 522 c 128,-1,68
 -46 513 -46 513 -50 505 c 1,69,70
 -65 530 -65 530 -75.5 544 c 128,-1,71
 -86 558 -86 558 -88 562 c 1,72,73
 -68 581 -68 581 -45.5 594.5 c 128,-1,74
 -23 608 -23 608 6 608 c 0,75,76
 26 608 26 608 49 601.5 c 128,-1,77
 72 595 72 595 86 577 c 1,78,79
 106 593 106 593 138 599.5 c 128,-1,80
 170 606 170 606 204 606 c 0,81,82
 224 605 224 605 245 602 c 128,-1,83
 266 599 266 599 285 591.5 c 128,-1,84
 304 584 304 584 319.5 571.5 c 128,-1,85
 335 559 335 559 344 540 c 1,86,87
 357 569 357 569 384.5 588 c 128,-1,88
 412 607 412 607 447 607 c 0,89,90
 479 607 479 607 499 591.5 c 128,-1,91
 519 576 519 576 532 562 c 1,0,1
327 345 m 0,92,93
 328 354 328 354 328.5 362 c 128,-1,94
 329 370 329 370 329 378 c 0,95,96
 329 422 329 422 316.5 453 c 128,-1,97
 304 484 304 484 285.5 503.5 c 128,-1,98
 267 523 267 523 245 531.5 c 128,-1,99
 223 540 223 540 205 540 c 0,100,101
 184 540 184 540 164.5 536.5 c 128,-1,102
 145 533 145 533 129 524 c 128,-1,103
 113 515 113 515 103.5 500.5 c 128,-1,104
 94 486 94 486 94 464 c 0,105,106
 94 424 94 424 118 409.5 c 128,-1,107
 142 395 142 395 174 395 c 0,108,109
 194 395 194 395 214.5 399 c 128,-1,110
 235 403 235 403 252 408 c 1,111,112
 253 404 253 404 254 392 c 128,-1,113
 255 380 255 380 255 367 c 2,114,-1
 255 357 l 2,115,116
 255 352 255 352 254 349 c 0,117,118
 243 286 243 286 227.5 247.5 c 128,-1,119
 212 209 212 209 198 197 c 1,120,121
 229 195 229 195 262 187 c 128,-1,122
 295 179 295 179 309 162 c 1,123,124
 311 200 311 200 316 247 c 128,-1,125
 321 294 321 294 327 345 c 0,92,93
EndSplineSet
EndChar

StartChar: uni0999
Encoding: 2457 2457 48
Width: 526
GlyphClass: 2
Flags: W
AnchorPoint: "Anchor-2" 362 -123 basechar 0
AnchorPoint: "Anchor-1" 300 505 basechar 0
AnchorPoint: "Anchor-0" 300 505 basechar 0
LayerCount: 2
Fore
SplineSet
501 339 m 0,0,1
 501 318 501 318 498.5 284.5 c 128,-1,2
 496 251 496 251 488.5 213 c 128,-1,3
 481 175 481 175 467 137 c 128,-1,4
 453 99 453 99 429.5 68.5 c 128,-1,5
 406 38 406 38 371.5 18.5 c 128,-1,6
 337 -1 337 -1 290 -1 c 0,7,8
 237 -1 237 -1 198 23.5 c 128,-1,9
 159 48 159 48 131 87 c 128,-1,10
 103 126 103 126 84 175.5 c 128,-1,11
 65 225 65 225 52.5 275.5 c 128,-1,12
 40 326 40 326 33.5 372.5 c 128,-1,13
 27 419 27 419 23 453 c 1,14,15
 34 460 34 460 41.5 465 c 128,-1,16
 49 470 49 470 57 478 c 1,17,18
 74 395 74 395 95 325 c 128,-1,19
 116 255 116 255 144.5 204 c 128,-1,20
 173 153 173 153 210 124 c 128,-1,21
 247 95 247 95 295 95 c 0,22,23
 316 95 316 95 338 106 c 128,-1,24
 360 117 360 117 379 143 c 128,-1,25
 398 169 398 169 412 212 c 128,-1,26
 426 255 426 255 432 320 c 1,27,28
 421 311 421 311 405.5 295.5 c 128,-1,29
 390 280 390 280 370.5 265.5 c 128,-1,30
 351 251 351 251 327 240.5 c 128,-1,31
 303 230 303 230 274 230 c 0,32,33
 263 230 263 230 254.5 237.5 c 128,-1,34
 246 245 246 245 240 255.5 c 128,-1,35
 234 266 234 266 230 278.5 c 128,-1,36
 226 291 226 291 224 301 c 0,37,38
 224 302 224 302 223 312.5 c 128,-1,39
 222 323 222 323 221 339.5 c 128,-1,40
 220 356 220 356 219 376.5 c 128,-1,41
 218 397 218 397 218 418 c 1,42,43
 198 421 198 421 180.5 432 c 128,-1,44
 163 443 163 443 150 460 c 128,-1,45
 137 477 137 477 129.5 499 c 128,-1,46
 122 521 122 521 122 545 c 0,47,48
 122 573 122 573 130 597.5 c 128,-1,49
 138 622 138 622 151 640.5 c 128,-1,50
 164 659 164 659 179 671 c 128,-1,51
 194 683 194 683 208 686 c 1,52,53
 219 679 219 679 220 673 c 128,-1,54
 221 667 221 667 226 662 c 1,55,56
 217 660 217 660 206.5 651 c 128,-1,57
 196 642 196 642 187 627.5 c 128,-1,58
 178 613 178 613 172 593.5 c 128,-1,59
 166 574 166 574 166 552 c 0,60,61
 166 529 166 529 182 510 c 128,-1,62
 198 491 198 491 216 491 c 0,63,64
 217 491 217 491 225 493 c 1,65,66
 217 504 217 504 217 535 c 0,67,68
 217 577 217 577 239.5 606.5 c 128,-1,69
 262 636 262 636 304 636 c 0,70,71
 311 636 311 636 323.5 632.5 c 128,-1,72
 336 629 336 629 348.5 619.5 c 128,-1,73
 361 610 361 610 370 593 c 128,-1,74
 379 576 379 576 379 550 c 0,75,76
 379 518 379 518 371.5 495 c 128,-1,77
 364 472 364 472 351.5 456.5 c 128,-1,78
 339 441 339 441 323.5 431.5 c 128,-1,79
 308 422 308 422 293 417 c 1,80,-1
 293 396 l 2,81,82
 293 383 293 383 294.5 371 c 128,-1,83
 296 359 296 359 299 329 c 1,84,85
 306 324 306 324 315 324 c 0,86,87
 326 324 326 324 338 332 c 128,-1,88
 350 340 350 340 363.5 353 c 128,-1,89
 377 366 377 366 392.5 382 c 128,-1,90
 408 398 408 398 425 414 c 1,91,92
 440 419 440 419 448 419 c 0,93,94
 471 419 471 419 486 400 c 128,-1,95
 501 381 501 381 501 339 c 0,0,1
326 548 m 0,96,97
 326 560 326 560 322.5 570.5 c 128,-1,98
 319 581 319 581 307 581 c 0,99,100
 286 581 286 581 275.5 561 c 128,-1,101
 265 541 265 541 265 517 c 0,102,103
 265 499 265 499 270.5 487 c 128,-1,104
 276 475 276 475 287 475 c 0,105,106
 296 475 296 475 303 482.5 c 128,-1,107
 310 490 310 490 315 501 c 128,-1,108
 320 512 320 512 323 524.5 c 128,-1,109
 326 537 326 537 326 548 c 0,96,97
EndSplineSet
EndChar

StartChar: uni099A
Encoding: 2458 2458 49
Width: 420
GlyphClass: 2
Flags: W
AnchorPoint: "Anchor-2" 273 -100 basechar 0
AnchorPoint: "Anchor-1" 278 505 basechar 0
AnchorPoint: "Anchor-0" 276 505 basechar 0
LayerCount: 2
Fore
SplineSet
497 562 m 1,0,1
 495 557 495 557 484.5 541 c 128,-1,2
 474 525 474 525 459 500 c 1,3,4
 455 506 455 506 445.5 515 c 128,-1,5
 436 524 436 524 421.5 532 c 128,-1,6
 407 540 407 540 388 546 c 128,-1,7
 369 552 369 552 347 552 c 0,8,9
 311 552 311 552 278.5 545.5 c 128,-1,10
 246 539 246 539 218.5 527 c 128,-1,11
 191 515 191 515 169.5 499 c 128,-1,12
 148 483 148 483 135 464 c 1,13,14
 135 456 135 456 134 445.5 c 128,-1,15
 133 435 133 435 132 425 c 128,-1,16
 131 415 131 415 130 406 c 128,-1,17
 129 397 129 397 129 393 c 0,18,19
 134 376 134 376 154.5 365.5 c 128,-1,20
 175 355 175 355 198 355 c 0,21,22
 215 355 215 355 231 364 c 128,-1,23
 247 373 247 373 260 386 c 128,-1,24
 273 399 273 399 283 412.5 c 128,-1,25
 293 426 293 426 298 434 c 1,26,27
 304 435 304 435 309 435.5 c 128,-1,28
 314 436 314 436 319 436 c 0,29,30
 346 436 346 436 360.5 423.5 c 128,-1,31
 375 411 375 411 381.5 393 c 128,-1,32
 388 375 388 375 389 355.5 c 128,-1,33
 390 336 390 336 391 323 c 0,34,35
 391 313 391 313 388.5 286 c 128,-1,36
 386 259 386 259 377.5 223 c 128,-1,37
 369 187 369 187 353 148 c 128,-1,38
 337 109 337 109 310 76.5 c 128,-1,39
 283 44 283 44 243.5 23 c 128,-1,40
 204 2 204 2 148 2 c 0,41,42
 123 2 123 2 104.5 14 c 128,-1,43
 86 26 86 26 74 44 c 128,-1,44
 62 62 62 62 56 84 c 128,-1,45
 50 106 50 106 50 127 c 2,46,-1
 56 473 l 2,47,48
 56 481 56 481 55.5 494.5 c 128,-1,49
 55 508 55 508 51 521 c 128,-1,50
 47 534 47 534 38 543.5 c 128,-1,51
 29 553 29 553 13 553 c 0,52,53
 -8 553 -8 553 -27 537.5 c 128,-1,54
 -46 522 -46 522 -55 505 c 1,55,56
 -70 530 -70 530 -80.5 544 c 128,-1,57
 -91 558 -91 558 -93 562 c 1,58,59
 -73 581 -73 581 -50.5 594.5 c 128,-1,60
 -28 608 -28 608 1 608 c 0,61,62
 33 608 33 608 63.5 594 c 128,-1,63
 94 580 94 580 108 547 c 1,64,65
 130 572 130 572 163 585.5 c 128,-1,66
 196 599 196 599 230 605.5 c 128,-1,67
 264 612 264 612 293 613 c 128,-1,68
 322 614 322 614 336 614 c 0,69,70
 355 614 355 614 379 609.5 c 128,-1,71
 403 605 403 605 426 597.5 c 128,-1,72
 449 590 449 590 468 581 c 128,-1,73
 487 572 487 572 497 562 c 1,0,1
318 354 m 1,74,75
 310 344 310 344 298 331 c 128,-1,76
 286 318 286 318 271.5 307 c 128,-1,77
 257 296 257 296 240 288 c 128,-1,78
 223 280 223 280 206 280 c 0,79,80
 199 280 199 280 188.5 281.5 c 128,-1,81
 178 283 178 283 166.5 286.5 c 128,-1,82
 155 290 155 290 144 296.5 c 128,-1,83
 133 303 133 303 126 312 c 1,84,-1
 125 161 l 2,85,86
 126 152 126 152 128.5 137.5 c 128,-1,87
 131 123 131 123 136 109.5 c 128,-1,88
 141 96 141 96 149.5 86 c 128,-1,89
 158 76 158 76 171 76 c 0,90,91
 206 77 206 77 230.5 97.5 c 128,-1,92
 255 118 255 118 271 148.5 c 128,-1,93
 287 179 287 179 296.5 213.5 c 128,-1,94
 306 248 306 248 311 278 c 128,-1,95
 316 308 316 308 317 328 c 2,96,-1
 319 348 l 1,97,-1
 319 347 l 2,98,99
 319 351 319 351 318 354 c 1,74,75
EndSplineSet
EndChar

StartChar: uni099B
Encoding: 2459 2459 50
Width: 400
GlyphClass: 2
Flags: W
AnchorPoint: "Anchor-2" 263 -200 basechar 0
AnchorPoint: "Anchor-1" 255 505 basechar 0
AnchorPoint: "Anchor-0" 253 505 basechar 0
LayerCount: 2
Fore
SplineSet
544 -409 m 1,0,1
 533 -418 533 -418 527 -418.5 c 128,-1,2
 521 -419 521 -419 513 -428 c 1,3,4
 459 -342 459 -342 409 -269 c 128,-1,5
 359 -196 359 -196 316 -137.5 c 128,-1,6
 273 -79 273 -79 239 -36 c 128,-1,7
 205 7 205 7 183 33 c 1,8,9
 163 25 163 25 147.5 21.5 c 128,-1,10
 132 18 132 18 119 18 c 0,11,12
 94 18 94 18 79.5 28.5 c 128,-1,13
 65 39 65 39 57 52.5 c 128,-1,14
 49 66 49 66 46.5 79 c 128,-1,15
 44 92 44 92 44 97 c 0,16,17
 48 130 48 130 68.5 146 c 128,-1,18
 89 162 89 162 116 162 c 0,19,20
 145 162 145 162 174 145 c 1,21,22
 192 145 192 145 212.5 158.5 c 128,-1,23
 233 172 233 172 252 196 c 128,-1,24
 271 220 271 220 286 252.5 c 128,-1,25
 301 285 301 285 309 323 c 0,26,27
 310 326 310 326 310 331 c 2,28,-1
 310 339 l 2,29,30
 310 366 310 366 297 385.5 c 128,-1,31
 284 405 284 405 272 407 c 1,32,33
 270 400 270 400 268 382.5 c 128,-1,34
 266 365 266 365 261.5 343.5 c 128,-1,35
 257 322 257 322 248 298 c 128,-1,36
 239 274 239 274 222.5 254.5 c 128,-1,37
 206 235 206 235 180 222.5 c 128,-1,38
 154 210 154 210 116 210 c 0,39,40
 90 210 90 210 74 221 c 128,-1,41
 58 232 58 232 49 251.5 c 128,-1,42
 40 271 40 271 37 297 c 128,-1,43
 34 323 34 323 34 353 c 0,44,45
 34 389 34 389 35 410.5 c 128,-1,46
 36 432 36 432 37 446 c 128,-1,47
 38 460 38 460 39 469 c 128,-1,48
 40 478 40 478 40 487 c 0,49,50
 40 514 40 514 27 534 c 128,-1,51
 14 554 14 554 -4 554 c 0,52,53
 -20 554 -20 554 -31.5 538 c 128,-1,54
 -43 522 -43 522 -52 505 c 1,55,56
 -67 530 -67 530 -77.5 544 c 128,-1,57
 -88 558 -88 558 -90 562 c 1,58,59
 -70 581 -70 581 -50.5 597 c 128,-1,60
 -31 613 -31 613 -2 613 c 0,61,62
 61 613 61 613 88 547 c 1,63,64
 110 572 110 572 143 585.5 c 128,-1,65
 176 599 176 599 210 605.5 c 128,-1,66
 244 612 244 612 273 613 c 128,-1,67
 302 614 302 614 316 614 c 0,68,69
 335 614 335 614 358.5 609.5 c 128,-1,70
 382 605 382 605 404.5 597.5 c 128,-1,71
 427 590 427 590 446 581 c 128,-1,72
 465 572 465 572 475 562 c 1,73,74
 473 557 473 557 462.5 541 c 128,-1,75
 452 525 452 525 437 500 c 1,76,77
 433 506 433 506 423.5 515 c 128,-1,78
 414 524 414 524 400 532 c 128,-1,79
 386 540 386 540 367.5 546 c 128,-1,80
 349 552 349 552 327 552 c 0,81,82
 255 552 255 552 197 529.5 c 128,-1,83
 139 507 139 507 113 469 c 1,84,85
 124 458 124 458 137.5 447.5 c 128,-1,86
 151 437 151 437 168 437 c 0,87,88
 180 437 180 437 192 444.5 c 128,-1,89
 204 452 204 452 218 472 c 0,90,91
 227 479 227 479 241.5 483 c 128,-1,92
 256 487 256 487 270 487 c 0,93,94
 280 487 280 487 295.5 481 c 128,-1,95
 311 475 311 475 326.5 464.5 c 128,-1,96
 342 454 342 454 355 441 c 128,-1,97
 368 428 368 428 373 413 c 0,98,99
 379 378 379 378 379 346 c 0,100,101
 379 297 379 297 366 254.5 c 128,-1,102
 353 212 353 212 331.5 178.5 c 128,-1,103
 310 145 310 145 283 122 c 128,-1,104
 256 99 256 99 228 89 c 1,105,106
 231 81 231 81 254 44.5 c 128,-1,107
 277 8 277 8 310.5 -43.5 c 128,-1,108
 344 -95 344 -95 383 -153.5 c 128,-1,109
 422 -212 422 -212 456 -264.5 c 128,-1,110
 490 -317 490 -317 514.5 -356.5 c 128,-1,111
 539 -396 539 -396 544 -409 c 1,0,1
205 400 m 1,112,113
 189 375 189 375 166 375 c 0,114,115
 148 375 148 375 131.5 386.5 c 128,-1,116
 115 398 115 398 105 408 c 1,117,118
 104 403 104 403 104 398 c 2,119,-1
 104 370 l 2,120,121
 104 361 104 361 103.5 352 c 128,-1,122
 103 343 103 343 103 335 c 0,123,124
 103 312 103 312 108.5 295.5 c 128,-1,125
 114 279 114 279 134 279 c 0,126,127
 159 279 159 279 173 289.5 c 128,-1,128
 187 300 187 300 193.5 317.5 c 128,-1,129
 200 335 200 335 202 356.5 c 128,-1,130
 204 378 204 378 205 400 c 1,112,113
EndSplineSet
EndChar

StartChar: uni099C
Encoding: 2460 2460 51
Width: 582
GlyphClass: 2
Flags: W
AnchorPoint: "Anchor-2" 500 -164 basechar 0
AnchorPoint: "Anchor-1" 265 505 basechar 0
AnchorPoint: "Anchor-0" 259 505 basechar 0
LayerCount: 2
Fore
SplineSet
663 563 m 0,0,1
 661 560 661 560 650.5 545.5 c 128,-1,2
 640 531 640 531 624 505 c 1,3,4
 616 520 616 520 600.5 528.5 c 128,-1,5
 585 537 585 537 568 537 c 0,6,7
 556 537 556 537 543.5 531.5 c 128,-1,8
 531 526 531 526 521.5 518 c 128,-1,9
 512 510 512 510 506 499.5 c 128,-1,10
 500 489 500 489 500 479 c 0,11,12
 500 475 500 475 504 459 c 128,-1,13
 508 443 508 443 514.5 419.5 c 128,-1,14
 521 396 521 396 528 369 c 128,-1,15
 535 342 535 342 541.5 317 c 128,-1,16
 548 292 548 292 552 272 c 128,-1,17
 556 252 556 252 556 244 c 1,18,19
 543 235 543 235 529 225 c 128,-1,20
 515 215 515 215 503.5 201.5 c 128,-1,21
 492 188 492 188 484.5 170 c 128,-1,22
 477 152 477 152 477 127 c 0,23,24
 477 66 477 66 506.5 28.5 c 128,-1,25
 536 -9 536 -9 582 -9 c 2,26,-1
 593 -9 l 2,27,28
 597 -9 597 -9 605 -7 c 1,29,30
 591 -27 591 -27 587 -32.5 c 128,-1,31
 583 -38 583 -38 578 -38 c 0,32,33
 552 -38 552 -38 522.5 -28 c 128,-1,34
 493 -18 493 -18 467.5 3.5 c 128,-1,35
 442 25 442 25 425 59 c 128,-1,36
 408 93 408 93 408 140 c 0,37,38
 408 163 408 163 414 182 c 128,-1,39
 420 201 420 201 430 217.5 c 128,-1,40
 440 234 440 234 451.5 247.5 c 128,-1,41
 463 261 463 261 474 273 c 1,42,43
 473 286 473 286 465.5 314.5 c 128,-1,44
 458 343 458 343 448.5 376 c 128,-1,45
 439 409 439 409 430 441.5 c 128,-1,46
 421 474 421 474 416 495 c 0,47,48
 412 499 412 499 402.5 505.5 c 128,-1,49
 393 512 393 512 380.5 518 c 128,-1,50
 368 524 368 524 353.5 528 c 128,-1,51
 339 532 339 532 325 532 c 0,52,53
 285 532 285 532 259 508 c 128,-1,54
 233 484 233 484 217.5 453 c 128,-1,55
 202 422 202 422 196 392.5 c 128,-1,56
 190 363 190 363 190 352 c 0,57,58
 190 350 190 350 191 337 c 128,-1,59
 192 324 192 324 194.5 309.5 c 128,-1,60
 197 295 197 295 201.5 283 c 128,-1,61
 206 271 206 271 214 271 c 0,62,63
 225 271 225 271 239 290 c 128,-1,64
 253 309 253 309 265.5 334 c 128,-1,65
 278 359 278 359 288 383.5 c 128,-1,66
 298 408 298 408 301 419 c 1,67,68
 320 408 320 408 347 393.5 c 128,-1,69
 374 379 374 379 390 365 c 1,70,71
 395 353 395 353 395 322 c 0,72,73
 395 308 395 308 394.5 290 c 128,-1,74
 394 272 394 272 394 249 c 0,75,76
 394 189 394 189 377.5 143.5 c 128,-1,77
 361 98 361 98 333 68 c 128,-1,78
 305 38 305 38 269.5 22.5 c 128,-1,79
 234 7 234 7 196 7 c 0,80,81
 163 7 163 7 137.5 22 c 128,-1,82
 112 37 112 37 92.5 60.5 c 128,-1,83
 73 84 73 84 59 113 c 128,-1,84
 45 142 45 142 36 170 c 128,-1,85
 27 198 27 198 22.5 222.5 c 128,-1,86
 18 247 18 247 17 261 c 0,87,88
 16 269 16 269 15.5 277 c 128,-1,89
 15 285 15 285 15 294 c 0,90,91
 15 318 15 318 18 346.5 c 128,-1,92
 21 375 21 375 26 401 c 128,-1,93
 31 427 31 427 38 448.5 c 128,-1,94
 45 470 45 470 53 481 c 1,95,96
 63 474 63 474 65.5 471 c 128,-1,97
 68 468 68 468 76 460 c 1,98,99
 74 451 74 451 66 419 c 128,-1,100
 58 387 58 387 58 339 c 0,101,102
 58 315 58 315 61 291 c 128,-1,103
 64 267 64 267 72 241 c 0,104,105
 77 223 77 223 87.5 196.5 c 128,-1,106
 98 170 98 170 114 144.5 c 128,-1,107
 130 119 130 119 152 101 c 128,-1,108
 174 83 174 83 201 83 c 256,109,110
 228 83 228 83 251.5 98.5 c 128,-1,111
 275 114 275 114 293 139 c 128,-1,112
 311 164 311 164 321.5 196 c 128,-1,113
 332 228 332 228 332 261 c 0,114,115
 329 270 329 270 322.5 271.5 c 128,-1,116
 316 273 316 273 308 284 c 1,117,118
 300 267 300 267 291 250.5 c 128,-1,119
 282 234 282 234 271 221 c 128,-1,120
 260 208 260 208 247.5 200 c 128,-1,121
 235 192 235 192 221 192 c 0,122,123
 196 192 196 192 178.5 208.5 c 128,-1,124
 161 225 161 225 149.5 247.5 c 128,-1,125
 138 270 138 270 133 293 c 128,-1,126
 128 316 128 316 128 329 c 0,127,128
 128 379 128 379 132.5 406.5 c 128,-1,129
 137 434 137 434 149 455 c 1,130,131
 147 490 147 490 132 510 c 128,-1,132
 117 530 117 530 98 539.5 c 128,-1,133
 79 549 79 549 61.5 551.5 c 128,-1,134
 44 554 44 554 38 554 c 0,135,136
 8 554 8 554 -18.5 538.5 c 128,-1,137
 -45 523 -45 523 -55 505 c 1,138,139
 -70 530 -70 530 -80.5 544 c 128,-1,140
 -91 558 -91 558 -93 562 c 1,141,142
 -70 584 -70 584 -42.5 598.5 c 128,-1,143
 -15 613 -15 613 30 613 c 0,144,145
 76 613 76 613 123 595.5 c 128,-1,146
 170 578 170 578 198 542 c 1,147,148
 212 568 212 568 246 586.5 c 128,-1,149
 280 605 280 605 318 605 c 0,150,151
 336 605 336 605 354 600.5 c 128,-1,152
 372 596 372 596 387.5 590 c 128,-1,153
 403 584 403 584 415 577 c 128,-1,154
 427 570 427 570 432 565 c 1,155,156
 439 576 439 576 452.5 584.5 c 128,-1,157
 466 593 466 593 482.5 598.5 c 128,-1,158
 499 604 499 604 518 607 c 128,-1,159
 537 610 537 610 555 610 c 0,160,161
 571 610 571 610 588.5 605 c 128,-1,162
 606 600 606 600 621 593 c 128,-1,163
 636 586 636 586 647.5 578 c 128,-1,164
 659 570 659 570 663 563 c 0,0,1
EndSplineSet
EndChar

StartChar: uni099D
Encoding: 2461 2461 52
Width: 556
GlyphClass: 2
Flags: W
AnchorPoint: "Anchor-2" 271 -100 basechar 0
AnchorPoint: "Anchor-1" 465 505 basechar 0
AnchorPoint: "Anchor-0" 465 505 basechar 0
LayerCount: 2
Fore
SplineSet
650 571 m 1,0,1
 648 567 648 567 639 546.5 c 128,-1,2
 630 526 630 526 614 500 c 1,3,4
 608 521 608 521 591 533.5 c 128,-1,5
 574 546 574 546 556 546 c 0,6,7
 526 546 526 546 516 522.5 c 128,-1,8
 506 499 506 499 506 464 c 2,9,-1
 506 81 l 2,10,11
 506 59 506 59 505.5 42 c 128,-1,12
 505 25 505 25 504 11 c 0,13,14
 501 10 501 10 490 10 c 0,15,16
 482 10 482 10 473.5 10.5 c 128,-1,17
 465 11 465 11 454 11 c 1,18,19
 451 48 451 48 451 80.5 c 128,-1,20
 451 113 451 113 446 155 c 1,21,22
 437 169 437 169 416 181 c 128,-1,23
 395 193 395 193 373 202 c 128,-1,24
 351 211 351 211 334 217 c 128,-1,25
 317 223 317 223 316 224 c 1,26,27
 316 202 316 202 315.5 183.5 c 128,-1,28
 315 165 315 165 315 149 c 0,29,30
 315 136 315 136 316 125 c 128,-1,31
 317 114 317 114 317 104 c 0,32,33
 317 71 317 71 301.5 54 c 128,-1,34
 286 37 286 37 264 37 c 0,35,36
 245 37 245 37 228 48 c 1,37,38
 199 90 199 90 162 116.5 c 128,-1,39
 125 143 125 143 92 164 c 128,-1,40
 59 185 59 185 36 204.5 c 128,-1,41
 13 224 13 224 11 252 c 0,42,43
 13 263 13 263 29 282 c 128,-1,44
 45 301 45 301 67.5 323.5 c 128,-1,45
 90 346 90 346 115.5 369.5 c 128,-1,46
 141 393 141 393 163 413 c 0,47,48
 169 419 169 419 177.5 430.5 c 128,-1,49
 186 442 186 442 194 455.5 c 128,-1,50
 202 469 202 469 208 482 c 128,-1,51
 214 495 214 495 214 503 c 2,52,-1
 214 506 l 1,53,54
 191 532 191 532 158 544.5 c 128,-1,55
 125 557 125 557 91 557 c 0,56,57
 70 557 70 557 48.5 549.5 c 128,-1,58
 27 542 27 542 8 531.5 c 128,-1,59
 -11 521 -11 521 -24.5 509.5 c 128,-1,60
 -38 498 -38 498 -44 489 c 1,61,62
 -60 515 -60 515 -70.5 535.5 c 128,-1,63
 -81 556 -81 556 -83 560 c 1,64,65
 -74 569 -74 569 -56.5 580.5 c 128,-1,66
 -39 592 -39 592 -17 601.5 c 128,-1,67
 5 611 5 611 30 617.5 c 128,-1,68
 55 624 55 624 81 624 c 0,69,70
 110 624 110 624 138.5 618 c 128,-1,71
 167 612 167 612 191.5 601.5 c 128,-1,72
 216 591 216 591 234.5 577 c 128,-1,73
 253 563 253 563 262 547 c 1,74,75
 282 580 282 580 313 595 c 128,-1,76
 344 610 344 610 375 610 c 0,77,78
 412 610 412 610 439 592 c 128,-1,79
 466 574 466 574 468 543 c 1,80,81
 482 569 482 569 501.5 589.5 c 128,-1,82
 521 610 521 610 556 610 c 0,83,84
 576 610 576 610 590.5 606 c 128,-1,85
 605 602 605 602 616 596 c 128,-1,86
 627 590 627 590 635 583 c 128,-1,87
 643 576 643 576 650 571 c 1,0,1
446 479 m 1,88,89
 442 508 442 508 422 522.5 c 128,-1,90
 402 537 402 537 379 537 c 0,91,92
 355 537 355 537 333.5 523.5 c 128,-1,93
 312 510 312 510 312 478 c 0,94,95
 312 449 312 449 314 404 c 128,-1,96
 316 359 316 359 316 321 c 0,97,98
 316 311 316 311 315.5 303 c 128,-1,99
 315 295 315 295 315 287 c 1,100,101
 330 283 330 283 349.5 277 c 128,-1,102
 369 271 369 271 388 262.5 c 128,-1,103
 407 254 407 254 423.5 244.5 c 128,-1,104
 440 235 440 235 450 223 c 1,105,106
 446 240 446 240 445 278 c 128,-1,107
 444 316 444 316 444 361 c 0,108,109
 444 394 444 394 444.5 425 c 128,-1,110
 445 456 445 456 446 479 c 1,88,89
252 423 m 1,111,112
 239 400 239 400 218 378 c 128,-1,113
 197 356 197 356 173 334.5 c 128,-1,114
 149 313 149 313 124.5 292.5 c 128,-1,115
 100 272 100 272 80 252 c 1,116,117
 103 245 103 245 127 227.5 c 128,-1,118
 151 210 151 210 174 189 c 128,-1,119
 197 168 197 168 217 146.5 c 128,-1,120
 237 125 237 125 252 109 c 1,121,-1
 252 423 l 1,111,112
EndSplineSet
EndChar

StartChar: uni099E
Encoding: 2462 2462 53
Width: 792
GlyphClass: 2
Flags: W
AnchorPoint: "Anchor-2" 468 -100 basechar 0
AnchorPoint: "Anchor-1" 500 505 basechar 0
AnchorPoint: "Anchor-0" 500 505 basechar 0
LayerCount: 2
Fore
SplineSet
884 566 m 0,0,1
 882 563 882 563 871.5 544.5 c 128,-1,2
 861 526 861 526 845 500 c 1,3,4
 837 514 837 514 820 525.5 c 128,-1,5
 803 537 803 537 786 537 c 0,6,7
 768 537 768 537 759.5 527.5 c 128,-1,8
 751 518 751 518 746.5 503.5 c 128,-1,9
 742 489 742 489 740 470 c 128,-1,10
 738 451 738 451 733 432.5 c 128,-1,11
 728 414 728 414 718 397.5 c 128,-1,12
 708 381 708 381 688 370 c 1,13,14
 712 353 712 353 724.5 324 c 128,-1,15
 737 295 737 295 737 262 c 0,16,17
 737 261 737 261 734.5 241.5 c 128,-1,18
 732 222 732 222 720 199 c 128,-1,19
 708 176 708 176 683 157 c 128,-1,20
 658 138 658 138 614 138 c 0,21,22
 613 138 613 138 597.5 143.5 c 128,-1,23
 582 149 582 149 563 161 c 128,-1,24
 544 173 544 173 526 192 c 0,25,26
 510 210 510 210 504 234 c 1,27,28
 505 227 505 227 505 221 c 2,29,-1
 505 129 l 2,30,31
 505 109 505 109 504 88 c 128,-1,32
 503 67 503 67 499 49.5 c 128,-1,33
 495 32 495 32 488.5 20.5 c 128,-1,34
 482 9 482 9 472 9 c 0,35,36
 459 9 459 9 447 26 c 128,-1,37
 435 43 435 43 429 65 c 1,38,39
 415 92 415 92 405.5 110.5 c 128,-1,40
 396 129 396 129 388 141 c 128,-1,41
 380 153 380 153 370.5 158 c 128,-1,42
 361 163 361 163 348 163 c 0,43,44
 333 163 333 163 324 146.5 c 128,-1,45
 315 130 315 130 301 109.5 c 128,-1,46
 287 89 287 89 262 72.5 c 128,-1,47
 237 56 237 56 188 56 c 0,48,49
 143 57 143 57 112 86.5 c 128,-1,50
 81 116 81 116 62 169 c 128,-1,51
 43 222 43 222 35 297 c 128,-1,52
 27 372 27 372 27 464 c 0,53,54
 27 481 27 481 28 496.5 c 128,-1,55
 29 512 29 512 32 527 c 1,56,57
 26 526 26 526 16.5 523.5 c 128,-1,58
 7 521 7 521 -3.5 518 c 128,-1,59
 -14 515 -14 515 -24 510.5 c 128,-1,60
 -34 506 -34 506 -41 500 c 1,61,62
 -57 526 -57 526 -67.5 544.5 c 128,-1,63
 -78 563 -78 563 -80 566 c 0,64,65
 -74 572 -74 572 -59.5 578.5 c 128,-1,66
 -45 585 -45 585 -27 590.5 c 128,-1,67
 -9 596 -9 596 10 600 c 128,-1,68
 29 604 29 604 45 606 c 1,69,70
 70 717 70 717 112.5 782 c 128,-1,71
 155 847 155 847 200.5 880 c 128,-1,72
 246 913 246 913 288 922.5 c 128,-1,73
 330 932 330 932 355 932 c 0,74,75
 385 932 385 932 412 926 c 128,-1,76
 439 920 439 920 460.5 910 c 128,-1,77
 482 900 482 900 496 888 c 128,-1,78
 510 876 510 876 513 863 c 1,79,-1
 498 834 l 1,80,81
 490 863 490 863 452 882.5 c 128,-1,82
 414 902 414 902 360 902 c 0,83,84
 315 902 315 902 267 886 c 0,85,86
 253 881 253 881 229.5 864.5 c 128,-1,87
 206 848 206 848 180 816.5 c 128,-1,88
 154 785 154 785 130 736 c 128,-1,89
 106 687 106 687 92 617 c 1,90,91
 98 618 98 618 106 618.5 c 128,-1,92
 114 619 114 619 125 619 c 0,93,94
 156 619 156 619 194 609.5 c 128,-1,95
 232 600 232 600 258 570 c 1,96,97
 280 602 280 602 310.5 615 c 128,-1,98
 341 628 341 628 376 630 c 0,99,100
 394 630 394 630 412.5 621 c 128,-1,101
 431 612 431 612 448 595.5 c 128,-1,102
 465 579 465 579 478.5 556 c 128,-1,103
 492 533 492 533 499 505 c 1,104,105
 518 547 518 547 547 572 c 128,-1,106
 576 597 576 597 618 597 c 0,107,108
 640 597 640 597 653.5 593.5 c 128,-1,109
 667 590 667 590 675.5 584.5 c 128,-1,110
 684 579 684 579 689.5 572 c 128,-1,111
 695 565 695 565 701 558 c 1,112,113
 710 575 710 575 731 592.5 c 128,-1,114
 752 610 752 610 787 610 c 0,115,116
 807 610 807 610 821 607 c 128,-1,117
 835 604 835 604 846 598 c 128,-1,118
 857 592 857 592 865.5 584 c 128,-1,119
 874 576 874 576 884 566 c 0,0,1
442 149 m 1,120,121
 443 165 443 165 443.5 179.5 c 128,-1,122
 444 194 444 194 444 208 c 0,123,124
 444 237 444 237 442 268.5 c 128,-1,125
 440 300 440 300 438 345 c 0,126,127
 439 355 439 355 439.5 366 c 128,-1,128
 440 377 440 377 440 388 c 0,129,130
 440 419 440 419 436 449.5 c 128,-1,131
 432 480 432 480 423.5 504 c 128,-1,132
 415 528 415 528 402 542.5 c 128,-1,133
 389 557 389 557 370 557 c 0,134,135
 361 557 361 557 347.5 555 c 128,-1,136
 334 553 334 553 322 549 c 128,-1,137
 310 545 310 545 301 538.5 c 128,-1,138
 292 532 292 532 291 523 c 0,139,140
 302 489 302 489 310 454 c 128,-1,141
 318 419 318 419 318 368 c 0,142,143
 318 343 318 343 311 320 c 128,-1,144
 304 297 304 297 292 279 c 128,-1,145
 280 261 280 261 265 250.5 c 128,-1,146
 250 240 250 240 234 240 c 0,147,148
 220 240 220 240 207 249.5 c 128,-1,149
 194 259 194 259 183.5 274 c 128,-1,150
 173 289 173 289 167 308 c 128,-1,151
 161 327 161 327 161 345 c 0,152,153
 161 348 161 348 161.5 350.5 c 128,-1,154
 162 353 162 353 162 355 c 0,155,156
 167 391 167 391 173.5 414.5 c 128,-1,157
 180 438 180 438 187.5 455.5 c 128,-1,158
 195 473 195 473 203.5 486 c 128,-1,159
 212 499 212 499 221 513 c 1,160,161
 216 524 216 524 205.5 531 c 128,-1,162
 195 538 195 538 181.5 542.5 c 128,-1,163
 168 547 168 547 153 548.5 c 128,-1,164
 138 550 138 550 125 550 c 0,165,166
 111 550 111 550 99 549 c 128,-1,167
 87 548 87 548 81 546 c 1,168,169
 78 522 78 522 78 489 c 2,170,-1
 78 434 l 2,171,172
 78 389 78 389 80.5 334 c 128,-1,173
 83 279 83 279 95.5 231 c 128,-1,174
 108 183 108 183 134.5 150.5 c 128,-1,175
 161 118 161 118 209 118 c 0,176,177
 233 118 233 118 249.5 135 c 128,-1,178
 266 152 266 152 280 172.5 c 128,-1,179
 294 193 294 193 308 210 c 128,-1,180
 322 227 322 227 341 227 c 0,181,182
 378 227 378 227 400 208.5 c 128,-1,183
 422 190 422 190 431 170 c 2,184,-1
 442 149 l 1,120,121
685 479 m 0,185,186
 685 492 685 492 679.5 503 c 128,-1,187
 674 514 674 514 665 521 c 128,-1,188
 656 528 656 528 645.5 532 c 128,-1,189
 635 536 635 536 625 536 c 0,190,191
 607 536 607 536 587.5 519 c 128,-1,192
 568 502 568 502 551.5 479 c 128,-1,193
 535 456 535 456 524.5 433.5 c 128,-1,194
 514 411 514 411 514 400 c 0,195,196
 514 352 514 352 527 316.5 c 128,-1,197
 540 281 540 281 556.5 258 c 128,-1,198
 573 235 573 235 588 223.5 c 128,-1,199
 603 212 603 212 608 212 c 0,200,201
 618 212 618 212 630.5 214.5 c 128,-1,202
 643 217 643 217 654.5 223 c 128,-1,203
 666 229 666 229 674 239.5 c 128,-1,204
 682 250 682 250 682 266 c 0,205,206
 682 279 682 279 677 291.5 c 128,-1,207
 672 304 672 304 665.5 313.5 c 128,-1,208
 659 323 659 323 652.5 328.5 c 128,-1,209
 646 334 646 334 643 334 c 256,210,211
 640 334 640 334 636 328.5 c 128,-1,212
 632 323 632 323 627.5 317 c 128,-1,213
 623 311 623 311 618.5 305.5 c 128,-1,214
 614 300 614 300 610 300 c 256,215,216
 606 300 606 300 597.5 303.5 c 128,-1,217
 589 307 589 307 580 313.5 c 128,-1,218
 571 320 571 320 564.5 331 c 128,-1,219
 558 342 558 342 558 357 c 0,220,221
 558 367 558 367 562 378 c 128,-1,222
 566 389 566 389 573.5 398 c 128,-1,223
 581 407 581 407 590.5 413 c 128,-1,224
 600 419 600 419 611 419 c 0,225,226
 619 419 619 419 624 418 c 128,-1,227
 629 417 629 417 634 412 c 1,228,229
 643 415 643 415 652 422 c 128,-1,230
 661 429 661 429 668.5 438.5 c 128,-1,231
 676 448 676 448 680.5 458.5 c 128,-1,232
 685 469 685 469 685 479 c 0,185,186
EndSplineSet
EndChar

StartChar: uni099F
Encoding: 2463 2463 54
Width: 376
GlyphClass: 2
Flags: W
AnchorPoint: "Anchor-2" 268 -73 basechar 0
AnchorPoint: "Anchor-1" 70 505 basechar 0
AnchorPoint: "Anchor-0" 300 505 basechar 0
LayerCount: 2
Fore
SplineSet
132 560 m 1,0,1
 146 578 146 578 163 608 c 128,-1,2
 180 638 180 638 180 680 c 0,3,4
 180 695 180 695 175.5 710.5 c 128,-1,5
 171 726 171 726 161 739 c 128,-1,6
 151 752 151 752 136.5 760 c 128,-1,7
 122 768 122 768 102 768 c 0,8,9
 90 768 90 768 78 765 c 0,10,11
 65 763 65 763 50.5 755.5 c 128,-1,12
 36 748 36 748 19.5 739.5 c 128,-1,13
 3 731 3 731 -16.5 724 c 128,-1,14
 -36 717 -36 717 -58 717 c 0,15,16
 -87 717 -87 717 -113 726.5 c 128,-1,17
 -139 736 -139 736 -159.5 756.5 c 128,-1,18
 -180 777 -180 777 -192 808.5 c 128,-1,19
 -204 840 -204 840 -204 884 c 0,20,21
 -204 900 -204 900 -200.5 918.5 c 128,-1,22
 -197 937 -197 937 -190 955 c 128,-1,23
 -183 973 -183 973 -173.5 989 c 128,-1,24
 -164 1005 -164 1005 -152 1017 c 1,25,26
 -162 994 -162 994 -166 965.5 c 128,-1,27
 -170 937 -170 937 -170 902 c 0,28,29
 -170 885 -170 885 -167.5 863 c 128,-1,30
 -165 841 -165 841 -153.5 821 c 128,-1,31
 -142 801 -142 801 -119 787 c 128,-1,32
 -96 773 -96 773 -55 773 c 0,33,34
 -39 773 -39 773 -22 779.5 c 128,-1,35
 -5 786 -5 786 11.5 794.5 c 128,-1,36
 28 803 28 803 43.5 811 c 128,-1,37
 59 819 59 819 72 822 c 0,38,39
 82 824 82 824 91.5 826 c 128,-1,40
 101 828 101 828 111 828 c 0,41,42
 136 828 136 828 158.5 818 c 128,-1,43
 181 808 181 808 198 790 c 128,-1,44
 215 772 215 772 225 746.5 c 128,-1,45
 235 721 235 721 235 691 c 0,46,47
 235 625 235 625 208 597 c 1,48,49
 227 605 227 605 247 609.5 c 128,-1,50
 267 614 267 614 296 614 c 0,51,52
 315 614 315 614 339 609.5 c 128,-1,53
 363 605 363 605 386 597.5 c 128,-1,54
 409 590 409 590 428 581 c 128,-1,55
 447 572 447 572 457 562 c 1,56,57
 455 557 455 557 444.5 541 c 128,-1,58
 434 525 434 525 419 500 c 1,59,60
 415 506 415 506 405.5 515 c 128,-1,61
 396 524 396 524 381.5 532 c 128,-1,62
 367 540 367 540 348 546 c 128,-1,63
 329 552 329 552 307 552 c 0,64,65
 270 552 270 552 242.5 544 c 128,-1,66
 215 536 215 536 195.5 522.5 c 128,-1,67
 176 509 176 509 163 491 c 128,-1,68
 150 473 150 473 142 452 c 0,69,70
 137 441 137 441 134.5 419.5 c 128,-1,71
 132 398 132 398 130 369 c 128,-1,72
 128 340 128 340 127.5 305 c 128,-1,73
 127 270 127 270 127 232 c 0,74,75
 127 203 127 203 128 175.5 c 128,-1,76
 129 148 129 148 135 126.5 c 128,-1,77
 141 105 141 105 152.5 92 c 128,-1,78
 164 79 164 79 185 79 c 0,79,80
 205 79 205 79 220 91 c 128,-1,81
 235 103 235 103 245 120.5 c 128,-1,82
 255 138 255 138 260 157.5 c 128,-1,83
 265 177 265 177 265 192 c 2,84,-1
 265 201 l 1,85,86
 256 197 256 197 246.5 194.5 c 128,-1,87
 237 192 237 192 228 192 c 0,88,89
 202 192 202 192 188 211.5 c 128,-1,90
 174 231 174 231 174 261 c 0,91,92
 174 307 174 307 202 332.5 c 128,-1,93
 230 358 230 358 268 358 c 0,94,95
 290 357 290 357 305 346 c 128,-1,96
 320 335 320 335 328 317.5 c 128,-1,97
 336 300 336 300 339.5 277.5 c 128,-1,98
 343 255 343 255 343 231 c 0,99,100
 343 190 343 190 332.5 148.5 c 128,-1,101
 322 107 322 107 301.5 73.5 c 128,-1,102
 281 40 281 40 250 19 c 128,-1,103
 219 -2 219 -2 177 -2 c 0,104,105
 147 -2 147 -2 117 14 c 128,-1,106
 87 30 87 30 71 63 c 0,107,108
 66 73 66 73 63 93 c 128,-1,109
 60 113 60 113 58 139.5 c 128,-1,110
 56 166 56 166 55.5 197 c 128,-1,111
 55 228 55 228 55 258 c 0,112,113
 55 335 55 335 58.5 396 c 128,-1,114
 62 457 62 457 66 517 c 0,115,116
 66 537 66 537 53.5 543.5 c 128,-1,117
 41 550 41 550 32 550 c 0,118,119
 20 550 20 550 1.5 539 c 128,-1,120
 -17 528 -17 528 -34 506 c 1,121,122
 -50 531 -50 531 -60 544.5 c 128,-1,123
 -70 558 -70 558 -73 562 c 1,124,125
 -53 582 -53 582 -29 595.5 c 128,-1,126
 -5 609 -5 609 21 609 c 0,127,128
 31 609 31 609 46 607.5 c 128,-1,129
 61 606 61 606 77 600.5 c 128,-1,130
 93 595 93 595 107.5 585.5 c 128,-1,131
 122 576 122 576 132 560 c 1,0,1
EndSplineSet
EndChar

StartChar: uni09A0
Encoding: 2464 2464 55
Width: 314
GlyphClass: 2
Flags: W
AnchorPoint: "Anchor-2" 200 -100 basechar 0
AnchorPoint: "Anchor-1" 231 505 basechar 0
AnchorPoint: "Anchor-0" 246 505 basechar 0
LayerCount: 2
Fore
SplineSet
407 562 m 1,0,1
 404 558 404 558 394 544.5 c 128,-1,2
 384 531 384 531 369 507 c 1,3,4
 361 521 361 521 343 531 c 128,-1,5
 325 541 325 541 308 541 c 0,6,7
 302 541 302 541 293 538.5 c 128,-1,8
 284 536 284 536 276 527.5 c 128,-1,9
 268 519 268 519 262 502.5 c 128,-1,10
 256 486 256 486 255 459 c 1,11,12
 272 411 272 411 279.5 363.5 c 128,-1,13
 287 316 287 316 287 268 c 0,14,15
 287 215 287 215 280.5 166.5 c 128,-1,16
 274 118 274 118 257 80.5 c 128,-1,17
 240 43 240 43 211.5 21 c 128,-1,18
 183 -1 183 -1 138 -1 c 0,19,20
 86 -1 86 -1 51 46 c 128,-1,21
 16 93 16 93 16 177 c 0,22,23
 16 227 16 227 27.5 257.5 c 128,-1,24
 39 288 39 288 54.5 309 c 128,-1,25
 70 330 70 330 86 346.5 c 128,-1,26
 102 363 102 363 111 385 c 0,27,28
 119 404 119 404 123.5 418 c 128,-1,29
 128 432 128 432 128 447 c 0,30,31
 128 463 128 463 114.5 481 c 128,-1,32
 101 499 101 499 83 513.5 c 128,-1,33
 65 528 65 528 46 537.5 c 128,-1,34
 27 547 27 547 17 547 c 0,35,36
 -5 547 -5 547 -25.5 535.5 c 128,-1,37
 -46 524 -46 524 -55 507 c 1,38,39
 -70 531 -70 531 -80 544.5 c 128,-1,40
 -90 558 -90 558 -93 562 c 1,41,42
 -73 582 -73 582 -50.5 595 c 128,-1,43
 -28 608 -28 608 1 608 c 0,44,45
 33 608 33 608 57 595 c 128,-1,46
 81 582 81 582 92 572 c 0,47,48
 98 566 98 566 105.5 559 c 128,-1,49
 113 552 113 552 120.5 545.5 c 128,-1,50
 128 539 128 539 135 533.5 c 128,-1,51
 142 528 142 528 146 525 c 1,52,53
 142 535 142 535 128 558.5 c 128,-1,54
 114 582 114 582 94 609 c 0,55,56
 71 639 71 639 48.5 678 c 128,-1,57
 26 717 26 717 8 765 c 128,-1,58
 -10 813 -10 813 -21 870.5 c 128,-1,59
 -32 928 -32 928 -32 996 c 0,60,61
 -32 1041 -32 1041 -19.5 1073.5 c 128,-1,62
 -7 1106 -7 1106 14 1127 c 128,-1,63
 35 1148 35 1148 62.5 1158 c 128,-1,64
 90 1168 90 1168 121 1168 c 0,65,66
 148 1168 148 1168 164.5 1156 c 128,-1,67
 181 1144 181 1144 190 1129 c 128,-1,68
 199 1114 199 1114 202 1100.5 c 128,-1,69
 205 1087 205 1087 205 1083 c 0,70,71
 205 1054 205 1054 196.5 1031.5 c 128,-1,72
 188 1009 188 1009 172 988 c 1,73,74
 175 999 175 999 177 1014 c 128,-1,75
 179 1029 179 1029 179 1044 c 0,76,77
 179 1089 179 1089 158 1112 c 128,-1,78
 137 1135 137 1135 105 1135 c 0,79,80
 90 1135 90 1135 73 1128.5 c 128,-1,81
 56 1122 56 1122 42 1103.5 c 128,-1,82
 28 1085 28 1085 18.5 1052.5 c 128,-1,83
 9 1020 9 1020 9 969 c 0,84,85
 9 903 9 903 36.5 837.5 c 128,-1,86
 64 772 64 772 100 715 c 128,-1,87
 136 658 136 658 170.5 613.5 c 128,-1,88
 205 569 205 569 219 545 c 1,89,90
 232 580 232 580 259.5 593.5 c 128,-1,91
 287 607 287 607 322 607 c 0,92,93
 342 607 342 607 354 603.5 c 128,-1,94
 366 600 366 600 375 594 c 128,-1,95
 384 588 384 588 391 579.5 c 128,-1,96
 398 571 398 571 407 562 c 1,0,1
213 225 m 0,97,98
 215 250 215 250 216.5 272 c 128,-1,99
 218 294 218 294 218 313 c 0,100,101
 218 408 218 408 184 438 c 1,102,103
 185 432 185 432 185.5 426 c 128,-1,104
 186 420 186 420 186 415 c 0,105,106
 186 389 186 389 178 369.5 c 128,-1,107
 170 350 170 350 161 336 c 0,108,109
 146 312 146 312 131 298.5 c 128,-1,110
 116 285 116 285 105 269.5 c 128,-1,111
 94 254 94 254 87 230.5 c 128,-1,112
 80 207 80 207 80 165 c 0,113,114
 80 128 80 128 93 100.5 c 128,-1,115
 106 73 106 73 140 73 c 0,116,117
 165 73 165 73 178 84.5 c 128,-1,118
 191 96 191 96 197.5 116.5 c 128,-1,119
 204 137 204 137 206.5 165 c 128,-1,120
 209 193 209 193 213 225 c 0,97,98
EndSplineSet
EndChar

StartChar: uni09A1
Encoding: 2465 2465 56
Width: 526
GlyphClass: 2
Flags: W
AnchorPoint: "Anchor-3" 67 -55 basechar 0
AnchorPoint: "Anchor-2" 400 -100 basechar 0
AnchorPoint: "Anchor-1" 277 505 basechar 0
AnchorPoint: "Anchor-0" 273 505 basechar 0
LayerCount: 2
Fore
SplineSet
597 562 m 1,0,1
 595 557 595 557 584.5 541 c 128,-1,2
 574 525 574 525 559 500 c 1,3,4
 555 506 555 506 545.5 515 c 128,-1,5
 536 524 536 524 521.5 532 c 128,-1,6
 507 540 507 540 488 546 c 128,-1,7
 469 552 469 552 447 552 c 0,8,9
 427 552 427 552 406.5 546.5 c 128,-1,10
 386 541 386 541 367.5 531.5 c 128,-1,11
 349 522 349 522 333 509.5 c 128,-1,12
 317 497 317 497 305 484 c 1,13,14
 299 462 299 462 296.5 441.5 c 128,-1,15
 294 421 294 421 294 400 c 2,16,-1
 294 378 l 2,17,18
 294 359 294 359 297.5 341.5 c 128,-1,19
 301 324 301 324 315 324 c 0,20,21
 326 324 326 324 338 332 c 128,-1,22
 350 340 350 340 363.5 353 c 128,-1,23
 377 366 377 366 392.5 382 c 128,-1,24
 408 398 408 398 425 414 c 1,25,26
 440 419 440 419 448 419 c 0,27,28
 471 419 471 419 486 400 c 128,-1,29
 501 381 501 381 501 339 c 0,30,31
 501 318 501 318 498.5 284.5 c 128,-1,32
 496 251 496 251 488.5 213 c 128,-1,33
 481 175 481 175 467 137 c 128,-1,34
 453 99 453 99 429.5 68.5 c 128,-1,35
 406 38 406 38 371.5 18.5 c 128,-1,36
 337 -1 337 -1 290 -1 c 0,37,38
 237 -1 237 -1 198 23.5 c 128,-1,39
 159 48 159 48 131 87 c 128,-1,40
 103 126 103 126 84 175.5 c 128,-1,41
 65 225 65 225 52.5 275.5 c 128,-1,42
 40 326 40 326 33.5 372.5 c 128,-1,43
 27 419 27 419 23 453 c 1,44,45
 34 460 34 460 41.5 465 c 128,-1,46
 49 470 49 470 57 478 c 1,47,48
 74 395 74 395 95 325 c 128,-1,49
 116 255 116 255 144.5 204 c 128,-1,50
 173 153 173 153 210 124 c 128,-1,51
 247 95 247 95 295 95 c 0,52,53
 316 95 316 95 338 106 c 128,-1,54
 360 117 360 117 379 143 c 128,-1,55
 398 169 398 169 412 212 c 128,-1,56
 426 255 426 255 432 320 c 1,57,58
 421 311 421 311 405.5 295.5 c 128,-1,59
 390 280 390 280 370.5 265.5 c 128,-1,60
 351 251 351 251 327 240.5 c 128,-1,61
 303 230 303 230 274 230 c 0,62,63
 263 230 263 230 254.5 237.5 c 128,-1,64
 246 245 246 245 240 255.5 c 128,-1,65
 234 266 234 266 230 278.5 c 128,-1,66
 226 291 226 291 224 301 c 2,67,-1
 224 366 l 2,68,69
 224 394 224 394 223 422 c 128,-1,70
 222 450 222 450 218 472 c 0,71,72
 215 488 215 488 203 502 c 128,-1,73
 191 516 191 516 173.5 526.5 c 128,-1,74
 156 537 156 537 135.5 543.5 c 128,-1,75
 115 550 115 550 96 550 c 2,76,-1
 78 550 l 2,77,78
 55 550 55 550 35 544.5 c 128,-1,79
 15 539 15 539 -0.5 531 c 128,-1,80
 -16 523 -16 523 -26.5 514.5 c 128,-1,81
 -37 506 -37 506 -41 500 c 1,82,83
 -56 525 -56 525 -66.5 541 c 128,-1,84
 -77 557 -77 557 -79 562 c 1,85,86
 -69 572 -69 572 -50 581 c 128,-1,87
 -31 590 -31 590 -8.5 597.5 c 128,-1,88
 14 605 14 605 38 609.5 c 128,-1,89
 62 614 62 614 82 614 c 0,90,91
 101 614 101 614 126 610 c 128,-1,92
 151 606 151 606 177 598 c 128,-1,93
 203 590 203 590 227.5 578 c 128,-1,94
 252 566 252 566 270 550 c 1,95,96
 285 566 285 566 305.5 578 c 128,-1,97
 326 590 326 590 348.5 598 c 128,-1,98
 371 606 371 606 393.5 610 c 128,-1,99
 416 614 416 614 436 614 c 256,100,101
 456 614 456 614 480 609.5 c 128,-1,102
 504 605 504 605 526.5 597.5 c 128,-1,103
 549 590 549 590 568 581 c 128,-1,104
 587 572 587 572 597 562 c 1,0,1
EndSplineSet
EndChar

StartChar: uni09A2
Encoding: 2466 2466 57
Width: 376
GlyphClass: 2
Flags: W
AnchorPoint: "Anchor-3" 19 -51 basechar 0
AnchorPoint: "Anchor-2" 277 -124 basechar 0
AnchorPoint: "Anchor-1" 237 505 basechar 0
AnchorPoint: "Anchor-0" 231 505 basechar 0
LayerCount: 2
Fore
SplineSet
467 562 m 1,0,1
 465 557 465 557 454.5 541 c 128,-1,2
 444 525 444 525 429 500 c 1,3,4
 425 506 425 506 415.5 515 c 128,-1,5
 406 524 406 524 391.5 532 c 128,-1,6
 377 540 377 540 358 546 c 128,-1,7
 339 552 339 552 317 552 c 0,8,9
 249 552 249 552 211.5 529 c 128,-1,10
 174 506 174 506 156 464.5 c 128,-1,11
 138 423 138 423 134.5 364 c 128,-1,12
 131 305 131 305 131 233 c 0,13,14
 131 203 131 203 132.5 175.5 c 128,-1,15
 134 148 134 148 140 126.5 c 128,-1,16
 146 105 146 105 159 92 c 128,-1,17
 172 79 172 79 195 79 c 0,18,19
 214 79 214 79 227.5 90.5 c 128,-1,20
 241 102 241 102 249.5 119 c 128,-1,21
 258 136 258 136 262 155 c 128,-1,22
 266 174 266 174 266 189 c 0,23,24
 266 192 266 192 265.5 195 c 128,-1,25
 265 198 265 198 265 201 c 1,26,27
 256 197 256 197 246.5 194.5 c 128,-1,28
 237 192 237 192 228 192 c 0,29,30
 202 192 202 192 188 211.5 c 128,-1,31
 174 231 174 231 174 261 c 0,32,33
 174 307 174 307 202 332.5 c 128,-1,34
 230 358 230 358 268 358 c 0,35,36
 292 356 292 356 307 344 c 128,-1,37
 322 332 322 332 330.5 312.5 c 128,-1,38
 339 293 339 293 341.5 269 c 128,-1,39
 344 245 344 245 344 219 c 0,40,41
 344 178 344 178 335 138.5 c 128,-1,42
 326 99 326 99 307 67.5 c 128,-1,43
 288 36 288 36 258 17 c 128,-1,44
 228 -2 228 -2 187 -2 c 0,45,46
 159 -2 159 -2 126.5 13.5 c 128,-1,47
 94 29 94 29 76 61 c 0,48,49
 64 82 64 82 59.5 121 c 128,-1,50
 55 160 55 160 55 205 c 0,51,52
 55 257 55 257 57.5 299 c 128,-1,53
 60 341 60 341 63.5 378 c 128,-1,54
 67 415 67 415 70.5 448.5 c 128,-1,55
 74 482 74 482 76 517 c 0,56,57
 76 537 76 537 63.5 543.5 c 128,-1,58
 51 550 51 550 42 550 c 0,59,60
 30 550 30 550 11.5 539 c 128,-1,61
 -7 528 -7 528 -24 506 c 1,62,63
 -40 531 -40 531 -50 544.5 c 128,-1,64
 -60 558 -60 558 -63 562 c 1,65,66
 -43 582 -43 582 -19 595.5 c 128,-1,67
 5 609 5 609 31 609 c 0,68,69
 52 609 52 609 78 599 c 128,-1,70
 104 589 104 589 126 560 c 1,71,72
 145 575 145 575 170 585.5 c 128,-1,73
 195 596 195 596 220.5 602 c 128,-1,74
 246 608 246 608 269 611 c 128,-1,75
 292 614 292 614 306 614 c 0,76,77
 325 614 325 614 349 609.5 c 128,-1,78
 373 605 373 605 396 597.5 c 128,-1,79
 419 590 419 590 438 581 c 128,-1,80
 457 572 457 572 467 562 c 1,0,1
EndSplineSet
EndChar

StartChar: uni09A3
Encoding: 2467 2467 58
Width: 424
GlyphClass: 2
Flags: W
AnchorPoint: "Anchor-2" 341 -141 basechar 0
AnchorPoint: "Anchor-1" 321 505 basechar 0
AnchorPoint: "Anchor-0" 325 505 basechar 0
LayerCount: 2
Fore
SplineSet
494 562 m 1,0,1
 492 557 492 557 481.5 541 c 128,-1,2
 471 525 471 525 456 500 c 1,3,4
 449 511 449 511 431.5 521 c 128,-1,5
 414 531 414 531 396 531 c 0,6,7
 377 531 377 531 365.5 516 c 128,-1,8
 354 501 354 501 348 475.5 c 128,-1,9
 342 450 342 450 340.5 416.5 c 128,-1,10
 339 383 339 383 339 346 c 0,11,12
 339 322 339 322 339.5 297.5 c 128,-1,13
 340 273 340 273 340 249 c 0,14,15
 340 232 340 232 339.5 214.5 c 128,-1,16
 339 197 339 197 339 180 c 0,17,18
 339 172 339 172 339.5 163.5 c 128,-1,19
 340 155 340 155 340 147 c 2,20,-1
 342 0 l 1,21,22
 325 -3 325 -3 303 -3 c 2,23,-1
 291 -3 l 2,24,25
 283 -3 283 -3 278 -2 c 1,26,27
 277 26 277 26 276.5 66 c 128,-1,28
 276 106 276 106 276 151 c 2,29,-1
 276 244 l 2,30,31
 276 327 276 327 274 383.5 c 128,-1,32
 272 440 272 440 265 475 c 128,-1,33
 258 510 258 510 244.5 525.5 c 128,-1,34
 231 541 231 541 207 541 c 0,35,36
 192 541 192 541 179.5 527 c 128,-1,37
 167 513 167 513 163 482 c 1,38,39
 180 465 180 465 188 438 c 128,-1,40
 196 411 196 411 196 383 c 0,41,42
 196 366 196 366 193.5 347 c 128,-1,43
 191 328 191 328 183.5 312.5 c 128,-1,44
 176 297 176 297 162 286.5 c 128,-1,45
 148 276 148 276 125 276 c 0,46,47
 106 276 106 276 94 288.5 c 128,-1,48
 82 301 82 301 75 319 c 128,-1,49
 68 337 68 337 65.5 357 c 128,-1,50
 63 377 63 377 63 392 c 0,51,52
 63 429 63 429 71.5 466.5 c 128,-1,53
 80 504 80 504 97 533.5 c 128,-1,54
 114 563 114 563 139 581.5 c 128,-1,55
 164 600 164 600 197 600 c 0,56,57
 217 600 217 600 234.5 591.5 c 128,-1,58
 252 583 252 583 263 562 c 1,59,60
 263 626 263 626 267.5 652 c 128,-1,61
 272 678 272 678 288 678 c 0,62,63
 298 678 298 678 303.5 665.5 c 128,-1,64
 309 653 309 653 309 632 c 0,65,66
 308 627 308 627 308 620 c 2,67,-1
 308 612 l 2,68,69
 308 607 308 607 308.5 604.5 c 128,-1,70
 309 602 309 602 309.5 596.5 c 128,-1,71
 310 591 310 591 311 582 c 128,-1,72
 312 573 312 573 313 556 c 1,73,74
 328 588 328 588 354.5 597.5 c 128,-1,75
 381 607 381 607 409 607 c 0,76,77
 442 607 442 607 462 590.5 c 128,-1,78
 482 574 482 574 494 562 c 1,0,1
EndSplineSet
EndChar

StartChar: uni09A4
Encoding: 2468 2468 59
Width: 633
GlyphClass: 2
Flags: W
AnchorPoint: "Anchor-2" 446 -100 basechar 0
AnchorPoint: "Anchor-1" 436 505 basechar 0
AnchorPoint: "Anchor-0" 438 505 basechar 0
LayerCount: 2
Fore
SplineSet
737 567 m 1,0,1
 734 564 734 564 725 556 c 128,-1,2
 716 548 716 548 704.5 538.5 c 128,-1,3
 693 529 693 529 681 518.5 c 128,-1,4
 669 508 669 508 659 500 c 1,5,6
 649 528 649 528 631 528 c 0,7,8
 620 528 620 528 609.5 517 c 128,-1,9
 599 506 599 506 589 489 c 1,10,11
 594 464 594 464 594 412 c 0,12,13
 594 399 594 399 592 364.5 c 128,-1,14
 590 330 590 330 582.5 285.5 c 128,-1,15
 575 241 575 241 559.5 192.5 c 128,-1,16
 544 144 544 144 517 103.5 c 128,-1,17
 490 63 490 63 449 36.5 c 128,-1,18
 408 10 408 10 349 10 c 0,19,20
 314 10 314 10 286 19.5 c 128,-1,21
 258 29 258 29 234.5 44.5 c 128,-1,22
 211 60 211 60 190.5 79.5 c 128,-1,23
 170 99 170 99 150 120 c 0,24,25
 123 148 123 148 103.5 193 c 128,-1,26
 84 238 84 238 71.5 289 c 128,-1,27
 59 340 59 340 53.5 393 c 128,-1,28
 48 446 48 446 48 490 c 0,29,30
 48 501 48 501 48.5 511.5 c 128,-1,31
 49 522 49 522 50 532 c 1,32,33
 44 531 44 531 31.5 528 c 128,-1,34
 19 525 19 525 5 520.5 c 128,-1,35
 -9 516 -9 516 -21.5 511 c 128,-1,36
 -34 506 -34 506 -41 500 c 1,37,38
 -57 526 -57 526 -67.5 544.5 c 128,-1,39
 -78 563 -78 563 -80 566 c 0,40,41
 -74 572 -74 572 -60.5 578.5 c 128,-1,42
 -47 585 -47 585 -30 590.5 c 128,-1,43
 -13 596 -13 596 5.5 600.5 c 128,-1,44
 24 605 24 605 40 607 c 1,45,46
 41 650 41 650 47 700.5 c 128,-1,47
 53 751 53 751 70.5 793.5 c 128,-1,48
 88 836 88 836 119.5 864.5 c 128,-1,49
 151 893 151 893 204 893 c 0,50,51
 212 893 212 893 229.5 888 c 128,-1,52
 247 883 247 883 267 869 c 128,-1,53
 287 855 287 855 305.5 829.5 c 128,-1,54
 324 804 324 804 334 763 c 1,55,-1
 319 747 l 1,56,57
 312 771 312 771 299 792 c 128,-1,58
 286 813 286 813 269.5 828 c 128,-1,59
 253 843 253 843 234 852 c 128,-1,60
 215 861 215 861 197 861 c 0,61,62
 176 861 176 861 157 847 c 128,-1,63
 138 833 138 833 124.5 809.5 c 128,-1,64
 111 786 111 786 103 756 c 128,-1,65
 95 726 95 726 95 693 c 0,66,67
 95 659 95 659 93.5 617.5 c 128,-1,68
 92 576 92 576 92 528 c 256,69,70
 92 480 92 480 95 430 c 128,-1,71
 98 380 98 380 107.5 334 c 128,-1,72
 117 288 117 288 134.5 248 c 128,-1,73
 152 208 152 208 180 178 c 0,74,75
 196 161 196 161 212.5 144.5 c 128,-1,76
 229 128 229 128 248 115 c 128,-1,77
 267 102 267 102 290.5 94 c 128,-1,78
 314 86 314 86 343 86 c 0,79,80
 397 86 397 86 432 122 c 128,-1,81
 467 158 467 158 487.5 211.5 c 128,-1,82
 508 265 508 265 516 325 c 128,-1,83
 524 385 524 385 524 433 c 0,84,85
 524 455 524 455 520.5 476 c 128,-1,86
 517 497 517 497 507 514 c 128,-1,87
 497 531 497 531 480 543 c 128,-1,88
 463 555 463 555 436 560 c 0,89,90
 434 560 434 560 433.5 560.5 c 128,-1,91
 433 561 433 561 431 561 c 0,92,93
 424 561 424 561 414 557 c 128,-1,94
 404 553 404 553 395 546 c 128,-1,95
 386 539 386 539 379 530 c 128,-1,96
 372 521 372 521 371 511 c 1,97,98
 382 477 382 477 390 437 c 128,-1,99
 398 397 398 397 398 346 c 0,100,101
 398 321 398 321 391 298 c 128,-1,102
 384 275 384 275 372 257 c 128,-1,103
 360 239 360 239 345 228.5 c 128,-1,104
 330 218 330 218 314 218 c 0,105,106
 300 218 300 218 287 227.5 c 128,-1,107
 274 237 274 237 263.5 252 c 128,-1,108
 253 267 253 267 247 286 c 128,-1,109
 241 305 241 305 241 323 c 0,110,111
 241 326 241 326 241.5 328.5 c 128,-1,112
 242 331 242 331 242 333 c 0,113,114
 247 369 247 369 253.5 394 c 128,-1,115
 260 419 260 419 267.5 437.5 c 128,-1,116
 275 456 275 456 283.5 470.5 c 128,-1,117
 292 485 292 485 301 500 c 0,118,119
 310 513 310 513 310 526 c 0,120,121
 310 541 310 541 299 551.5 c 128,-1,122
 288 562 288 562 271 562 c 0,123,124
 243 562 243 562 233 549.5 c 128,-1,125
 223 537 223 537 219 516.5 c 128,-1,126
 215 496 215 496 212 471 c 128,-1,127
 209 446 209 446 196 422 c 0,128,129
 188 408 188 408 178.5 397 c 128,-1,130
 169 386 169 386 156 386 c 0,131,132
 139 386 139 386 133.5 399 c 128,-1,133
 128 412 128 412 128 431 c 0,134,135
 128 480 128 480 140 515.5 c 128,-1,136
 152 551 152 551 172 574 c 128,-1,137
 192 597 192 597 217 608 c 128,-1,138
 242 619 242 619 269 619 c 0,139,140
 294 619 294 619 314 608 c 128,-1,141
 334 597 334 597 344 575 c 1,142,143
 354 595 354 595 382.5 609.5 c 128,-1,144
 411 624 411 624 444 624 c 0,145,146
 478 624 478 624 507 605.5 c 128,-1,147
 536 587 536 587 548 563 c 1,148,149
 562 585 562 585 580.5 598 c 128,-1,150
 599 611 599 611 628 611 c 256,151,152
 657 611 657 611 687 598 c 128,-1,153
 717 585 717 585 737 567 c 1,0,1
EndSplineSet
EndChar

StartChar: uni09A5
Encoding: 2469 2469 60
Width: 478
GlyphClass: 2
Flags: W
AnchorPoint: "Anchor-2" 383 -132 basechar 0
AnchorPoint: "Anchor-1" 421 505 basechar 0
AnchorPoint: "Anchor-0" 421 505 basechar 0
LayerCount: 2
Fore
SplineSet
558 561 m 0,0,1
 556 559 556 559 550 544.5 c 128,-1,2
 544 530 544 530 528 505 c 1,3,4
 520 522 520 522 501.5 531.5 c 128,-1,5
 483 541 483 541 466 541 c 0,6,7
 435 541 435 541 429 519 c 0,8,9
 425 505 425 505 422 482 c 128,-1,10
 419 459 419 459 417.5 433.5 c 128,-1,11
 416 408 416 408 415.5 383.5 c 128,-1,12
 415 359 415 359 415 341 c 0,13,14
 415 293 415 293 417 246.5 c 128,-1,15
 419 200 419 200 419 150 c 0,16,17
 419 129 419 129 418 102.5 c 128,-1,18
 417 76 417 76 413 53 c 128,-1,19
 409 30 409 30 400.5 14 c 128,-1,20
 392 -2 392 -2 376 -2 c 0,21,22
 361 -2 361 -2 353 21.5 c 128,-1,23
 345 45 345 45 343 74 c 1,24,25
 327 91 327 91 306 107.5 c 128,-1,26
 285 124 285 124 260 137 c 128,-1,27
 235 150 235 150 207 158 c 128,-1,28
 179 166 179 166 150 166 c 0,29,30
 142 166 142 166 132 160.5 c 128,-1,31
 122 155 122 155 111.5 148.5 c 128,-1,32
 101 142 101 142 91 136.5 c 128,-1,33
 81 131 81 131 73 131 c 0,34,35
 49 131 49 131 32.5 143 c 128,-1,36
 16 155 16 155 16 192 c 256,37,38
 16 229 16 229 63 243 c 0,39,40
 83 249 83 249 100.5 247.5 c 128,-1,41
 118 246 118 246 140 251 c 0,42,43
 157 255 157 255 173 280 c 128,-1,44
 189 305 189 305 201.5 336.5 c 128,-1,45
 214 368 214 368 221.5 400 c 128,-1,46
 229 432 229 432 229 451 c 0,47,48
 228 473 228 473 220 489.5 c 128,-1,49
 212 506 212 506 201 517 c 128,-1,50
 190 528 190 528 178 534 c 128,-1,51
 166 540 166 540 157 541 c 0,52,53
 137 541 137 541 123.5 528 c 128,-1,54
 110 515 110 515 105 501 c 1,55,56
 112 498 112 498 121.5 493 c 128,-1,57
 131 488 131 488 139 480 c 128,-1,58
 147 472 147 472 152.5 460.5 c 128,-1,59
 158 449 158 449 158 433 c 0,60,61
 158 387 158 387 141.5 364.5 c 128,-1,62
 125 342 125 342 96 342 c 0,63,64
 73 342 73 342 58.5 353.5 c 128,-1,65
 44 365 44 365 36.5 382 c 128,-1,66
 29 399 29 399 26.5 419.5 c 128,-1,67
 24 440 24 440 24 457 c 0,68,69
 24 480 24 480 24.5 492.5 c 128,-1,70
 25 505 25 505 26.5 513 c 128,-1,71
 28 521 28 521 31.5 527.5 c 128,-1,72
 35 534 35 534 40 545 c 1,73,74
 31 555 31 555 18 555 c 0,75,76
 8 555 8 555 -3 550.5 c 128,-1,77
 -14 546 -14 546 -24 538.5 c 128,-1,78
 -34 531 -34 531 -42.5 522 c 128,-1,79
 -51 513 -51 513 -55 505 c 1,80,81
 -70 530 -70 530 -80.5 544 c 128,-1,82
 -91 558 -91 558 -93 562 c 1,83,84
 -73 581 -73 581 -50.5 594.5 c 128,-1,85
 -28 608 -28 608 1 608 c 0,86,87
 27 608 27 608 49 600 c 128,-1,88
 71 592 71 592 84 575 c 1,89,90
 94 587 94 587 108 597 c 128,-1,91
 122 607 122 607 151 607 c 0,92,93
 168 607 168 607 190.5 598.5 c 128,-1,94
 213 590 213 590 233.5 571 c 128,-1,95
 254 552 254 552 268 521.5 c 128,-1,96
 282 491 282 491 282 448 c 0,97,98
 282 416 282 416 275.5 384 c 128,-1,99
 269 352 269 352 259 323 c 128,-1,100
 249 294 249 294 237 270 c 128,-1,101
 225 246 225 246 215 230 c 1,102,103
 227 224 227 224 241.5 219 c 128,-1,104
 256 214 256 214 272 208 c 128,-1,105
 288 202 288 202 304.5 192.5 c 128,-1,106
 321 183 321 183 337 168 c 1,107,108
 338 206 338 206 341 252.5 c 128,-1,109
 344 299 344 299 348 345 c 0,110,111
 350 366 350 366 352 394 c 128,-1,112
 354 422 354 422 357 450 c 128,-1,113
 360 478 360 478 363.5 502.5 c 128,-1,114
 367 527 367 527 371 539 c 0,115,116
 378 560 378 560 389.5 573 c 128,-1,117
 401 586 401 586 416 593.5 c 128,-1,118
 431 601 431 601 447.5 604 c 128,-1,119
 464 607 464 607 481 607 c 0,120,121
 499 607 499 607 521.5 594 c 128,-1,122
 544 581 544 581 558 561 c 0,0,1
EndSplineSet
EndChar

StartChar: uni09A6
Encoding: 2470 2470 61
Width: 390
GlyphClass: 2
Flags: W
AnchorPoint: "Anchor-2" 300 -127 basechar 0
AnchorPoint: "Anchor-1" 258 505 basechar 0
AnchorPoint: "Anchor-0" 260 505 basechar 0
LayerCount: 2
Fore
SplineSet
266 85 m 0,0,1
 258 109 258 109 255.5 133 c 128,-1,2
 253 157 253 157 253 181 c 0,3,4
 253 229 253 229 262 271 c 1,5,6
 239 229 239 229 207 183 c 128,-1,7
 175 137 175 137 133 89 c 0,8,9
 122 77 122 77 105 77 c 0,10,11
 83 77 83 77 71 84 c 128,-1,12
 59 91 59 91 54 103.5 c 128,-1,13
 49 116 49 116 47.5 133 c 128,-1,14
 46 150 46 150 45 170 c 0,15,16
 46 181 46 181 46 193 c 2,17,-1
 46 277 l 2,18,19
 46 316 46 316 45.5 356 c 128,-1,20
 45 396 45 396 44 430.5 c 128,-1,21
 43 465 43 465 42 491.5 c 128,-1,22
 41 518 41 518 40 529 c 1,23,24
 29 549 29 549 11 549 c 0,25,26
 2 549 2 549 -8 544 c 128,-1,27
 -18 539 -18 539 -27 532 c 128,-1,28
 -36 525 -36 525 -43.5 516 c 128,-1,29
 -51 507 -51 507 -55 500 c 1,30,31
 -70 525 -70 525 -80.5 541 c 128,-1,32
 -91 557 -91 557 -93 562 c 1,33,34
 -73 581 -73 581 -50.5 594 c 128,-1,35
 -28 607 -28 607 1 609 c 0,36,37
 17 609 17 609 33 606 c 128,-1,38
 49 603 49 603 63 595 c 128,-1,39
 77 587 77 587 87.5 573 c 128,-1,40
 98 559 98 559 102 538 c 1,41,42
 117 562 117 562 141 576.5 c 128,-1,43
 165 591 165 591 191.5 599.5 c 128,-1,44
 218 608 218 608 243.5 611 c 128,-1,45
 269 614 269 614 286 614 c 0,46,47
 306 614 306 614 333 609.5 c 128,-1,48
 360 605 360 605 386.5 597.5 c 128,-1,49
 413 590 413 590 435 581 c 128,-1,50
 457 572 457 572 467 562 c 1,51,52
 465 557 465 557 454.5 541 c 128,-1,53
 444 525 444 525 429 500 c 1,54,55
 425 506 425 506 412.5 515 c 128,-1,56
 400 524 400 524 382 532 c 128,-1,57
 364 540 364 540 342 546 c 128,-1,58
 320 552 320 552 297 552 c 0,59,60
 259 552 259 552 228.5 542.5 c 128,-1,61
 198 533 198 533 174.5 517 c 128,-1,62
 151 501 151 501 135.5 481.5 c 128,-1,63
 120 462 120 462 111 441 c 1,64,-1
 111 206 l 2,65,66
 111 204 111 204 110 203 c 2,67,-1
 110 202 l 2,68,69
 110 195 110 195 112.5 188 c 128,-1,70
 115 181 115 181 121 181 c 0,71,72
 135 181 135 181 148.5 195 c 128,-1,73
 162 209 162 209 176 230.5 c 128,-1,74
 190 252 190 252 204 279.5 c 128,-1,75
 218 307 218 307 232.5 333.5 c 128,-1,76
 247 360 247 360 261.5 383.5 c 128,-1,77
 276 407 276 407 292 421 c 1,78,79
 306 407 306 407 316 390 c 128,-1,80
 326 373 326 373 334 362 c 1,81,82
 320 298 320 298 320 230 c 0,83,84
 320 201 320 201 322.5 171 c 128,-1,85
 325 141 325 141 332 112 c 0,86,87
 354 35 354 35 386.5 -19 c 128,-1,88
 419 -73 419 -73 462.5 -110 c 128,-1,89
 506 -147 506 -147 561 -170.5 c 128,-1,90
 616 -194 616 -194 684 -209 c 0,91,92
 710 -215 710 -215 738 -217.5 c 128,-1,93
 766 -220 766 -220 794 -220 c 0,94,95
 840 -220 840 -220 877.5 -214.5 c 128,-1,96
 915 -209 915 -209 930 -203 c 0,97,98
 931 -204 931 -204 931 -209 c 0,99,100
 931 -212 931 -212 930.5 -216 c 128,-1,101
 930 -220 930 -220 930 -224 c 2,102,-1
 930 -226 l 1,103,104
 912 -240 912 -240 865.5 -247.5 c 128,-1,105
 819 -255 819 -255 764 -255 c 0,106,107
 693 -255 693 -255 617 -239 c 128,-1,108
 541 -223 541 -223 472.5 -184 c 128,-1,109
 404 -145 404 -145 349 -79.5 c 128,-1,110
 294 -14 294 -14 266 85 c 0,0,1
EndSplineSet
EndChar

StartChar: uni09A7
Encoding: 2471 2471 62
Width: 378
GlyphClass: 2
Flags: W
AnchorPoint: "Anchor-2" 300 -134 basechar 0
AnchorPoint: "Anchor-1" 300 505 basechar 0
AnchorPoint: "Anchor-0" 300 505 basechar 0
LayerCount: 2
Fore
SplineSet
468 562 m 1,0,1
 466 558 466 558 455.5 543.5 c 128,-1,2
 445 529 445 529 430 505 c 1,3,4
 422 519 422 519 405.5 529.5 c 128,-1,5
 389 540 389 540 372 540 c 0,6,7
 364 540 364 540 355.5 537.5 c 128,-1,8
 347 535 347 535 339 526.5 c 128,-1,9
 331 518 331 518 325 502.5 c 128,-1,10
 319 487 319 487 316 462 c 0,11,12
 317 443 317 443 317 426 c 2,13,-1
 317 334 l 2,14,15
 317 286 317 286 316.5 250.5 c 128,-1,16
 316 215 316 215 316 187 c 0,17,18
 316 162 316 162 317.5 146.5 c 128,-1,19
 319 131 319 131 320.5 117 c 128,-1,20
 322 103 322 103 323.5 85.5 c 128,-1,21
 325 68 325 68 325 38 c 0,22,23
 325 15 325 15 314.5 3 c 128,-1,24
 304 -9 304 -9 289 -9 c 0,25,26
 272 -9 272 -9 255.5 5 c 128,-1,27
 239 19 239 19 228 48 c 1,28,29
 209 76 209 76 186 95 c 128,-1,30
 163 114 163 114 139.5 128.5 c 128,-1,31
 116 143 116 143 93 155 c 128,-1,32
 70 167 70 167 52.5 180.5 c 128,-1,33
 35 194 35 194 23.5 210.5 c 128,-1,34
 12 227 12 227 11 252 c 0,35,36
 12 259 12 259 21.5 272.5 c 128,-1,37
 31 286 31 286 46 302.5 c 128,-1,38
 61 319 61 319 79 336.5 c 128,-1,39
 97 354 97 354 115 370 c 1,40,41
 110 374 110 374 100.5 389.5 c 128,-1,42
 91 405 91 405 80 428 c 128,-1,43
 69 451 69 451 58.5 479.5 c 128,-1,44
 48 508 48 508 40 538 c 1,45,46
 9 530 9 530 -14 515 c 128,-1,47
 -37 500 -37 500 -44 489 c 1,48,49
 -60 515 -60 515 -70.5 535.5 c 128,-1,50
 -81 556 -81 556 -83 560 c 1,51,52
 -68 575 -68 575 -39 589.5 c 128,-1,53
 -10 604 -10 604 28 611 c 1,54,55
 22 629 22 629 22 651 c 0,56,57
 22 676 22 676 27.5 699.5 c 128,-1,58
 33 723 33 723 45 741 c 128,-1,59
 57 759 57 759 76.5 770 c 128,-1,60
 96 781 96 781 124 781 c 0,61,62
 153 781 153 781 173 760.5 c 128,-1,63
 193 740 193 740 193 711 c 0,64,65
 193 687 193 687 175 667.5 c 128,-1,66
 157 648 157 648 134 648 c 0,67,68
 121 648 121 648 108 656 c 1,69,70
 102 651 102 651 99 637.5 c 128,-1,71
 96 624 96 624 96 615 c 1,72,73
 123 612 123 612 148.5 604.5 c 128,-1,74
 174 597 174 597 195.5 585.5 c 128,-1,75
 217 574 217 574 234 560 c 128,-1,76
 251 546 251 546 260 531 c 1,77,78
 272 560 272 560 304.5 583.5 c 128,-1,79
 337 607 337 607 383 607 c 0,80,81
 415 607 415 607 435 591 c 128,-1,82
 455 575 455 575 468 562 c 1,0,1
248 410 m 1,83,84
 235 387 235 387 214.5 367 c 128,-1,85
 194 347 194 347 171 328 c 128,-1,86
 148 309 148 309 124 290.5 c 128,-1,87
 100 272 100 272 80 252 c 1,88,89
 103 245 103 245 127 229.5 c 128,-1,90
 151 214 151 214 173.5 194.5 c 128,-1,91
 196 175 196 175 216 155 c 128,-1,92
 236 135 236 135 251 119 c 1,93,-1
 248 410 l 1,83,84
212 490 m 1,94,95
 192 512 192 512 161 526.5 c 128,-1,96
 130 541 130 541 102 546 c 1,97,98
 108 527 108 527 115 505 c 128,-1,99
 122 483 122 483 130 464 c 128,-1,100
 138 445 138 445 146.5 431 c 128,-1,101
 155 417 155 417 163 414 c 1,102,103
 168 419 168 419 176.5 428.5 c 128,-1,104
 185 438 185 438 193 448.5 c 128,-1,105
 201 459 201 459 206.5 469 c 128,-1,106
 212 479 212 479 212 487 c 2,107,-1
 212 490 l 1,94,95
EndSplineSet
EndChar

StartChar: uni09A8
Encoding: 2472 2472 63
Width: 369
GlyphClass: 2
Flags: W
AnchorPoint: "Anchor-2" 300 -131 basechar 0
AnchorPoint: "Anchor-1" 300 505 basechar 0
AnchorPoint: "Anchor-0" 300 505 basechar 0
LayerCount: 2
Fore
SplineSet
455 562 m 1,0,1
 453 557 453 557 442.5 541 c 128,-1,2
 432 525 432 525 417 500 c 1,3,4
 410 513 410 513 393.5 524 c 128,-1,5
 377 535 377 535 360 535 c 0,6,7
 350 535 350 535 340.5 530 c 128,-1,8
 331 525 331 525 323.5 512.5 c 128,-1,9
 316 500 316 500 311.5 477.5 c 128,-1,10
 307 455 307 455 307 420 c 0,11,12
 307 413 307 413 307.5 406.5 c 128,-1,13
 308 400 308 400 308 392 c 2,14,-1
 308 159 l 1,15,-1
 306 2 l 1,16,17
 298 0 298 0 295 0 c 2,18,-1
 286 0 l 2,19,20
 278 0 278 0 272 1 c 128,-1,21
 266 2 266 2 256 2 c 0,22,23
 253 2 253 2 249.5 1.5 c 128,-1,24
 246 1 246 1 241 1 c 1,25,26
 241 65 241 65 240.5 122.5 c 128,-1,27
 240 180 240 180 233 223.5 c 128,-1,28
 226 267 226 267 211 292 c 128,-1,29
 196 317 196 317 167 317 c 0,30,31
 150 317 150 317 136 304 c 128,-1,32
 122 291 122 291 117 266 c 1,33,34
 134 249 134 249 142 218 c 128,-1,35
 150 187 150 187 150 156 c 0,36,37
 150 138 150 138 147.5 119 c 128,-1,38
 145 100 145 100 137.5 83.5 c 128,-1,39
 130 67 130 67 116 56.5 c 128,-1,40
 102 46 102 46 79 46 c 0,41,42
 61 46 61 46 49.5 57.5 c 128,-1,43
 38 69 38 69 31.5 86 c 128,-1,44
 25 103 25 103 23 121.5 c 128,-1,45
 21 140 21 140 21 154 c 0,46,47
 21 202 21 202 28 245 c 128,-1,48
 35 288 35 288 50 320 c 128,-1,49
 65 352 65 352 90 371 c 128,-1,50
 115 390 115 390 151 390 c 0,51,52
 179 390 179 390 205 373 c 128,-1,53
 231 356 231 356 240 314 c 1,54,-1
 240 322 l 2,55,56
 240 332 240 332 238.5 349.5 c 128,-1,57
 237 367 237 367 235.5 386 c 128,-1,58
 234 405 234 405 232 422.5 c 128,-1,59
 230 440 230 440 229 449 c 0,60,61
 225 466 225 466 212 483.5 c 128,-1,62
 199 501 199 501 179 515 c 128,-1,63
 159 529 159 529 133 538 c 128,-1,64
 107 547 107 547 78 547 c 0,65,66
 58 547 58 547 37 541 c 128,-1,67
 16 535 16 535 -2.5 526 c 128,-1,68
 -21 517 -21 517 -35 507 c 128,-1,69
 -49 497 -49 497 -54 489 c 1,70,71
 -70 515 -70 515 -80.5 535.5 c 128,-1,72
 -91 556 -91 556 -93 560 c 1,73,74
 -84 569 -84 569 -67 579 c 128,-1,75
 -50 589 -50 589 -28.5 596.5 c 128,-1,76
 -7 604 -7 604 18 609 c 128,-1,77
 43 614 43 614 68 614 c 0,78,79
 97 614 97 614 125.5 607 c 128,-1,80
 154 600 154 600 178.5 589 c 128,-1,81
 203 578 203 578 222 562.5 c 128,-1,82
 241 547 241 547 250 531 c 1,83,84
 269 573 269 573 302 590 c 128,-1,85
 335 607 335 607 370 607 c 0,86,87
 403 607 403 607 423 590.5 c 128,-1,88
 443 574 443 574 455 562 c 1,0,1
EndSplineSet
EndChar

StartChar: uni09AA
Encoding: 2474 2474 64
Width: 516
GlyphClass: 2
Flags: W
AnchorPoint: "Anchor-2" 458 -144 basechar 0
AnchorPoint: "Anchor-1" 428 505 basechar 0
AnchorPoint: "Anchor-0" 423 505 basechar 0
LayerCount: 2
Fore
SplineSet
609 566 m 0,0,1
 607 563 607 563 596.5 544.5 c 128,-1,2
 586 526 586 526 570 500 c 1,3,4
 562 514 562 514 544.5 525 c 128,-1,5
 527 536 527 536 510 536 c 0,6,7
 490 536 490 536 479.5 517 c 128,-1,8
 469 498 469 498 464 472.5 c 128,-1,9
 459 447 459 447 458 419.5 c 128,-1,10
 457 392 457 392 457 376 c 0,11,12
 457 341 457 341 457.5 313 c 128,-1,13
 458 285 458 285 458 252 c 0,14,15
 458 210 458 210 457.5 167.5 c 128,-1,16
 457 125 457 125 457 82 c 2,17,-1
 457 19 l 2,18,19
 457 9 457 9 458 -1 c 0,20,21
 455 -2 455 -2 449 -2 c 2,22,-1
 439 -2 l 2,23,24
 428 -2 428 -2 415.5 -1.5 c 128,-1,25
 403 -1 403 -1 393 -1 c 1,26,27
 395 91 395 91 397 189.5 c 128,-1,28
 399 288 399 288 399 388 c 2,29,-1
 399 402 l 2,30,31
 399 415 399 415 394.5 428.5 c 128,-1,32
 390 442 390 442 378 442 c 256,33,34
 366 442 366 442 349 431.5 c 128,-1,35
 332 421 332 421 315 405.5 c 128,-1,36
 298 390 298 390 283 372.5 c 128,-1,37
 268 355 268 355 260 342 c 0,38,39
 251 326 251 326 242.5 310 c 128,-1,40
 234 294 234 294 225.5 281.5 c 128,-1,41
 217 269 217 269 208.5 261 c 128,-1,42
 200 253 200 253 190 253 c 0,43,44
 173 253 173 253 156.5 261.5 c 128,-1,45
 140 270 140 270 140 286 c 0,46,47
 140 297 140 297 145.5 309.5 c 128,-1,48
 151 322 151 322 157.5 334.5 c 128,-1,49
 164 347 164 347 169.5 358.5 c 128,-1,50
 175 370 175 370 175 379 c 0,51,52
 175 396 175 396 160.5 407.5 c 128,-1,53
 146 419 146 419 125 424 c 0,54,55
 115 424 115 424 106 415 c 128,-1,56
 97 406 97 406 88.5 394.5 c 128,-1,57
 80 383 80 383 71 374 c 128,-1,58
 62 365 62 365 52 365 c 0,59,60
 35 365 35 365 27 380.5 c 128,-1,61
 19 396 19 396 19 408 c 256,62,63
 19 420 19 420 23 433 c 128,-1,64
 27 446 27 446 34 461 c 0,65,66
 43 482 43 482 64 509.5 c 128,-1,67
 85 537 85 537 114 561.5 c 128,-1,68
 143 586 143 586 176.5 603 c 128,-1,69
 210 620 210 620 245 620 c 0,70,71
 272 620 272 620 299.5 614.5 c 128,-1,72
 327 609 327 609 351 598 c 128,-1,73
 375 587 375 587 393.5 570 c 128,-1,74
 412 553 412 553 421 530 c 1,75,76
 433 565 433 565 455 587.5 c 128,-1,77
 477 610 477 610 512 610 c 0,78,79
 532 610 532 610 546 607 c 128,-1,80
 560 604 560 604 571 598 c 128,-1,81
 582 592 582 592 590.5 584 c 128,-1,82
 599 576 599 576 609 566 c 0,0,1
348 513 m 1,83,84
 344 526 344 526 332 535 c 128,-1,85
 320 544 320 544 304 550 c 128,-1,86
 288 556 288 556 271 559 c 128,-1,87
 254 562 254 562 241 562 c 0,88,89
 227 562 227 562 209 552 c 128,-1,90
 191 542 191 542 174.5 528.5 c 128,-1,91
 158 515 158 515 145.5 502.5 c 128,-1,92
 133 490 133 490 130 485 c 1,93,94
 146 483 146 483 163 473 c 128,-1,95
 180 463 180 463 193.5 450 c 128,-1,96
 207 437 207 437 215.5 424 c 128,-1,97
 224 411 224 411 224 404 c 1,98,99
 229 416 229 416 242.5 432 c 128,-1,100
 256 448 256 448 273 464 c 128,-1,101
 290 480 290 480 310 493.5 c 128,-1,102
 330 507 330 507 348 513 c 1,83,84
EndSplineSet
EndChar

StartChar: uni09AB
Encoding: 2475 2475 65
Width: 636
GlyphClass: 2
Flags: W
AnchorPoint: "Anchor-2" 400 -130 basechar 0
AnchorPoint: "Anchor-1" 400 505 basechar 0
AnchorPoint: "Anchor-0" 400 505 basechar 0
LayerCount: 2
Fore
SplineSet
611 461 m 2,0,-1
 611 442 l 2,1,2
 611 348 611 348 583 306 c 128,-1,3
 555 264 555 264 488 264 c 0,4,5
 452 264 452 264 426 287 c 128,-1,6
 400 310 400 310 400 346 c 0,7,8
 400 360 400 360 404 374 c 128,-1,9
 408 388 408 388 415 399.5 c 128,-1,10
 422 411 422 411 432 418 c 128,-1,11
 442 425 442 425 454 425 c 0,12,13
 482 425 482 425 496.5 406.5 c 128,-1,14
 511 388 511 388 523 365 c 1,15,16
 535 370 535 370 540 384 c 128,-1,17
 545 398 545 398 545 415 c 0,18,19
 545 479 545 479 518.5 507.5 c 128,-1,20
 492 536 492 536 459 536 c 0,21,22
 435 536 435 536 419.5 529 c 128,-1,23
 404 522 404 522 394.5 498 c 128,-1,24
 385 474 385 474 381.5 428.5 c 128,-1,25
 378 383 378 383 378 306 c 0,26,27
 378 264 378 264 380 229.5 c 128,-1,28
 382 195 382 195 385 178 c 0,29,30
 387 166 387 166 394.5 157.5 c 128,-1,31
 402 149 402 149 410.5 137 c 128,-1,32
 419 125 419 125 425.5 107 c 128,-1,33
 432 89 432 89 432 60 c 0,34,35
 432 29 432 29 415.5 11.5 c 128,-1,36
 399 -6 399 -6 378 -6 c 256,37,38
 357 -6 357 -6 337.5 13 c 128,-1,39
 318 32 318 32 311 74 c 1,40,41
 290 91 290 91 260.5 101.5 c 128,-1,42
 231 112 231 112 198.5 119 c 128,-1,43
 166 126 166 126 134.5 132 c 128,-1,44
 103 138 103 138 77.5 147 c 128,-1,45
 52 156 52 156 36 170.5 c 128,-1,46
 20 185 20 185 19 208 c 1,47,48
 23 210 23 210 31 228 c 128,-1,49
 39 246 39 246 52 272.5 c 128,-1,50
 65 299 65 299 82 330.5 c 128,-1,51
 99 362 99 362 120 391 c 0,52,53
 124 395 124 395 131.5 407 c 128,-1,54
 139 419 139 419 145.5 434.5 c 128,-1,55
 152 450 152 450 157 466.5 c 128,-1,56
 162 483 162 483 162 497 c 256,57,58
 162 511 162 511 156.5 521 c 128,-1,59
 151 531 151 531 142 537 c 128,-1,60
 133 543 133 543 122.5 545.5 c 128,-1,61
 112 548 112 548 102 548 c 0,62,63
 80 548 80 548 57 542.5 c 128,-1,64
 34 537 34 537 13.5 528.5 c 128,-1,65
 -7 520 -7 520 -22 509.5 c 128,-1,66
 -37 499 -37 499 -44 489 c 1,67,68
 -60 515 -60 515 -70.5 535.5 c 128,-1,69
 -81 556 -81 556 -83 560 c 1,70,71
 -74 569 -74 569 -57 579 c 128,-1,72
 -40 589 -40 589 -18.5 596.5 c 128,-1,73
 3 604 3 604 28 609 c 128,-1,74
 53 614 53 614 78 614 c 2,75,-1
 100 614 l 2,76,77
 121 614 121 614 144.5 609.5 c 128,-1,78
 168 605 168 605 188 593 c 128,-1,79
 208 581 208 581 221.5 560 c 128,-1,80
 235 539 235 539 235 507 c 0,81,82
 235 487 235 487 231 468.5 c 128,-1,83
 227 450 227 450 221 434 c 128,-1,84
 215 418 215 418 209 405.5 c 128,-1,85
 203 393 203 393 200 387 c 0,86,87
 186 362 186 362 174 342.5 c 128,-1,88
 162 323 162 323 151 303.5 c 128,-1,89
 140 284 140 284 129 263 c 128,-1,90
 118 242 118 242 106 215 c 1,91,92
 126 206 126 206 154 201.5 c 128,-1,93
 182 197 182 197 211.5 191 c 128,-1,94
 241 185 241 185 268.5 174.5 c 128,-1,95
 296 164 296 164 314 143 c 1,96,97
 309 181 309 181 306 225.5 c 128,-1,98
 303 270 303 270 303 321 c 0,99,100
 303 361 303 361 306 406 c 0,101,102
 306 420 306 420 308 441.5 c 128,-1,103
 310 463 310 463 314.5 486 c 128,-1,104
 319 509 319 509 325 530.5 c 128,-1,105
 331 552 331 552 339 566 c 0,106,107
 353 592 353 592 383.5 601.5 c 128,-1,108
 414 611 414 611 446 611 c 0,109,110
 516 611 516 611 562 574.5 c 128,-1,111
 608 538 608 538 611 461 c 2,0,-1
EndSplineSet
EndChar

StartChar: uni09AC
Encoding: 2476 2476 66
Width: 378
GlyphClass: 2
Flags: W
AnchorPoint: "Anchor-2" 274 -100 basechar 0
AnchorPoint: "Anchor-1" 300 505 basechar 0
AnchorPoint: "Anchor-0" 300 505 basechar 0
LayerCount: 2
Fore
SplineSet
468 562 m 1,0,1
 466 558 466 558 455.5 543.5 c 128,-1,2
 445 529 445 529 430 505 c 1,3,4
 422 519 422 519 405.5 529.5 c 128,-1,5
 389 540 389 540 372 540 c 0,6,7
 364 540 364 540 355.5 537.5 c 128,-1,8
 347 535 347 535 339 526.5 c 128,-1,9
 331 518 331 518 325 502.5 c 128,-1,10
 319 487 319 487 316 462 c 0,11,12
 317 443 317 443 317 426 c 2,13,-1
 317 334 l 2,14,15
 317 286 317 286 316.5 250.5 c 128,-1,16
 316 215 316 215 316 187 c 0,17,18
 316 161 316 161 318 141.5 c 128,-1,19
 320 122 320 122 320 106 c 0,20,21
 320 68 320 68 305.5 47.5 c 128,-1,22
 291 27 291 27 270 27 c 256,23,24
 249 27 249 27 228 48 c 1,25,26
 209 76 209 76 186 95 c 128,-1,27
 163 114 163 114 139.5 128.5 c 128,-1,28
 116 143 116 143 93 155 c 128,-1,29
 70 167 70 167 52.5 180.5 c 128,-1,30
 35 194 35 194 23.5 210.5 c 128,-1,31
 12 227 12 227 11 252 c 0,32,33
 13 265 13 265 28.5 283.5 c 128,-1,34
 44 302 44 302 66.5 322.5 c 128,-1,35
 89 343 89 343 114.5 365.5 c 128,-1,36
 140 388 140 388 161.5 410 c 128,-1,37
 183 432 183 432 197.5 452 c 128,-1,38
 212 472 212 472 212 488 c 2,39,-1
 212 490 l 1,40,41
 188 517 188 517 155 532 c 128,-1,42
 122 547 122 547 87 547 c 0,43,44
 67 547 67 547 46 540.5 c 128,-1,45
 25 534 25 534 7 525 c 128,-1,46
 -11 516 -11 516 -25 506 c 128,-1,47
 -39 496 -39 496 -44 489 c 1,48,49
 -60 515 -60 515 -70.5 535.5 c 128,-1,50
 -81 556 -81 556 -83 560 c 1,51,52
 -74 569 -74 569 -57 579 c 128,-1,53
 -40 589 -40 589 -18.5 596.5 c 128,-1,54
 3 604 3 604 28 609 c 128,-1,55
 53 614 53 614 78 614 c 0,56,57
 107 614 107 614 135.5 607 c 128,-1,58
 164 600 164 600 188.5 589 c 128,-1,59
 213 578 213 578 232 562.5 c 128,-1,60
 251 547 251 547 260 531 c 1,61,62
 272 560 272 560 304.5 583.5 c 128,-1,63
 337 607 337 607 383 607 c 0,64,65
 415 607 415 607 435 591 c 128,-1,66
 455 575 455 575 468 562 c 1,0,1
248 410 m 1,67,68
 235 387 235 387 214.5 367 c 128,-1,69
 194 347 194 347 171 328 c 128,-1,70
 148 309 148 309 124 290.5 c 128,-1,71
 100 272 100 272 80 252 c 1,72,73
 103 245 103 245 127 229.5 c 128,-1,74
 151 214 151 214 173.5 194.5 c 128,-1,75
 196 175 196 175 216 155 c 128,-1,76
 236 135 236 135 251 119 c 1,77,-1
 248 410 l 1,67,68
EndSplineSet
EndChar

StartChar: uni09AD
Encoding: 2477 2477 67
Width: 663
GlyphClass: 2
Flags: W
AnchorPoint: "Anchor-2" 429 -100 basechar 0
AnchorPoint: "Anchor-1" 432 505 basechar 0
AnchorPoint: "Anchor-0" 426 505 basechar 0
LayerCount: 2
Fore
SplineSet
752 562 m 1,0,1
 750 558 750 558 739.5 543.5 c 128,-1,2
 729 529 729 529 714 505 c 1,3,4
 706 518 706 518 689.5 529.5 c 128,-1,5
 673 541 673 541 653 541 c 0,6,7
 639 541 639 541 626.5 534 c 128,-1,8
 614 527 614 527 603 510 c 1,9,10
 610 499 610 499 612.5 481.5 c 128,-1,11
 615 464 615 464 615 441 c 0,12,13
 615 411 615 411 611.5 374.5 c 128,-1,14
 608 338 608 338 602 303 c 0,15,16
 595 261 595 261 581.5 211.5 c 128,-1,17
 568 162 568 162 542.5 120 c 128,-1,18
 517 78 517 78 476 49.5 c 128,-1,19
 435 21 435 21 372 21 c 0,20,21
 336 21 336 21 306.5 30.5 c 128,-1,22
 277 40 277 40 252 56 c 128,-1,23
 227 72 227 72 205.5 91.5 c 128,-1,24
 184 111 184 111 164 132 c 0,25,26
 136 161 136 161 116 206 c 128,-1,27
 96 251 96 251 83 302.5 c 128,-1,28
 70 354 70 354 64 407 c 128,-1,29
 58 460 58 460 58 504 c 2,30,-1
 58 532 l 2,31,32
 58 536 58 536 59 541 c 1,33,34
 48 552 48 552 32 552 c 0,35,36
 9 552 9 552 -15 537 c 128,-1,37
 -39 522 -39 522 -48 505 c 1,38,39
 -63 530 -63 530 -73.5 544 c 128,-1,40
 -84 558 -84 558 -86 562 c 1,41,42
 -61 585 -61 585 -35.5 597 c 128,-1,43
 -10 609 -10 609 31 609 c 2,44,-1
 38 609 l 2,45,46
 41 609 41 609 47 607 c 1,47,48
 48 650 48 650 54 700.5 c 128,-1,49
 60 751 60 751 77.5 793.5 c 128,-1,50
 95 836 95 836 126.5 864.5 c 128,-1,51
 158 893 158 893 211 893 c 0,52,53
 219 893 219 893 236.5 888 c 128,-1,54
 254 883 254 883 274 869 c 128,-1,55
 294 855 294 855 312.5 829.5 c 128,-1,56
 331 804 331 804 341 763 c 1,57,-1
 326 747 l 1,58,59
 319 771 319 771 306 792 c 128,-1,60
 293 813 293 813 276.5 828 c 128,-1,61
 260 843 260 843 241 852 c 128,-1,62
 222 861 222 861 204 861 c 0,63,64
 177 861 177 861 158 843.5 c 128,-1,65
 139 826 139 826 126.5 798 c 128,-1,66
 114 770 114 770 108 734 c 128,-1,67
 102 698 102 698 102 662 c 0,68,69
 102 608 102 608 104 542 c 128,-1,70
 106 476 106 476 116 410 c 128,-1,71
 126 344 126 344 146.5 284 c 128,-1,72
 167 224 167 224 204 184 c 0,73,74
 219 167 219 167 235 151.5 c 128,-1,75
 251 136 251 136 269.5 124 c 128,-1,76
 288 112 288 112 311 104.5 c 128,-1,77
 334 97 334 97 363 97 c 0,78,79
 419 97 419 97 451.5 123.5 c 128,-1,80
 484 150 484 150 501.5 191.5 c 128,-1,81
 519 233 519 233 526 283 c 128,-1,82
 533 333 533 333 538 380 c 0,83,84
 539 391 539 391 541 397.5 c 128,-1,85
 543 404 543 404 542 409 c 0,86,87
 542 474 542 474 520 474 c 0,88,89
 510 474 510 474 499.5 464 c 128,-1,90
 489 454 489 454 484 439 c 0,91,92
 480 421 480 421 475.5 389 c 128,-1,93
 471 357 471 357 457 325.5 c 128,-1,94
 443 294 443 294 414 271 c 128,-1,95
 385 248 385 248 333 248 c 0,96,97
 289 248 289 248 257.5 273.5 c 128,-1,98
 226 299 226 299 205.5 336 c 128,-1,99
 185 373 185 373 175 415.5 c 128,-1,100
 165 458 165 458 165 491 c 0,101,102
 165 516 165 516 174.5 543.5 c 128,-1,103
 184 571 184 571 201 593.5 c 128,-1,104
 218 616 218 616 240.5 630.5 c 128,-1,105
 263 645 263 645 289 645 c 0,106,107
 329 645 329 645 358 623.5 c 128,-1,108
 387 602 387 602 387 560 c 0,109,110
 387 531 387 531 371 507 c 128,-1,111
 355 483 355 483 323 483 c 0,112,113
 304 483 304 483 289.5 492 c 128,-1,114
 275 501 275 501 264 515 c 1,115,116
 256 504 256 504 250.5 487.5 c 128,-1,117
 245 471 245 471 245 454 c 0,118,119
 245 442 245 442 250 425 c 0,120,121
 253 416 253 416 257.5 399.5 c 128,-1,122
 262 383 262 383 271.5 367.5 c 128,-1,123
 281 352 281 352 296 340 c 128,-1,124
 311 328 311 328 335 328 c 0,125,126
 357 328 357 328 372.5 341 c 128,-1,127
 388 354 388 354 398.5 374 c 128,-1,128
 409 394 409 394 415.5 418.5 c 128,-1,129
 422 443 422 443 427.5 466 c 128,-1,130
 433 489 433 489 437.5 508 c 128,-1,131
 442 527 442 527 448 536 c 0,132,133
 461 556 461 556 482.5 570 c 128,-1,134
 504 584 504 584 528 584 c 0,135,136
 553 584 553 584 576 567 c 1,137,138
 593 595 593 595 611 601 c 128,-1,139
 629 607 629 607 662 607 c 0,140,141
 692 605 692 605 712 593 c 128,-1,142
 732 581 732 581 752 562 c 1,0,1
EndSplineSet
EndChar

StartChar: uni09AE
Encoding: 2478 2478 68
Width: 468
GlyphClass: 2
Flags: W
AnchorPoint: "Anchor-2" 371 -128 basechar 0
AnchorPoint: "Anchor-1" 400 505 basechar 0
AnchorPoint: "Anchor-0" 400 505 basechar 0
LayerCount: 2
Fore
SplineSet
554 562 m 0,0,1
 552 558 552 558 541.5 542 c 128,-1,2
 531 526 531 526 516 500 c 1,3,4
 508 515 508 515 490 524 c 128,-1,5
 472 533 472 533 455 533 c 0,6,7
 426 533 426 533 410.5 503 c 128,-1,8
 395 473 395 473 395 404 c 256,9,10
 395 335 395 335 397.5 274 c 128,-1,11
 400 213 400 213 404 153 c 1,12,13
 410 139 410 139 414.5 117 c 128,-1,14
 419 95 419 95 419 73 c 0,15,16
 419 33 419 33 403 16.5 c 128,-1,17
 387 0 387 0 375 0 c 0,18,19
 361 0 361 0 349 17 c 128,-1,20
 337 34 337 34 328 55 c 0,21,22
 317 80 317 80 309 111 c 1,23,24
 301 124 301 124 287 138.5 c 128,-1,25
 273 153 273 153 256 165 c 128,-1,26
 239 177 239 177 221 185 c 128,-1,27
 203 193 203 193 187 193 c 1,28,29
 184 179 184 179 177 159 c 128,-1,30
 170 139 170 139 157 120.5 c 128,-1,31
 144 102 144 102 125 88.5 c 128,-1,32
 106 75 106 75 79 74 c 0,33,34
 58 74 58 74 45 81.5 c 128,-1,35
 32 89 32 89 25 99.5 c 128,-1,36
 18 110 18 110 15.5 121 c 128,-1,37
 13 132 13 132 13 140 c 0,38,39
 13 164 13 164 21 188 c 128,-1,40
 29 212 29 212 45 231.5 c 128,-1,41
 61 251 61 251 83 263 c 128,-1,42
 105 275 105 275 134 275 c 1,43,44
 143 293 143 293 147 320 c 128,-1,45
 151 347 151 347 151 376 c 0,46,47
 151 413 151 413 146.5 440 c 128,-1,48
 142 467 142 467 132 486.5 c 128,-1,49
 122 506 122 506 106.5 519 c 128,-1,50
 91 532 91 532 69 542 c 0,51,52
 61 545 61 545 53 545 c 0,53,54
 32 545 32 545 7 531 c 128,-1,55
 -18 517 -18 517 -28 500 c 1,56,57
 -43 525 -43 525 -53.5 541 c 128,-1,58
 -64 557 -64 557 -66 562 c 1,59,60
 -46 581 -46 581 -23.5 594.5 c 128,-1,61
 -1 608 -1 608 28 608 c 0,62,63
 44 608 44 608 67 605 c 128,-1,64
 90 602 90 602 112 593 c 128,-1,65
 134 584 134 584 151 568.5 c 128,-1,66
 168 553 168 553 173 528 c 1,67,68
 178 570 178 570 206.5 589 c 128,-1,69
 235 608 235 608 272 608 c 0,70,71
 306 608 306 608 333 593.5 c 128,-1,72
 360 579 360 579 367 540 c 1,73,74
 373 558 373 558 384.5 570.5 c 128,-1,75
 396 583 396 583 410.5 590.5 c 128,-1,76
 425 598 425 598 440 602 c 128,-1,77
 455 606 455 606 469 607 c 0,78,79
 487 607 487 607 501 602 c 128,-1,80
 515 597 515 597 526 590 c 128,-1,81
 537 583 537 583 544 575 c 128,-1,82
 551 567 551 567 554 562 c 0,0,1
336 492 m 2,83,84
 336 521 336 521 316 534.5 c 128,-1,85
 296 548 296 548 270 548 c 0,86,87
 255 548 255 548 243 540 c 128,-1,88
 231 532 231 532 222.5 520.5 c 128,-1,89
 214 509 214 509 209.5 497 c 128,-1,90
 205 485 205 485 205 476 c 0,91,92
 205 470 205 470 211.5 446 c 128,-1,93
 218 422 218 422 218 390 c 0,94,95
 218 361 218 361 214 329 c 128,-1,96
 210 297 210 297 201 269 c 1,97,98
 228 266 228 266 260 244 c 128,-1,99
 292 222 292 222 334 189 c 1,100,-1
 336 492 l 2,83,84
140 199 m 1,101,102
 134 206 134 206 127 206 c 0,103,104
 121 206 121 206 111.5 199.5 c 128,-1,105
 102 193 102 193 93 183 c 128,-1,106
 84 173 84 173 77.5 161.5 c 128,-1,107
 71 150 71 150 71 140 c 0,108,109
 71 135 71 135 74 129 c 128,-1,110
 77 123 77 123 83 123 c 0,111,112
 91 123 91 123 99 130.5 c 128,-1,113
 107 138 107 138 125 158 c 0,114,115
 133 166 133 166 134.5 176.5 c 128,-1,116
 136 187 136 187 140 199 c 1,101,102
EndSplineSet
EndChar

StartChar: uni09AF
Encoding: 2479 2479 69
Width: 483
GlyphClass: 2
Flags: W
AnchorPoint: "Anchor-3" 10 -153 basechar 0
AnchorPoint: "Anchor-2" 362 -100 basechar 0
AnchorPoint: "Anchor-1" 365 505 basechar 0
AnchorPoint: "Anchor-0" 370 505 basechar 0
LayerCount: 2
Fore
SplineSet
574 562 m 1,0,1
 572 558 572 558 561.5 543.5 c 128,-1,2
 551 529 551 529 536 505 c 1,3,4
 528 519 528 519 512.5 527.5 c 128,-1,5
 497 536 497 536 480 536 c 0,6,7
 465 536 465 536 455 528.5 c 128,-1,8
 445 521 445 521 438 509 c 128,-1,9
 431 497 431 497 426.5 482 c 128,-1,10
 422 467 422 467 419 453 c 2,11,-1
 419 372 l 2,12,13
 419 334 419 334 418 292 c 128,-1,14
 417 250 417 250 414.5 209.5 c 128,-1,15
 412 169 412 169 406.5 134 c 128,-1,16
 401 99 401 99 392 76 c 0,17,18
 388 62 388 62 373.5 50 c 128,-1,19
 359 38 359 38 338.5 29.5 c 128,-1,20
 318 21 318 21 293 16 c 128,-1,21
 268 11 268 11 243 11 c 0,22,23
 194 11 194 11 139 26.5 c 128,-1,24
 84 42 84 42 29 82 c 0,25,26
 22 88 22 88 22 108 c 0,27,28
 22 125 22 125 27 143 c 128,-1,29
 32 161 32 161 40 166 c 1,30,31
 54 167 54 167 72 175.5 c 128,-1,32
 90 184 90 184 105.5 200.5 c 128,-1,33
 121 217 121 217 132 242 c 128,-1,34
 143 267 143 267 143 301 c 0,35,36
 143 336 143 336 138 360 c 128,-1,37
 133 384 133 384 125.5 403 c 128,-1,38
 118 422 118 422 109 440 c 128,-1,39
 100 458 100 458 91 481 c 0,40,41
 74 516 74 516 52 531.5 c 128,-1,42
 30 547 30 547 9 547 c 256,43,44
 -12 547 -12 547 -29 535 c 128,-1,45
 -46 523 -46 523 -55 505 c 1,46,47
 -70 530 -70 530 -80.5 544 c 128,-1,48
 -91 558 -91 558 -93 562 c 1,49,50
 -73 581 -73 581 -50.5 594.5 c 128,-1,51
 -28 608 -28 608 1 608 c 0,52,53
 17 608 17 608 32.5 605.5 c 128,-1,54
 48 603 48 603 62 595.5 c 128,-1,55
 76 588 76 588 88.5 574.5 c 128,-1,56
 101 561 101 561 110 539 c 1,57,58
 116 557 116 557 128.5 574 c 128,-1,59
 141 591 141 591 158 604 c 128,-1,60
 175 617 175 617 195.5 625 c 128,-1,61
 216 633 216 633 239 633 c 0,62,63
 264 633 264 633 286.5 625 c 128,-1,64
 309 617 309 617 327.5 603.5 c 128,-1,65
 346 590 346 590 359 573 c 128,-1,66
 372 556 372 556 378 539 c 1,67,68
 391 574 391 574 422.5 590.5 c 128,-1,69
 454 607 454 607 489 607 c 0,70,71
 509 607 509 607 521 603.5 c 128,-1,72
 533 600 533 600 542 594 c 128,-1,73
 551 588 551 588 558 579.5 c 128,-1,74
 565 571 565 571 574 562 c 1,0,1
343 352 m 0,75,76
 343 388 343 388 338.5 424 c 128,-1,77
 334 460 334 460 322 489 c 128,-1,78
 310 518 310 518 290.5 536 c 128,-1,79
 271 554 271 554 241 554 c 0,80,81
 213 554 213 554 190 536 c 128,-1,82
 167 518 167 518 147 496 c 1,83,84
 157 473 157 473 167.5 446 c 128,-1,85
 178 419 178 419 186 392.5 c 128,-1,86
 194 366 194 366 199.5 342.5 c 128,-1,87
 205 319 205 319 205 303 c 0,88,89
 205 271 205 271 197 241.5 c 128,-1,90
 189 212 189 212 175 188 c 128,-1,91
 161 164 161 164 142.5 146 c 128,-1,92
 124 128 124 128 103 119 c 1,93,94
 122 101 122 101 150.5 91 c 128,-1,95
 179 81 179 81 221 81 c 0,96,97
 258 81 258 81 286 90 c 128,-1,98
 314 99 314 99 319 118 c 0,99,100
 327 134 327 134 332 162.5 c 128,-1,101
 337 191 337 191 339.5 224 c 128,-1,102
 342 257 342 257 342.5 290.5 c 128,-1,103
 343 324 343 324 343 352 c 0,75,76
EndSplineSet
EndChar

StartChar: uni09B0
Encoding: 2480 2480 70
Width: 378
GlyphClass: 2
Flags: W
AnchorPoint: "Anchor-2" 300 -134 basechar 0
AnchorPoint: "Anchor-1" 268 505 basechar 0
AnchorPoint: "Anchor-0" 271 505 basechar 0
LayerCount: 2
Fore
SplineSet
468 562 m 1,0,1
 466 558 466 558 455.5 543.5 c 128,-1,2
 445 529 445 529 430 505 c 1,3,4
 422 519 422 519 405.5 529.5 c 128,-1,5
 389 540 389 540 372 540 c 0,6,7
 364 540 364 540 355.5 537.5 c 128,-1,8
 347 535 347 535 339 526.5 c 128,-1,9
 331 518 331 518 325 502.5 c 128,-1,10
 319 487 319 487 316 462 c 0,11,12
 317 443 317 443 317 426 c 2,13,-1
 317 334 l 2,14,15
 317 286 317 286 316.5 250.5 c 128,-1,16
 316 215 316 215 316 187 c 0,17,18
 316 162 316 162 317.5 146.5 c 128,-1,19
 319 131 319 131 320.5 117 c 128,-1,20
 322 103 322 103 323.5 85.5 c 128,-1,21
 325 68 325 68 325 38 c 0,22,23
 325 15 325 15 314.5 3 c 128,-1,24
 304 -9 304 -9 289 -9 c 0,25,26
 272 -9 272 -9 255.5 5 c 128,-1,27
 239 19 239 19 228 48 c 1,28,29
 209 76 209 76 186 95 c 128,-1,30
 163 114 163 114 139.5 128.5 c 128,-1,31
 116 143 116 143 93 155 c 128,-1,32
 70 167 70 167 52.5 180.5 c 128,-1,33
 35 194 35 194 23.5 210.5 c 128,-1,34
 12 227 12 227 11 252 c 0,35,36
 13 265 13 265 28.5 283.5 c 128,-1,37
 44 302 44 302 66.5 322.5 c 128,-1,38
 89 343 89 343 114.5 365.5 c 128,-1,39
 140 388 140 388 161.5 410 c 128,-1,40
 183 432 183 432 197.5 452 c 128,-1,41
 212 472 212 472 212 488 c 2,42,-1
 212 490 l 1,43,44
 188 517 188 517 155 532 c 128,-1,45
 122 547 122 547 87 547 c 0,46,47
 67 547 67 547 46 540.5 c 128,-1,48
 25 534 25 534 7 525 c 128,-1,49
 -11 516 -11 516 -25 506 c 128,-1,50
 -39 496 -39 496 -44 489 c 1,51,52
 -60 515 -60 515 -70.5 535.5 c 128,-1,53
 -81 556 -81 556 -83 560 c 1,54,55
 -74 569 -74 569 -57 579 c 128,-1,56
 -40 589 -40 589 -18.5 596.5 c 128,-1,57
 3 604 3 604 28 609 c 128,-1,58
 53 614 53 614 78 614 c 0,59,60
 107 614 107 614 135.5 607 c 128,-1,61
 164 600 164 600 188.5 589 c 128,-1,62
 213 578 213 578 232 562.5 c 128,-1,63
 251 547 251 547 260 531 c 1,64,65
 272 560 272 560 304.5 583.5 c 128,-1,66
 337 607 337 607 383 607 c 0,67,68
 415 607 415 607 435 591 c 128,-1,69
 455 575 455 575 468 562 c 1,0,1
248 410 m 1,70,71
 235 387 235 387 214.5 367 c 128,-1,72
 194 347 194 347 171 328 c 128,-1,73
 148 309 148 309 124 290.5 c 128,-1,74
 100 272 100 272 80 252 c 1,75,76
 103 245 103 245 127 229.5 c 128,-1,77
 151 214 151 214 173.5 194.5 c 128,-1,78
 196 175 196 175 216 155 c 128,-1,79
 236 135 236 135 251 119 c 1,80,-1
 248 410 l 1,70,71
152 12 m 0,81,82
 146 -9 146 -9 129.5 -20 c 128,-1,83
 113 -31 113 -31 90 -31 c 0,84,85
 66 -31 66 -31 46.5 -15.5 c 128,-1,86
 27 0 27 0 27 25 c 256,87,88
 27 50 27 50 44.5 68.5 c 128,-1,89
 62 87 62 87 87 89 c 0,90,91
 112 89 112 89 133 69.5 c 128,-1,92
 154 50 154 50 154 25 c 0,93,94
 154 22 154 22 152 12 c 0,81,82
EndSplineSet
EndChar

StartChar: uni09B2
Encoding: 2482 2482 71
Width: 541
GlyphClass: 2
Flags: W
AnchorPoint: "Anchor-2" 485 -141 basechar 0
AnchorPoint: "Anchor-1" 445 505 basechar 0
AnchorPoint: "Anchor-0" 445 505 basechar 0
LayerCount: 2
Fore
SplineSet
637 562 m 1,0,1
 635 558 635 558 624.5 543.5 c 128,-1,2
 614 529 614 529 599 505 c 1,3,4
 591 519 591 519 579 528.5 c 128,-1,5
 567 538 567 538 553 538 c 0,6,7
 533 538 533 538 520 520.5 c 128,-1,8
 507 503 507 503 499.5 479.5 c 128,-1,9
 492 456 492 456 489 431.5 c 128,-1,10
 486 407 486 407 486 392 c 0,11,12
 486 381 486 381 486.5 369.5 c 128,-1,13
 487 358 487 358 487 347 c 0,14,15
 487 269 487 269 486.5 203 c 128,-1,16
 486 137 486 137 486 89 c 0,17,18
 486 53 486 53 486.5 30 c 128,-1,19
 487 7 487 7 488 -1 c 0,20,21
 485 -3 485 -3 477.5 -3.5 c 128,-1,22
 470 -4 470 -4 461 -4.5 c 128,-1,23
 452 -5 452 -5 444 -5 c 2,24,-1
 432 -5 l 2,25,26
 422 -5 422 -5 418.5 0.5 c 128,-1,27
 415 6 415 6 415 26 c 0,28,29
 415 56 415 56 416 102 c 128,-1,30
 417 148 417 148 417 195 c 0,31,32
 417 220 417 220 416 243.5 c 128,-1,33
 415 267 415 267 411 285 c 128,-1,34
 407 303 407 303 398.5 313.5 c 128,-1,35
 390 324 390 324 375 324 c 0,36,37
 353 324 353 324 340.5 311 c 128,-1,38
 328 298 328 298 321.5 277.5 c 128,-1,39
 315 257 315 257 312.5 232.5 c 128,-1,40
 310 208 310 208 308 185 c 1,41,42
 294 183 294 183 286.5 182.5 c 128,-1,43
 279 182 279 182 272 182 c 0,44,45
 267 182 267 182 263 182.5 c 128,-1,46
 259 183 259 183 254 183 c 1,47,48
 248 198 248 198 247 226.5 c 128,-1,49
 246 255 246 255 244 284.5 c 128,-1,50
 242 314 242 314 235 339.5 c 128,-1,51
 228 365 228 365 209 375 c 0,52,53
 196 381 196 381 186.5 387 c 128,-1,54
 177 393 177 393 165 393 c 0,55,56
 145 393 145 393 132.5 385.5 c 128,-1,57
 120 378 120 378 112.5 365.5 c 128,-1,58
 105 353 105 353 102 336.5 c 128,-1,59
 99 320 99 320 99 303 c 0,60,61
 99 290 99 290 105.5 282 c 128,-1,62
 112 274 112 274 122 266.5 c 128,-1,63
 132 259 132 259 144 249.5 c 128,-1,64
 156 240 156 240 166 224 c 128,-1,65
 176 208 176 208 182.5 182.5 c 128,-1,66
 189 157 189 157 189 118 c 0,67,68
 189 93 189 93 177.5 71.5 c 128,-1,69
 166 50 166 50 134 50 c 0,70,71
 104 50 104 50 81.5 71.5 c 128,-1,72
 59 93 59 93 43.5 123 c 128,-1,73
 28 153 28 153 20.5 186 c 128,-1,74
 13 219 13 219 13 243 c 0,75,76
 13 254 13 254 14.5 274.5 c 128,-1,77
 16 295 16 295 21.5 319.5 c 128,-1,78
 27 344 27 344 37.5 370 c 128,-1,79
 48 396 48 396 65 417.5 c 128,-1,80
 82 439 82 439 107 453 c 128,-1,81
 132 467 132 467 167 468 c 0,82,83
 194 468 194 468 213.5 459.5 c 128,-1,84
 233 451 233 451 247 436.5 c 128,-1,85
 261 422 261 422 271.5 402.5 c 128,-1,86
 282 383 282 383 291 361 c 1,87,88
 304 383 304 383 328 398.5 c 128,-1,89
 352 414 352 414 376 414 c 0,90,91
 396 414 396 414 411 402 c 1,92,-1
 411 478 l 1,93,94
 404 502 404 502 380.5 521.5 c 128,-1,95
 357 541 357 541 324 554.5 c 128,-1,96
 291 568 291 568 251 575.5 c 128,-1,97
 211 583 211 583 171 583 c 0,98,99
 136 583 136 583 101.5 579 c 128,-1,100
 67 575 67 575 36.5 566 c 128,-1,101
 6 557 6 557 -18 542 c 128,-1,102
 -42 527 -42 527 -55 505 c 1,103,-1
 -92 562 l 1,104,105
 -58 604 -58 604 10 625 c 128,-1,106
 78 646 78 646 160 646 c 0,107,108
 253 646 253 646 330.5 618.5 c 128,-1,109
 408 591 408 591 450 537 c 1,110,111
 453 549 453 549 462 561 c 128,-1,112
 471 573 471 573 483.5 583 c 128,-1,113
 496 593 496 593 511.5 599.5 c 128,-1,114
 527 606 527 606 542 606 c 0,115,116
 562 606 562 606 576 602.5 c 128,-1,117
 590 599 590 599 600.5 593 c 128,-1,118
 611 587 611 587 619.5 579 c 128,-1,119
 628 571 628 571 637 562 c 1,0,1
EndSplineSet
EndChar

StartChar: uni09B6
Encoding: 2486 2486 72
Width: 458
GlyphClass: 2
Flags: W
AnchorPoint: "Anchor-2" 400 -141 basechar 0
AnchorPoint: "Anchor-1" 363 505 basechar 0
AnchorPoint: "Anchor-0" 367 505 basechar 0
LayerCount: 2
Fore
SplineSet
370 540 m 1,0,1
 383 577 383 577 410 592 c 128,-1,2
 437 607 437 607 472 607 c 0,3,4
 501 607 501 607 519.5 594 c 128,-1,5
 538 581 538 581 557 562 c 1,6,7
 555 556 555 556 545.5 542 c 128,-1,8
 536 528 536 528 520 503 c 1,9,10
 515 521 515 521 498 532 c 128,-1,11
 481 543 481 543 463 543 c 0,12,13
 441 543 441 543 429 523 c 128,-1,14
 417 503 417 503 411 476 c 128,-1,15
 405 449 405 449 404 421 c 128,-1,16
 403 393 403 393 403 378 c 0,17,18
 403 326 403 326 405 257.5 c 128,-1,19
 407 189 407 189 407 117 c 2,20,-1
 407 54 l 2,21,22
 407 38 407 38 406.5 23.5 c 128,-1,23
 406 9 406 9 405 -5 c 1,24,25
 400 -3 400 -3 396 -2.5 c 128,-1,26
 392 -2 392 -2 388 -2 c 0,27,28
 383 -2 383 -2 378 -2.5 c 128,-1,29
 373 -3 373 -3 365 -3 c 0,30,31
 360 -3 360 -3 355 -2.5 c 128,-1,32
 350 -2 350 -2 343 -1 c 1,33,34
 340 81 340 81 340 156 c 0,35,36
 340 204 340 204 341 249 c 128,-1,37
 342 294 342 294 342 345 c 0,38,39
 342 372 342 372 339.5 408.5 c 128,-1,40
 337 445 337 445 329 478 c 128,-1,41
 321 511 321 511 304 534 c 128,-1,42
 287 557 287 557 259 557 c 0,43,44
 251 557 251 557 238.5 550.5 c 128,-1,45
 226 544 226 544 214 534 c 128,-1,46
 202 524 202 524 193.5 511 c 128,-1,47
 185 498 185 498 185 485 c 0,48,49
 185 474 185 474 186.5 467.5 c 128,-1,50
 188 461 188 461 191 456.5 c 128,-1,51
 194 452 194 452 199.5 446.5 c 128,-1,52
 205 441 205 441 213 432 c 0,53,54
 216 428 216 428 229.5 420.5 c 128,-1,55
 243 413 243 413 257.5 401 c 128,-1,56
 272 389 272 389 284 371.5 c 128,-1,57
 296 354 296 354 296 332 c 0,58,59
 296 309 296 309 283.5 295 c 128,-1,60
 271 281 271 281 245 281 c 0,61,62
 213 281 213 281 195 302.5 c 128,-1,63
 177 324 177 324 168 350 c 2,64,-1
 157 383 l 1,65,66
 155 371 155 371 149.5 353 c 128,-1,67
 144 335 144 335 133.5 318.5 c 128,-1,68
 123 302 123 302 106.5 290.5 c 128,-1,69
 90 279 90 279 68 279 c 0,70,71
 41 279 41 279 27.5 295.5 c 128,-1,72
 14 312 14 312 14 333 c 0,73,74
 14 362 14 362 30 387.5 c 128,-1,75
 46 413 46 413 76 428 c 0,76,77
 102 441 102 441 112.5 457 c 128,-1,78
 123 473 123 473 123 484 c 0,79,80
 123 499 123 499 113.5 511.5 c 128,-1,81
 104 524 104 524 89.5 533 c 128,-1,82
 75 542 75 542 57 547 c 128,-1,83
 39 552 39 552 22 552 c 0,84,85
 10 552 10 552 -2 547 c 128,-1,86
 -14 542 -14 542 -24.5 534.5 c 128,-1,87
 -35 527 -35 527 -43 519 c 128,-1,88
 -51 511 -51 511 -55 505 c 1,89,90
 -63 519 -63 519 -68.5 527.5 c 128,-1,91
 -74 536 -74 536 -78 542 c 128,-1,92
 -82 548 -82 548 -85.5 552.5 c 128,-1,93
 -89 557 -89 557 -93 563 c 1,94,95
 -76 580 -76 580 -49 594.5 c 128,-1,96
 -22 609 -22 609 11 609 c 0,97,98
 31 609 31 609 53.5 605 c 128,-1,99
 76 601 76 601 96.5 592.5 c 128,-1,100
 117 584 117 584 133 571.5 c 128,-1,101
 149 559 149 559 156 542 c 1,102,103
 184 608 184 608 260 608 c 0,104,105
 295 608 295 608 323.5 592.5 c 128,-1,106
 352 577 352 577 370 540 c 1,0,1
EndSplineSet
EndChar

StartChar: uni09B7
Encoding: 2487 2487 73
Width: 522
GlyphClass: 2
Flags: W
AnchorPoint: "Anchor-2" 372 -78 basechar 0
AnchorPoint: "Anchor-1" 400 505 basechar 0
AnchorPoint: "Anchor-0" 400 505 basechar 0
LayerCount: 2
Fore
SplineSet
610 562 m 1,0,-1
 599 547 l 2,1,2
 593 539 593 539 585.5 528 c 128,-1,3
 578 517 578 517 569 503 c 1,4,5
 562 517 562 517 545.5 525 c 128,-1,6
 529 533 529 533 509 533 c 0,7,8
 487 533 487 533 472.5 525.5 c 128,-1,9
 458 518 458 518 448.5 506.5 c 128,-1,10
 439 495 439 495 434 480.5 c 128,-1,11
 429 466 429 466 426 453 c 0,12,13
 426 433 426 433 422 405.5 c 128,-1,14
 418 378 418 378 418 349 c 1,15,16
 461 342 461 342 476.5 321.5 c 128,-1,17
 492 301 492 301 499 272 c 1,18,19
 494 259 494 259 484 246.5 c 128,-1,20
 474 234 474 234 469 230 c 1,21,22
 467 244 467 244 455 258 c 128,-1,23
 443 272 443 272 418 278 c 1,24,-1
 418 249 l 2,25,26
 418 231 418 231 417.5 206.5 c 128,-1,27
 417 182 417 182 415.5 157.5 c 128,-1,28
 414 133 414 133 411 111 c 128,-1,29
 408 89 408 89 404 76 c 0,30,31
 400 61 400 61 384 49 c 128,-1,32
 368 37 368 37 345 28 c 128,-1,33
 322 19 322 19 295 14 c 128,-1,34
 268 9 268 9 243 9 c 0,35,36
 194 9 194 9 139 24.5 c 128,-1,37
 84 40 84 40 27 80 c 0,38,39
 20 86 20 86 20 107 c 0,40,41
 20 124 20 124 25 143 c 128,-1,42
 30 162 30 162 39 168 c 1,43,44
 53 169 53 169 71 177.5 c 128,-1,45
 89 186 89 186 104.5 202.5 c 128,-1,46
 120 219 120 219 130.5 243.5 c 128,-1,47
 141 268 141 268 141 301 c 0,48,49
 141 336 141 336 136 360 c 128,-1,50
 131 384 131 384 123.5 403.5 c 128,-1,51
 116 423 116 423 107 440.5 c 128,-1,52
 98 458 98 458 89 481 c 0,53,54
 72 516 72 516 50.5 530.5 c 128,-1,55
 29 545 29 545 9 545 c 256,56,57
 -11 545 -11 545 -28.5 533 c 128,-1,58
 -46 521 -46 521 -55 503 c 1,59,60
 -64 517 -64 517 -71.5 528 c 128,-1,61
 -79 539 -79 539 -85 547 c 2,62,-1
 -96 562 l 1,63,64
 -76 582 -76 582 -52 596 c 128,-1,65
 -28 610 -28 610 1 610 c 0,66,67
 16 610 16 610 33.5 607.5 c 128,-1,68
 51 605 51 605 67.5 598 c 128,-1,69
 84 591 84 591 98 577.5 c 128,-1,70
 112 564 112 564 119 542 c 1,71,72
 132 578 132 578 163 606.5 c 128,-1,73
 194 635 194 635 239 635 c 0,74,75
 263 635 263 635 286 627 c 128,-1,76
 309 619 309 619 328.5 606 c 128,-1,77
 348 593 348 593 362 576.5 c 128,-1,78
 376 560 376 560 383 542 c 1,79,80
 396 575 396 575 430 592.5 c 128,-1,81
 464 610 464 610 506 610 c 0,82,83
 542 610 542 610 565 597 c 128,-1,84
 588 584 588 584 610 562 c 1,0,-1
337 312 m 1,85,86
 289 336 289 336 252 363.5 c 128,-1,87
 215 391 215 391 177 433 c 1,88,89
 194 391 194 391 200.5 360.5 c 128,-1,90
 207 330 207 330 207 302 c 0,91,92
 207 270 207 270 199 240.5 c 128,-1,93
 191 211 191 211 177.5 187 c 128,-1,94
 164 163 164 163 145.5 145.5 c 128,-1,95
 127 128 127 128 106 119 c 1,96,97
 125 102 125 102 152 92.5 c 128,-1,98
 179 83 179 83 221 83 c 0,99,100
 261 83 261 83 284.5 89.5 c 128,-1,101
 308 96 308 96 320 111 c 128,-1,102
 332 126 332 126 335.5 149 c 128,-1,103
 339 172 339 172 339 205 c 0,104,105
 339 231 339 231 338 258.5 c 128,-1,106
 337 286 337 286 337 312 c 1,85,86
337 390 m 1,107,108
 336 424 336 424 330.5 453.5 c 128,-1,109
 325 483 325 483 313.5 505.5 c 128,-1,110
 302 528 302 528 283.5 541 c 128,-1,111
 265 554 265 554 238 554 c 0,112,113
 221 554 221 554 208 547 c 128,-1,114
 195 540 195 540 181 529 c 1,115,116
 195 516 195 516 213.5 497.5 c 128,-1,117
 232 479 232 479 253 459.5 c 128,-1,118
 274 440 274 440 295.5 421.5 c 128,-1,119
 317 403 317 403 337 390 c 1,107,108
EndSplineSet
EndChar

